<?xml version="1.0" encoding="UTF-8" standalone="no"?>
<svg
   version="1.0"
   width="300px"
   height="470px"
   viewBox="0 0 300 470"
   preserveAspectRatio="xMidYMid meet"
   id="svg130"
   sodipodi:docname="FemaleFrontMusclesOG.svg"
   inkscape:version="1.4 (e7c3feb1, 2024-10-09)"
   xmlns:inkscape="http://www.inkscape.org/namespaces/inkscape"
   xmlns:sodipodi="http://sodipodi.sourceforge.net/DTD/sodipodi-0.dtd"
   xmlns="http://www.w3.org/2000/svg"
   xmlns:svg="http://www.w3.org/2000/svg">
  <defs
     id="defs130" />
  <sodipodi:namedview
     id="namedview130"
     pagecolor="#ffffff"
     bordercolor="#000000"
     borderopacity="0.25"
     inkscape:showpageshadow="2"
     inkscape:pageopacity="0.0"
     inkscape:pagecheckerboard="0"
     inkscape:deskcolor="#d1d1d1"
     inkscape:zoom="1.016955"
     inkscape:cx="142.58251"
     inkscape:cy="343.67302"
     inkscape:window-width="1200"
     inkscape:window-height="670"
     inkscape:window-x="0"
     inkscape:window-y="25"
     inkscape:window-maximized="0"
     inkscape:current-layer="svg130" />
  <metadata
     id="metadata1">
Created by potrace 1.10, written by Peter Selinger 2001-2011
</metadata>
  <g
     fill="#000000"
     stroke="none"
     id="g130"
     transform="matrix(0.12361611,0,0,-0.05411592,-36.835947,478.8588)">
    <path
       d="m 1465,8834 c -193,-47 -295,-217 -325,-544 -6,-63 -13,-122 -15,-130 -2,-8 -9,-53 -15,-100 -12,-105 -1,-203 35,-315 15,-44 27,-95 27,-112 0,-46 -42,-84 -152,-137 -86,-42 -113,-50 -251,-76 -123,-23 -192,-86 -228,-208 -36,-119 -42,-195 -26,-317 24,-177 29,-293 16,-387 -6,-47 -18,-164 -26,-260 -14,-174 -17,-189 -84,-379 -66,-189 -101,-461 -101,-784 0,-99 -5,-214 -11,-255 -14,-95 -15,-118 -1,-210 6,-41 12,-160 12,-263 0,-108 4,-196 10,-207 6,-11 17,-54 26,-97 21,-101 43,-143 99,-189 49,-40 49,-40 59,-7 6,18 -2,33 -38,70 -57,61 -72,49 -17,-13 49,-56 46,-72 -5,-23 -47,45 -59,70 -85,175 -18,76 -21,123 -23,314 -1,153 -6,245 -16,287 -19,84 -10,92 66,68 46,-14 58,-23 70,-50 7,-17 29,-51 49,-74 19,-24 38,-55 41,-70 3,-14 8,-32 10,-39 2,-7 -2,-55 -8,-107 -10,-83 -10,-101 5,-148 19,-59 22,-117 8,-117 -14,0 -39,28 -57,62 -15,30 -46,172 -42,192 2,6 -4,27 -12,46 l -15,35 -5,-30 c -3,-16 -2,-38 4,-47 7,-11 6,-38 -3,-83 -8,-37 -13,-88 -11,-113 1,-26 3,-71 3,-100 2,-51 4,-55 60,-103 31,-28 57,-55 57,-61 0,-6 -12,1 -27,16 -15,15 -39,34 -54,43 -45,27 -64,75 -75,192 -3,24 -11,55 -19,70 -18,33 -18,23 -1,-64 34,-170 37,-179 70,-205 17,-14 50,-42 73,-63 l 42,-39 7,27 c 5,22 0,34 -32,68 -22,23 -45,46 -52,52 -7,6 -17,28 -22,50 -13,54 -13,205 0,205 6,0 10,-11 10,-24 0,-40 17,-73 61,-121 46,-49 75,-60 63,-23 -4,12 -8,118 -8,234 -2,183 -4,215 -19,235 -10,13 -29,39 -42,58 -31,42 -32,95 -6,206 22,90 94,306 135,405 57,136 104,270 115,321 15,78 41,312 41,377 0,53 50,366 57,358 2,-2 19,-57 37,-122 67,-234 88,-386 63,-465 -10,-33 -12,-62 -6,-105 11,-78 82,-374 119,-495 35,-113 37,-134 10,-99 -69,87 -130,219 -160,345 -25,103 -25,161 1,230 12,31 19,59 16,61 -3,3 -25,-32 -49,-78 -24,-46 -58,-108 -75,-138 -59,-105 -102,-271 -128,-495 -9,-71 -22,-166 -30,-210 -24,-141 -27,-234 -10,-371 22,-185 53,-373 81,-489 13,-55 44,-190 69,-300 25,-110 59,-243 75,-295 50,-155 78,-271 84,-340 3,-36 11,-117 17,-180 11,-115 11,-115 -21,-235 -66,-248 -76,-401 -39,-586 30,-151 135,-587 170,-709 17,-58 36,-121 41,-140 5,-19 11,-116 12,-215 2,-99 8,-191 13,-205 8,-19 6,-33 -7,-60 -10,-20 -21,-57 -25,-84 -6,-40 -17,-60 -61,-107 -45,-49 -54,-65 -54,-97 0,-43 38,-92 71,-92 11,0 31,-7 44,-16 14,-9 51,-17 87,-18 35,-2 74,-8 85,-15 12,-6 40,-11 62,-11 32,0 44,5 56,24 20,30 30,168 17,225 -8,35 -8,51 4,72 16,33 18,43 4,34 -15,-9 -50,70 -50,115 0,39 -25,118 -35,109 -2,-3 3,-24 11,-48 8,-24 13,-46 10,-48 -3,-3 -10,14 -16,37 -27,100 -110,120 -160,38 -17,-28 -18,-29 -25,-9 -7,23 18,66 48,82 11,6 45,11 76,11 52,-1 58,-4 89,-38 31,-36 32,-41 32,-123 0,-47 5,-93 10,-101 8,-12 10,-12 10,5 1,11 3,73 6,137 4,94 1,131 -13,185 -15,57 -18,105 -17,288 2,243 12,348 52,535 35,168 35,270 -3,465 -37,191 -37,262 3,386 17,52 38,129 46,172 17,80 23,208 11,226 -3,6 -2,11 3,11 15,0 32,-82 32,-153 0,-36 7,-84 15,-108 9,-24 28,-98 42,-164 31,-143 28,-258 -8,-420 -27,-119 -29,-290 -5,-455 8,-58 23,-202 32,-320 l 16,-215 -26,-140 c -52,-272 -51,-261 -38,-313 9,-35 10,-56 2,-76 -15,-40 -12,-102 6,-137 13,-26 14,-43 4,-123 -11,-81 -10,-97 4,-124 26,-51 43,-55 169,-42 157,16 249,49 267,95 4,12 5,40 0,63 -6,32 -18,51 -52,81 -27,24 -57,65 -77,107 -29,60 -33,77 -34,160 -2,87 -8,106 -20,59 -3,-15 -5,-13 -6,8 0,15 5,40 13,55 7,15 16,65 19,112 6,91 61,320 127,529 41,132 99,361 125,497 29,152 18,341 -35,602 -16,82 -17,113 -9,282 9,209 21,276 75,413 47,122 113,395 171,713 45,251 47,265 47,454 0,181 -2,207 -32,355 -21,103 -39,241 -52,387 l -19,228 -87,168 c -79,154 -87,174 -91,239 -7,84 8,170 52,313 18,58 36,124 40,147 10,60 25,63 25,6 0,-26 9,-88 20,-138 17,-74 20,-122 19,-275 -2,-209 -2,-212 96,-530 98,-322 155,-539 155,-595 0,-24 -10,-51 -29,-78 -15,-23 -31,-58 -34,-77 -3,-19 -12,-53 -20,-75 -9,-26 -17,-100 -21,-211 -6,-145 -4,-173 8,-183 8,-7 24,-10 34,-6 22,6 32,33 32,87 0,20 4,40 10,43 12,7 13,-97 1,-167 -5,-33 -18,-59 -45,-88 -21,-23 -35,-45 -31,-48 3,-4 9,-1 13,5 5,7 18,10 31,6 18,-4 21,-10 16,-27 -4,-11 -9,-38 -12,-58 -7,-55 13,-49 74,21 81,92 99,124 123,223 12,51 32,111 45,134 21,39 22,49 18,280 -1,131 -7,259 -13,284 -20,88 -41,366 -50,649 l -9,286 -41,165 c -37,153 -41,180 -49,370 -7,141 -16,234 -30,300 -27,120 -26,133 5,260 24,94 26,117 20,220 -9,184 -45,287 -115,338 -25,18 -78,39 -148,57 -158,41 -272,105 -307,174 -21,39 -15,160 12,256 53,195 63,329 36,499 -34,212 -95,337 -209,429 -34,27 -81,54 -109,62 -62,19 -172,18 -251,-1 z m 301,-49 c 29,-21 54,-44 54,-52 0,-10 6,-13 17,-9 10,4 14,4 11,1 -4,-4 9,-28 29,-53 43,-58 53,-66 29,-27 -17,27 -17,29 -1,13 10,-9 19,-27 20,-40 4,-38 5,-39 13,-34 4,2 8,-3 9,-12 1,-9 9,-42 18,-72 14,-48 15,-68 5,-155 -23,-198 -51,-285 -91,-285 -10,0 -12,43 -3,53 4,4 8,26 11,49 2,23 15,60 29,81 14,21 23,41 20,44 -3,3 -8,-2 -12,-11 -3,-9 -10,-16 -16,-16 -5,0 -1,14 9,30 9,17 22,30 27,30 5,0 2,8 -7,18 -15,17 -87,147 -87,158 0,3 5,2 12,-2 7,-4 -2,17 -19,47 -43,77 -96,112 -177,117 -72,5 -87,27 -25,37 40,7 97,-7 137,-33 20,-13 96,-133 152,-240 12,-24 24,-41 26,-39 3,2 -25,60 -61,129 -36,69 -62,128 -57,133 4,5 2,5 -5,1 -13,-7 -27,10 -28,34 0,8 -9,16 -20,18 -20,3 -20,3 -1,-13 11,-8 15,-15 9,-15 -12,0 -31,21 -32,35 0,6 -22,13 -48,16 -45,5 -70,2 -118,-17 -20,-7 -20,-7 -1,14 15,17 32,22 90,25 l 71,3 -78,2 c -96,2 -117,-7 -117,-53 0,-40 14,-50 86,-60 62,-8 122,-41 149,-81 52,-76 92,-287 73,-381 -6,-29 -14,-50 -19,-47 -5,3 -9,-1 -9,-8 0,-7 -15,-30 -34,-50 -24,-26 -33,-44 -29,-58 10,-40 -48,-140 -81,-140 -7,0 -12,-9 -13,-21 -2,-18 0,-19 15,-8 54,41 74,69 109,157 37,96 38,96 47,63 12,-43 -6,-113 -40,-159 -14,-18 -57,-54 -95,-79 l -68,-46 -84,5 c -74,4 -91,8 -135,37 -83,53 -128,109 -142,177 -18,90 -18,88 -36,73 -21,-18 -37,1 -63,79 -34,100 -24,180 17,138 15,-15 15,-16 0,-16 -9,0 -20,-5 -24,-12 -4,-6 -3,-8 3,-5 12,7 58,-118 48,-132 -3,-6 1,-11 9,-11 9,0 16,-6 17,-12 0,-7 4,-5 8,5 5,15 12,9 31,-32 14,-28 29,-50 33,-51 13,0 -3,60 -29,113 -14,26 -27,67 -30,91 -7,48 11,232 27,283 18,57 138,143 200,143 25,0 39,37 39,100 0,71 17,84 102,78 59,-5 77,-11 124,-43 z m -251,27 c 14,-9 17,-53 4,-68 -5,-7 -9,-16 -8,-20 5,-32 -3,-39 -47,-42 -50,-3 -102,-25 -111,-47 -3,-8 -10,-12 -17,-8 -6,3 -8,2 -3,-2 4,-5 -2,-18 -12,-29 -24,-26 -80,-133 -111,-211 -31,-81 -43,-92 -35,-30 39,281 127,401 298,407 l 52,1 -60,7 -60,6 45,22 c 51,24 51,24 65,14 z m -279,-469 c -5,-39 -5,-40 -15,-24 -10,15 -3,51 10,51 4,0 6,-12 5,-27 z m 773,-221 c 0,-107 -5,-143 -25,-213 -47,-159 -54,-190 -54,-227 0,-28 3,-33 10,-22 8,13 10,13 10,-1 0,-9 -3,-30 -6,-47 l -6,-31 -33,32 c -47,46 -61,82 -69,167 -5,65 -3,80 14,108 11,17 25,31 32,30 8,-2 19,23 29,65 10,38 26,78 37,90 19,21 26,47 39,140 11,78 22,32 22,-91 z m -797,-77 c 23,-22 42,-52 48,-77 7,-22 20,-53 30,-67 16,-22 18,-33 10,-66 -5,-22 -10,-60 -10,-83 0,-24 -7,-59 -16,-78 -27,-56 -73,-55 -74,2 0,12 -11,50 -24,85 -24,64 -52,226 -42,237 3,3 6,-8 7,-24 1,-49 17,3 18,59 1,26 4,47 9,47 4,0 24,-16 44,-35 z m 147,-295 c 7,-52 26,-153 42,-224 34,-154 34,-149 10,-137 -32,18 -81,252 -81,396 0,103 14,86 29,-35 z m 448,3 c -12,-176 -40,-313 -72,-351 -13,-15 -26,-24 -30,-21 -3,4 3,35 14,70 26,82 71,309 71,360 0,22 5,39 11,39 8,0 10,-28 6,-97 z m -391,12 c 7,-19 25,-85 38,-147 20,-96 47,-182 81,-260 7,-17 4,-16 -36,1 l -44,20 -27,108 c -15,59 -34,151 -43,203 -8,52 -18,108 -21,124 l -6,28 22,-22 c 12,-12 28,-37 36,-55 z m 361,28 c -4,-21 -17,-76 -31,-123 -13,-47 -34,-130 -47,-185 -17,-76 -24,-94 -29,-75 l -6,25 -9,-25 c -4,-14 -15,-31 -24,-38 -14,-12 -14,-13 4,-8 23,5 202,21 410,36 147,10 245,3 309,-24 43,-18 113,-81 133,-119 43,-84 56,-318 24,-445 -10,-43 -22,-95 -26,-117 l -8,-40 -10,32 c -7,25 -4,60 13,149 28,145 24,244 -14,361 -15,45 -32,85 -38,89 -8,5 -9,1 -4,-12 17,-42 55,-182 61,-224 4,-28 1,-71 -9,-115 -9,-38 -20,-104 -24,-145 l -8,-75 -23,44 c -13,24 -42,94 -66,155 -67,173 -118,250 -217,329 -65,52 -61,34 8,-32 60,-59 116,-136 158,-218 37,-74 32,-76 -15,-7 -23,32 -65,86 -93,118 -59,69 -156,198 -156,208 0,4 -32,17 -71,29 -56,17 -88,21 -158,17 -108,-5 -154,-29 -209,-107 -20,-30 -42,-56 -47,-58 -6,-1 -26,25 -45,60 -22,39 -47,67 -65,76 -90,43 -384,9 -420,-49 -4,-6 -10,-8 -15,-5 -5,3 -11,-3 -15,-14 -3,-11 -28,-50 -56,-87 -28,-38 -66,-101 -85,-141 -22,-46 -56,-96 -94,-135 -54,-57 -76,-89 -50,-73 6,4 7,-1 3,-11 -4,-12 -8,-14 -11,-5 -3,8 -8,7 -18,-6 -26,-35 37,132 83,219 25,48 70,120 100,159 30,39 64,92 77,117 l 23,45 16,-24 c 10,-13 17,-18 17,-11 0,17 -45,62 -62,62 -10,0 -10,-2 0,-9 18,-11 -14,-76 -68,-141 -81,-97 -142,-209 -195,-354 -18,-52 -40,-107 -48,-123 l -15,-28 -6,25 c -22,93 -26,125 -26,210 0,105 19,194 52,248 28,45 90,89 138,97 22,4 42,11 45,15 3,5 -12,6 -32,3 -169,-26 -249,-204 -208,-463 10,-58 19,-117 22,-132 3,-16 1,-28 -5,-28 -5,0 -19,51 -32,114 -45,230 -12,434 85,523 86,79 136,86 515,69 236,-10 371,-41 385,-87 12,-37 51,32 84,151 33,115 114,334 133,358 17,20 21,14 15,-25 z m -289,-28 c 28,-24 33,-25 82,-14 28,6 54,8 57,5 3,-3 -2,-24 -12,-48 -11,-29 -20,-91 -25,-190 -5,-81 -13,-155 -18,-164 -9,-16 -12,-14 -24,16 -40,95 -88,284 -88,340 0,13 1,13 10,0 18,-28 10,5 -10,43 -23,43 -14,47 28,12 z m 178,-121 c -25,-59 -46,-112 -46,-120 0,-7 -4,-15 -9,-18 -12,-8 -3,67 15,125 17,55 75,149 81,132 3,-7 -16,-60 -41,-119 z m -349,-16 c 1,-38 11,-95 27,-143 14,-43 23,-81 21,-84 -8,-7 -41,81 -60,157 -14,60 -15,78 -5,102 7,17 13,30 14,30 1,0 3,-28 3,-62 z m 602,-72 c 38,-25 106,-65 152,-89 l 84,-42 -43,-3 c -31,-2 -50,3 -73,19 -16,11 -32,19 -35,17 -2,-3 7,-11 21,-18 41,-22 29,-30 -44,-30 -59,0 -74,4 -98,24 -47,39 -73,104 -73,177 l 1,64 19,-37 c 13,-23 45,-53 89,-82 z m -639,26 c 0,-47 -59,-115 -133,-153 -32,-17 -50,-19 -127,-13 l -90,7 108,52 c 59,29 134,71 167,94 33,22 63,41 68,41 4,0 7,-12 7,-28 z m 10,-87 c 0,-8 -14,-30 -31,-50 -25,-28 -38,-35 -68,-34 h -36 l 25,17 c 14,9 41,33 60,52 35,36 50,40 50,15 z m 567,-57 32,-33 -51,-1 -50,-1 6,30 c 3,16 6,44 7,61 l 1,31 12,-27 c 6,-16 26,-43 43,-60 z m -557,-3 c 0,-27 -12,-32 -29,-12 -8,10 -7,17 1,25 19,19 28,14 28,-13 z m 560,-96 c -12,-8 -10,-9 7,-4 39,11 133,-24 170,-64 41,-43 65,-85 55,-96 -4,-5 -2,-5 4,-2 6,4 23,-7 38,-23 14,-17 25,-30 23,-30 -2,0 23,-27 56,-60 l 58,-60 -19,-28 c -11,-15 -30,-58 -42,-95 -18,-54 -26,-67 -39,-62 -60,23 -142,37 -246,40 l -120,4 116,-9 c 143,-11 295,-48 275,-67 -3,-3 1,-21 9,-40 8,-20 15,-56 15,-82 0,-37 -6,-53 -29,-78 -16,-18 -26,-35 -22,-39 3,-4 -12,-4 -34,0 -78,13 -113,16 -65,5 74,-17 92,-30 35,-24 l -50,4 40,-13 c 54,-19 15,-19 -60,-1 -33,8 -71,14 -85,14 -14,-1 9,-9 50,-18 41,-9 80,-19 87,-24 19,-12 56,8 96,52 20,23 37,38 37,34 0,-26 -36,-112 -51,-122 -25,-15 -24,1 1,24 11,10 20,23 20,28 0,6 -12,-1 -27,-15 -34,-31 -73,-51 -135,-68 -83,-22 -175,5 -275,81 -67,50 -157,159 -178,213 l -15,41 4,-35 c 5,-45 68,-153 115,-197 20,-18 81,-64 136,-101 89,-60 103,-74 129,-125 26,-51 29,-69 29,-145 0,-48 -7,-126 -17,-174 -17,-89 -23,-400 -7,-382 14,16 103,216 98,220 -2,2 -23,-34 -45,-81 -23,-47 -43,-85 -45,-85 -2,0 -2,30 0,68 2,37 5,105 6,152 3,111 34,270 55,287 16,12 16,13 0,7 -15,-5 -18,0 -18,39 0,54 -37,145 -63,153 -30,10 -14,14 68,20 l 79,5 -20,-23 c -19,-21 -19,-21 16,2 19,13 53,39 74,59 39,36 40,36 22,6 -10,-16 -26,-39 -35,-50 -40,-48 -47,-59 -31,-51 8,4 -1,-7 -20,-24 -32,-29 -32,-31 -6,-15 26,16 28,16 23,1 -4,-9 -1,-16 6,-16 7,0 -4,-14 -23,-31 l -35,-31 40,26 c 36,24 39,29 36,66 -2,32 4,48 33,86 20,26 36,51 36,57 0,6 3,8 6,5 7,-8 -35,-159 -50,-177 -8,-12 -8,-13 2,-7 6,4 12,4 12,-1 0,-4 -19,-18 -42,-31 -24,-12 -54,-32 -68,-43 l -25,-20 25,12 c 14,7 42,23 63,37 20,14 39,23 41,21 2,-2 -9,-47 -25,-99 -54,-176 -71,-261 -71,-350 1,-92 -4,-106 -55,-163 -19,-22 -53,-67 -75,-100 l -40,-62 7,135 c 4,96 3,131 -4,120 -6,-8 -11,-67 -11,-135 0,-118 -4,-151 -71,-505 -11,-58 -31,-150 -45,-204 -13,-54 -24,-114 -24,-132 0,-18 -9,-56 -20,-84 -11,-28 -18,-56 -15,-61 4,-5 2,-9 -3,-9 -5,0 -12,-13 -15,-28 -3,-16 -14,-39 -25,-52 l -19,-23 -6,22 c -3,12 0,27 6,34 7,6 13,30 14,52 1,38 0,36 -20,-25 -12,-36 -25,-67 -30,-68 -4,-2 -5,-7 -3,-11 3,-4 -5,-19 -18,-33 -21,-26 -25,-26 -91,-20 -61,6 -71,10 -81,32 -17,37 -27,253 -11,244 6,-4 4,2 -5,13 -10,11 -18,33 -18,50 0,17 -6,45 -13,62 -13,31 -14,29 -13,-38 1,-38 4,-64 7,-59 6,9 12,-35 25,-177 6,-65 5,-68 -9,-49 -16,21 -107,366 -127,484 -7,36 -16,74 -20,85 -5,11 -17,65 -27,120 -13,78 -17,159 -18,375 0,248 2,279 18,312 15,29 22,35 31,25 11,-9 9,-19 -5,-52 -26,-55 -24,-90 12,-224 17,-64 31,-136 31,-161 0,-25 -1,-112 -2,-195 -1,-126 2,-172 24,-285 28,-141 54,-247 55,-219 1,9 -8,60 -19,114 -11,53 -19,111 -19,128 1,18 -6,79 -15,137 -17,102 -15,282 2,306 4,5 50,7 102,4 l 95,-5 8,-330 c 4,-181 10,-382 15,-445 l 7,-115 8,70 c 4,39 12,111 18,160 6,50 13,219 16,376 l 5,286 67,7 c 36,3 83,9 103,12 36,6 37,6 49,-37 10,-37 9,-58 -6,-129 -10,-47 -20,-103 -21,-125 -2,-22 6,6 18,62 12,57 23,101 25,99 5,-5 -23,-195 -47,-324 -11,-57 -20,-115 -19,-130 1,-34 43,172 70,343 15,97 18,153 14,220 -6,81 -4,98 20,170 34,102 43,197 22,246 -15,36 -14,37 8,47 26,12 49,44 60,82 5,20 1,17 -20,-13 -38,-55 -79,-68 -222,-75 -116,-5 -122,-6 -132,-29 -12,-26 -13,-241 -3,-333 l 7,-55 50,3 c 47,3 91,12 143,27 16,6 22,3 22,-8 0,-17 -65,-34 -166,-44 l -61,-6 -6,-171 c -4,-94 -7,-247 -8,-341 0,-131 -3,-164 -11,-145 -7,16 -10,127 -9,323 1,176 -3,305 -8,316 -8,15 -28,19 -113,25 -100,6 -117,13 -118,45 0,11 3,11 16,0 10,-8 52,-15 109,-17 76,-4 93,-2 98,11 3,9 7,97 8,197 2,145 -1,184 -12,195 -10,10 -52,14 -154,17 l -140,3 -20,-40 c -18,-36 -20,-61 -20,-230 0,-104 3,-224 7,-265 l 6,-75 -17,66 c -12,44 -38,97 -75,154 -75,113 -84,137 -85,220 0,88 -15,193 -42,293 -11,42 -22,86 -23,97 -1,12 -6,26 -10,33 -4,7 -9,24 -12,38 -5,27 3,26 38,-4 9,-8 22,-12 29,-10 7,2 -8,19 -33,37 -42,30 -85,101 -73,121 2,4 0,24 -6,45 -14,50 -19,73 -25,115 l -4,35 13,-34 c 22,-57 74,-109 137,-138 33,-15 60,-31 60,-36 0,-22 -94,27 -149,77 -28,26 -32,27 -22,8 15,-29 111,-98 129,-94 9,2 11,-1 6,-9 -4,-8 -3,-10 4,-5 12,7 17,-25 6,-37 -9,-8 -95,31 -123,56 l -24,22 12,-23 c 7,-13 31,-31 54,-41 82,-35 81,-35 105,14 19,40 26,45 54,45 18,0 50,3 70,6 37,6 37,6 25,-20 -7,-14 -16,-26 -20,-26 -13,0 -54,-98 -76,-182 -12,-42 -30,-96 -42,-118 -32,-61 -34,-114 -9,-210 12,-47 26,-97 32,-112 6,-17 6,-33 0,-44 -8,-15 -13,-12 -32,25 -12,24 -24,40 -27,37 -5,-5 50,-108 87,-161 l 21,-30 -5,30 c -27,146 -28,168 -16,263 7,53 12,114 11,135 0,20 3,37 8,37 5,0 7,-10 4,-22 -3,-16 -2,-19 4,-10 7,9 13,6 22,-14 23,-51 22,-16 -1,38 -45,105 -25,261 45,337 26,28 145,110 204,140 23,11 54,33 67,48 28,30 56,102 55,142 0,17 -7,6 -19,-33 -33,-103 -121,-170 -275,-211 -66,-17 -146,-20 -173,-6 -9,5 -36,14 -60,21 -96,25 -156,120 -169,264 -5,68 -4,76 26,132 37,70 37,73 11,124 l -20,40 27,54 c 16,30 35,55 43,56 13,0 13,2 1,9 -12,8 -9,11 13,17 19,4 24,9 15,15 -9,5 -2,11 22,17 30,9 31,10 9,12 l -25,1 25,10 c 14,6 68,14 120,19 l 95,9 -95,-4 c -52,-2 -106,-7 -120,-10 -23,-6 -23,-5 -6,6 26,16 185,24 282,13 l 79,-9 -60,-6 c -53,-6 -51,-6 20,-4 79,3 198,-10 130,-15 -26,-1 -23,-3 20,-15 62,-17 69,-17 30,0 -24,11 -26,14 -10,15 39,2 -18,18 -131,35 -77,12 -145,16 -230,13 -119,-5 -121,-4 -105,14 51,61 180,94 329,85 90,-5 119,-18 142,-63 8,-16 24,-43 35,-60 18,-26 20,-44 18,-128 -2,-113 -3,-113 -97,-140 -73,-21 -69,-30 4,-11 66,18 63,17 55,5 -3,-6 1,-7 10,-3 12,4 13,8 5,13 -8,5 -8,9 3,13 12,4 14,-12 12,-103 -2,-119 -8,-134 -59,-150 -29,-9 -29,-9 8,-4 36,5 38,4 22,-11 -9,-9 -16,-21 -16,-26 0,-5 -22,-20 -50,-34 -27,-14 -50,-28 -50,-30 0,-3 18,4 41,15 23,12 43,19 46,16 3,-3 -2,-8 -11,-12 -9,-3 -14,-10 -11,-14 6,-10 -22,-34 -77,-63 -26,-14 -44,-28 -40,-33 4,-4 1,-4 -5,0 -7,4 -48,-2 -90,-13 -106,-27 -152,-34 -133,-21 11,8 4,9 -25,4 -22,-4 -41,-8 -43,-9 -2,-2 26,-8 61,-14 75,-13 142,-3 222,35 l 50,23 -28,-25 c -35,-30 -26,-31 22,-2 106,63 175,176 190,312 5,45 7,137 4,206 -6,140 -1,159 57,231 79,97 114,116 215,118 38,0 46,-2 35,-10 z m 430,-397 c 0,-10 -6,-24 -12,-32 -11,-12 -10,-12 5,-1 9,8 19,12 21,10 15,-17 35,-73 41,-114 5,-28 23,-93 40,-145 38,-109 59,-207 80,-369 20,-151 19,-203 -5,-303 -11,-46 -20,-113 -20,-150 v -68 l -42,4 c -61,6 -98,49 -98,112 0,26 -7,92 -15,148 -36,248 -43,344 -40,577 2,153 7,245 15,260 11,23 10,23 -4,5 -14,-17 -16,-17 -16,-3 0,22 31,87 42,87 4,0 8,-8 8,-18 z M 830,6887 c 0,-23 -4,-53 -8,-67 -6,-21 -8,-17 -14,25 -3,28 -4,-4 -2,-70 16,-459 16,-533 0,-606 -9,-39 -19,-124 -22,-188 -6,-148 -12,-181 -27,-175 -7,2 -36,-4 -64,-15 -29,-11 -55,-15 -58,-10 -4,5 -7,32 -9,61 -2,29 -9,91 -16,137 -19,123 -8,423 19,516 78,276 94,319 150,389 17,21 31,43 31,48 0,5 5,6 10,3 6,-3 10,-25 10,-48 z m 1612,-196 c 70,-128 86,-205 99,-490 5,-113 15,-235 23,-271 8,-36 24,-108 37,-160 20,-86 22,-127 25,-420 2,-200 9,-379 18,-465 l 15,-140 -4,120 c -3,66 -7,172 -9,235 -4,76 1,43 13,-98 11,-117 22,-219 25,-228 3,-9 9,-109 11,-223 3,-113 8,-221 11,-238 5,-35 -6,-64 -38,-100 -13,-14 -21,-39 -23,-70 -5,-77 -24,-144 -53,-188 -57,-84 -105,-146 -109,-141 -3,3 -1,11 3,18 5,7 9,28 10,46 0,18 7,38 14,45 10,10 12,9 8,-3 -20,-57 -13,-55 17,6 20,40 40,98 45,135 6,35 15,90 20,121 10,54 9,60 -14,94 -19,28 -23,44 -19,71 5,27 3,35 -7,31 -18,-6 -70,-107 -70,-136 0,-12 -4,-30 -9,-40 -6,-9 -13,-38 -16,-64 -5,-38 -10,-48 -25,-48 -17,0 -18,10 -13,168 5,185 10,208 59,302 30,57 24,59 -14,4 -7,-11 -3,0 7,22 34,71 66,101 116,108 24,4 47,11 50,17 4,5 2,9 -3,9 -18,0 -34,95 -42,250 -10,181 -26,413 -40,555 -7,70 -7,132 1,203 13,124 7,155 -11,52 -14,-82 -8,-382 11,-520 5,-41 13,-172 18,-290 4,-118 11,-223 15,-232 6,-13 4,-18 -8,-18 -9,0 -16,4 -16,9 0,5 -9,60 -19,123 -37,216 -54,404 -48,553 5,137 2,193 -24,423 -12,105 -12,118 8,195 19,78 20,89 6,207 -19,177 -48,314 -92,443 -21,62 -41,128 -44,147 -7,38 -5,34 85,-129 z m -1751,71 c -26,-48 -91,-310 -101,-403 -14,-139 -12,-320 4,-469 l 14,-125 -26,-75 c -25,-72 -26,-83 -25,-265 2,-132 -2,-217 -13,-279 -8,-48 -13,-90 -11,-93 3,-2 10,29 17,69 6,40 16,84 21,98 l 9,25 -4,-27 c -1,-15 1,-25 5,-22 5,3 9,20 9,38 0,18 10,46 25,66 30,40 73,150 110,283 32,111 43,124 20,21 -21,-90 -35,-131 -101,-292 -66,-162 -147,-420 -164,-518 l -11,-72 -40,17 -40,16 6,90 c 3,50 10,221 16,380 8,218 15,315 31,390 30,148 30,157 3,78 -34,-101 -44,-194 -55,-545 -11,-362 -14,-388 -42,-380 -16,4 -19,10 -13,36 3,17 10,164 15,326 5,162 14,333 20,380 14,113 62,305 105,424 42,117 50,165 70,421 19,252 27,283 95,368 51,64 74,81 51,39 z m 564,-287 c -17,-7 -53,-16 -80,-19 -50,-6 -49,-6 15,13 77,22 107,25 65,6 z m -140,-457 c -3,-35 -5,-93 -5,-130 1,-37 -2,-84 -6,-105 l -7,-37 -13,44 c -16,54 -16,53 -5,45 6,-3 6,7 0,27 -14,48 -14,107 -1,120 7,7 12,20 12,30 0,16 20,68 26,68 2,0 1,-28 -1,-62 z m 390,-119 c 4,-5 4,-78 0,-160 -6,-123 -10,-149 -22,-145 -11,5 -13,-1 -7,-28 5,-29 3,-35 -15,-41 -18,-5 -69,-1 -112,11 -10,3 -24,27 -33,55 -9,27 -26,64 -37,82 -12,17 -18,24 -15,14 3,-11 8,-31 11,-45 3,-15 -5,0 -16,33 -16,45 -19,76 -16,128 7,101 15,107 148,107 65,0 110,-4 114,-11 z m 363,-44 c 25,-99 -29,-264 -98,-297 -38,-19 -169,-42 -179,-33 -3,4 -7,84 -9,179 -4,148 -2,175 12,188 13,14 38,16 138,15 l 123,-2 z m 524,-105 c 42,-11 48,-16 68,-61 19,-46 21,-66 19,-257 -2,-230 12,-370 59,-590 16,-75 25,-135 20,-138 -12,-8 -11,-10 -30,81 -46,220 -75,332 -119,461 -62,185 -117,409 -122,506 l -4,76 32,-33 c 20,-22 48,-38 77,-45 z m -1624,28 c -3,-7 -25,-83 -49,-168 -27,-96 -63,-194 -96,-260 l -51,-105 -1,165 c 0,91 4,184 9,208 17,71 55,120 113,148 58,27 81,30 75,12 z m 1359,-184 c 25,-49 62,-119 81,-155 46,-91 54,-176 22,-240 -37,-72 -80,-130 -143,-194 -33,-33 -56,-53 -50,-45 13,19 13,51 0,43 -15,-9 -38,-73 -31,-85 4,-7 3,-8 -4,-4 -7,4 -19,-9 -31,-31 -18,-36 -98,-147 -135,-189 -17,-19 -133,-196 -173,-264 -11,-19 -24,-46 -27,-60 -5,-17 0,-13 12,11 11,21 39,63 64,95 25,33 87,120 138,194 118,171 173,242 233,303 65,65 113,129 148,199 16,32 32,58 35,58 17,0 -16,-79 -76,-180 -37,-63 -77,-141 -88,-172 -32,-86 -68,-299 -91,-533 -12,-116 -28,-271 -36,-345 -9,-74 -24,-229 -35,-345 -11,-115 -28,-264 -36,-330 -18,-134 -22,-327 -6,-365 9,-25 9,-25 -35,-21 -91,7 -183,-52 -183,-117 v -36 l -36,35 c -64,61 -68,81 -67,299 1,107 8,278 17,380 9,102 21,246 27,320 5,74 15,164 20,200 6,36 12,85 13,110 2,25 9,65 15,89 16,60 7,63 -13,4 -18,-57 -46,-278 -46,-378 0,-44 -4,-64 -9,-55 -5,8 -11,111 -13,229 -7,269 5,331 80,450 19,29 60,109 93,177 63,135 111,210 220,349 86,110 130,200 158,325 30,130 30,129 21,135 -4,2 -13,-23 -20,-58 -26,-133 -55,-202 -139,-327 -44,-67 -81,-118 -81,-115 0,15 42,225 67,335 14,63 39,151 56,195 21,56 30,99 30,142 0,35 2,61 4,59 2,-2 25,-43 50,-92 z m -1055,-54 c 46,-82 75,-173 113,-355 7,-33 33,-151 59,-263 25,-112 46,-207 46,-210 0,-4 -21,35 -47,86 -40,81 -46,101 -49,168 -1,42 -6,79 -10,83 -3,3 -4,-22 -2,-56 2,-35 2,-60 -1,-58 -2,3 -15,49 -27,103 -12,53 -23,84 -23,67 -1,-31 28,-147 48,-199 21,-52 2,-40 -22,15 -30,65 -59,191 -51,216 5,15 4,16 -6,3 -9,-12 -10,-10 -5,13 3,16 2,26 -3,23 -18,-11 -75,272 -87,434 -5,55 -4,61 7,40 6,-14 33,-63 60,-110 z m 992,73 c -4,-16 -24,-73 -45,-129 -45,-119 -72,-234 -94,-403 -12,-95 -21,-133 -41,-167 -14,-24 -29,-44 -33,-44 -6,0 -26,-30 -68,-103 -10,-18 -13,-19 -13,-5 0,9 5,20 11,23 6,4 8,14 5,22 -4,9 -2,21 3,27 15,18 59,217 60,274 2,66 54,320 75,361 18,34 36,48 36,29 1,-7 9,4 19,24 19,37 78,118 87,118 2,0 1,-12 -2,-27 z M 942,5243 c 31,-94 61,-146 155,-265 62,-80 254,-442 224,-423 -23,14 -8,-9 52,-79 42,-50 72,-97 92,-147 26,-66 30,-88 33,-201 2,-70 -2,-176 -8,-235 -7,-59 -16,-299 -20,-533 -5,-269 -12,-438 -19,-461 -13,-43 -49,-92 -61,-84 -5,3 -11,-3 -13,-12 -3,-11 -5,-6 -6,11 -1,41 -36,91 -74,109 -17,8 -57,18 -87,21 l -56,7 -1,187 c 0,123 -8,245 -21,357 -12,94 -26,244 -32,335 -12,189 -29,322 -70,570 -16,96 -36,231 -45,300 -8,69 -18,138 -21,153 -5,26 -4,28 14,18 12,-6 59,-47 106,-92 47,-45 86,-78 86,-75 0,4 30,-27 66,-69 37,-42 69,-74 72,-71 5,6 -27,51 -77,106 -49,54 -215,288 -217,307 -2,9 -13,26 -26,36 -13,10 -17,16 -10,12 8,-4 7,5 -4,29 -10,19 -21,33 -26,30 -4,-3 -5,2 -2,10 3,9 2,16 -3,16 -12,0 -33,45 -33,70 0,11 -4,20 -10,20 -5,0 -7,8 -4,18 5,14 4,15 -5,2 -9,-13 -11,-12 -12,5 0,11 -3,15 -5,9 -3,-7 12,-54 32,-105 35,-86 129,-239 218,-354 18,-24 -9,-3 -69,53 -85,79 -109,109 -158,195 -70,125 -101,214 -95,271 3,22 23,81 44,130 l 39,89 12,-86 c 7,-48 27,-131 45,-184 z m -73,-206 70,-142 41,-295 c 23,-162 48,-333 55,-380 8,-47 26,-211 40,-365 14,-154 32,-352 41,-440 10,-105 14,-213 11,-315 l -4,-155 -36,-37 -35,-37 -7,59 c -4,33 -11,60 -15,60 -23,0 -137,337 -180,530 -12,52 -37,163 -55,245 -19,83 -42,193 -50,245 -8,52 -24,156 -36,230 -32,204 -35,349 -10,500 11,69 25,170 31,225 12,105 37,259 47,285 4,9 9,-3 14,-28 4,-24 40,-107 78,-185 z m 1416,-58 c 8,-90 23,-202 34,-248 26,-110 45,-324 38,-420 -5,-74 -63,-417 -113,-676 -34,-174 -58,-259 -106,-385 -22,-58 -49,-136 -60,-175 -11,-38 -34,-96 -50,-128 -16,-32 -27,-66 -24,-75 3,-9 1,-24 -4,-32 -8,-12 -10,-11 -10,7 0,12 -13,37 -30,56 -16,19 -34,46 -40,61 -16,42 -12,186 10,354 11,84 24,201 30,260 6,59 19,190 30,292 11,102 27,275 35,385 18,232 57,502 85,595 17,56 39,101 136,267 10,17 20,30 21,29 2,-2 10,-77 18,-167 z m -687,-574 c -20,-69 -54,-155 -61,-152 -5,1 -25,39 -46,83 l -38,80 h 74 c 44,-1 72,-5 71,-11 z m 976,-143 c 16,-19 15,-34 -22,-223 -11,-56 -46,-109 -73,-109 -26,0 -24,6 18,59 21,25 32,41 24,37 -11,-7 -12,-2 -7,25 14,76 19,212 7,205 -6,-4 -11,-14 -11,-23 0,-9 -2,-14 -5,-11 -4,3 -3,16 0,30 8,30 46,35 69,10 z M 1561,3928 c 2,-156 3,-317 3,-358 -1,-121 -37,-570 -46,-570 -13,0 -22,31 -12,39 5,3 9,151 9,331 0,326 22,853 35,845 4,-2 9,-132 11,-287 z m -541,-991 c 11,-31 20,-69 20,-84 0,-16 7,-61 15,-100 10,-50 18,-183 25,-420 9,-344 22,-522 60,-823 28,-217 36,-262 87,-460 51,-203 52,-205 59,-197 3,3 -1,31 -10,64 -62,240 -79,319 -97,435 -11,73 -22,202 -26,286 -3,84 -9,149 -12,144 -3,-6 -7,54 -8,132 -1,77 -9,213 -17,301 -9,88 -16,177 -16,198 v 39 l 31,-26 c 38,-32 46,-32 111,-1 28,14 52,25 52,25 1,0 7,-747 9,-1145 2,-335 10,-432 39,-460 7,-7 9,-2 5,15 -20,89 -27,186 -29,418 -2,144 0,262 3,262 3,0 9,-107 12,-237 6,-217 25,-431 43,-477 6,-16 4,-17 -14,-7 -11,6 -40,11 -64,11 h -43 l -1,43 c -1,23 -27,116 -57,207 -125,367 -185,815 -173,1284 4,188 2,278 -9,365 -7,64 -16,146 -19,182 -3,36 -8,74 -12,85 -5,14 -4,16 5,8 6,-5 20,-36 31,-67 z m 480,-68 c -13,-150 -20,-169 -86,-218 l -54,-40 v 43 c 0,79 10,107 47,128 43,26 70,78 79,157 12,111 25,51 14,-70 z m 562,-51 c -3,-108 -9,-146 -29,-203 -24,-68 -24,-77 -27,-420 -3,-353 -7,-402 -48,-576 l -13,-54 -3,52 c -2,29 2,86 8,125 6,40 15,246 20,458 5,212 12,403 15,425 5,30 4,36 -4,25 -17,-24 -14,16 3,48 8,15 19,55 25,89 8,49 47,163 56,163 1,0 0,-60 -3,-132 z m -785,86 c 61,-24 89,-103 59,-162 -14,-26 -14,-44 -1,-128 7,-52 -22,-125 -61,-151 -18,-11 -47,-18 -82,-18 -79,0 -95,24 -100,150 -3,66 -1,95 7,95 6,0 11,-4 11,-10 0,-15 56,-40 90,-40 37,0 90,21 109,43 16,21 4,22 -18,3 -9,-8 -33,-19 -55,-24 -78,-22 -156,36 -156,117 0,23 -4,41 -10,41 -15,0 -12,22 6,45 16,19 16,19 10,-5 -3,-14 2,-8 13,15 11,21 28,42 38,46 23,9 99,0 140,-17 z m 638,2 c 48,-20 69,-65 61,-129 -8,-59 -28,-100 -58,-121 -27,-19 -75,-21 -80,-4 -4,10 -10,10 -29,1 l -24,-11 29,-11 c 31,-12 80,-6 106,12 8,6 4,-1 -9,-16 -19,-20 -34,-27 -63,-27 -42,0 -48,-9 -18,-28 26,-16 47,-5 95,50 l 36,43 -4,-94 c -3,-93 -4,-95 -37,-123 -19,-15 -50,-31 -69,-34 -30,-6 -38,-3 -62,24 -33,36 -48,123 -30,173 17,49 13,70 -19,118 -37,54 -41,112 -10,139 19,16 110,50 138,51 7,1 28,-5 47,-13 z m -278,-110 c 60,-37 82,-86 88,-193 3,-49 8,-96 11,-105 3,-10 -3,-21 -16,-28 -18,-9 -20,-20 -20,-93 0,-45 5,-119 10,-164 18,-145 31,-449 33,-798 2,-333 17,-548 39,-570 6,-7 7,16 1,70 -4,44 -8,105 -7,135 0,32 -2,46 -6,35 -16,-43 -22,259 -10,430 9,118 11,224 5,336 -10,203 -10,310 0,462 8,116 8,117 27,97 25,-26 45,-25 102,5 l 46,24 v -158 c 0,-87 2,-194 5,-237 4,-54 2,-73 -4,-59 -7,15 -10,-2 -10,-60 -3,-270 -47,-701 -82,-793 -5,-13 -15,-61 -23,-105 -13,-79 -12,-123 10,-227 l 7,-35 -24,22 c -30,26 -94,45 -128,36 -32,-7 -81,-41 -81,-54 0,-6 13,-1 30,11 60,43 138,33 174,-23 13,-20 48,-158 41,-165 -1,-1 -14,22 -29,52 -28,57 -62,80 -100,66 -18,-6 -18,-7 5,-14 13,-5 30,-10 37,-11 17,-4 9,9 82,-130 70,-133 88,-158 132,-176 16,-7 27,-17 24,-25 -3,-7 2,-15 10,-18 17,-7 19,-36 2,-36 -7,0 -41,30 -76,67 -35,38 -59,59 -53,48 5,-11 21,-31 36,-45 40,-37 50,-60 27,-60 -30,0 -131,187 -157,293 -4,15 -9,26 -12,24 -15,-15 39,-158 92,-242 46,-75 70,-144 55,-158 -9,-9 -14,-9 -17,-1 -2,7 -20,38 -40,70 -19,33 -45,81 -58,108 -17,40 -23,45 -27,29 -4,-13 10,-44 38,-89 47,-75 51,-86 31,-102 -10,-9 -17,-4 -30,17 -9,16 -14,36 -11,45 9,23 -3,20 -17,-5 -9,-17 -7,-25 12,-45 18,-20 21,-29 13,-42 -6,-9 -20,-17 -30,-17 -15,0 -19,7 -19,40 0,46 -75,212 -82,183 -3,-10 9,-47 26,-83 38,-81 39,-108 6,-123 -88,-40 -132,35 -90,153 13,36 12,46 -6,106 -19,63 -19,71 -6,137 8,39 18,75 22,81 3,6 -1,18 -9,27 -15,14 -16,14 -16,-5 0,-11 -5,-23 -11,-26 -16,-11 -4,115 16,153 9,18 26,87 36,155 20,118 20,129 4,327 -9,113 -22,248 -30,300 -26,167 -29,294 -11,415 10,60 18,111 20,112 1,2 10,-52 19,-120 18,-127 20,-233 9,-374 -6,-64 -4,-83 5,-83 9,0 13,-19 14,-62 0,-53 2,-59 10,-38 6,14 11,125 12,260 1,216 -1,241 -22,310 -19,64 -22,97 -22,230 1,120 -3,173 -18,235 -11,44 -18,81 -16,83 1,2 12,-12 24,-30 11,-18 21,-27 21,-20 0,6 8,12 17,12 15,0 15,1 2,13 -24,19 -87,110 -99,143 -13,32 -22,144 -12,127 4,-5 26,-22 49,-37 z m -187,-212 c -65,-180 -70,-199 -80,-328 -6,-72 -15,-149 -21,-171 -6,-22 -14,-134 -17,-250 l -7,-210 -6,135 c -11,217 -10,440 2,576 10,123 37,242 52,236 5,-2 16,7 27,20 13,17 15,25 7,31 -7,5 -3,6 9,2 13,-3 26,1 34,10 22,26 22,10 0,-51 z m 646,-154 c 24,-128 29,-181 29,-300 -1,-137 -3,-156 -48,-345 -50,-212 -172,-583 -161,-490 9,76 43,261 64,345 38,151 50,279 50,521 0,221 16,449 30,432 4,-5 20,-78 36,-163 z M 991,2383 c -3,-131 12,-460 30,-638 6,-55 26,-163 45,-239 19,-77 34,-144 33,-150 -3,-32 -68,214 -136,514 -38,169 -40,362 -4,520 21,94 28,120 34,120 1,0 0,-57 -2,-127 z m 764,-50 c -4,-71 -9,-130 -11,-132 -11,-12 -16,18 -17,121 -1,111 4,138 25,138 7,0 8,-41 3,-127 z m -314,-193 c 34,-209 33,-250 -7,-458 -13,-68 -25,-134 -26,-145 -1,-12 -5,39 -9,113 -4,74 -10,160 -14,190 -5,37 -1,91 10,160 12,77 15,141 11,240 -5,152 -6,153 35,-100 z m -67,-173 c -15,-85 -16,-113 -6,-220 6,-67 14,-261 17,-432 6,-311 10,-380 25,-445 15,-63 20,-120 12,-120 -14,0 -30,88 -42,225 -6,72 -15,171 -21,220 -17,154 -19,668 -3,760 7,44 17,107 21,140 l 8,60 3,-45 c 2,-25 -4,-89 -14,-143 z m -257,31 c -2,-18 -4,-6 -4,27 0,33 2,48 4,33 2,-15 2,-42 0,-60 z m 763,-868 c -11,-74 -19,-172 -20,-217 0,-45 -4,-85 -10,-88 -18,-11 -12,186 9,282 11,48 23,105 26,127 3,21 8,36 10,34 2,-2 -5,-64 -15,-138 z m -689,-95 c 7,-22 14,-49 15,-61 1,-11 7,-38 12,-60 22,-89 23,-94 8,-94 -8,0 -24,-11 -35,-25 l -19,-26 1,133 c 1,73 -2,147 -6,163 -12,44 8,19 24,-30 z m 120,-287 c 17,-20 50,-98 78,-188 5,-14 12,-87 16,-163 6,-118 5,-141 -9,-162 -18,-27 -41,-31 -80,-14 -23,11 -42,37 -32,46 2,2 18,5 35,5 18,1 34,5 37,10 3,4 10,6 15,3 5,-4 9,-2 9,4 0,19 -18,21 -46,6 -31,-16 -54,-19 -54,-7 0,10 60,97 60,87 0,-5 5,-4 11,2 7,7 8,24 4,44 -6,27 -9,30 -17,15 -5,-9 -14,-13 -20,-10 -7,4 -8,2 -4,-4 6,-11 -14,-62 -37,-90 -6,-7 -12,-23 -13,-35 -5,-50 -23,-78 -47,-75 -25,3 -31,34 -11,58 6,8 15,31 19,50 3,19 15,54 26,77 24,54 24,66 0,30 -10,-16 -22,-28 -26,-27 -14,3 -124,-141 -118,-156 3,-8 0,-14 -7,-14 -6,0 -8,5 -5,10 4,6 -5,10 -19,10 -32,0 -32,7 -1,39 13,14 41,49 61,76 l 36,50 -41,-40 c -50,-48 -55,-30 -6,24 19,21 35,41 35,44 0,4 -18,-13 -40,-37 -22,-24 -40,-51 -40,-60 0,-23 -28,-76 -40,-76 -6,0 -10,5 -10,10 0,6 5,10 12,10 9,0 9,3 0,12 -22,22 -13,42 46,98 57,53 59,58 85,155 14,55 28,113 32,128 7,33 47,77 70,77 9,0 25,-10 36,-22 z M 1180,279 c -26,-40 -35,-47 -46,-38 -13,10 -12,15 1,33 8,12 18,28 22,36 3,8 16,29 27,45 l 21,30 3,-28 c 2,-18 -7,-45 -28,-78 z m 814,6 c 16,-12 17,-17 6,-30 -17,-21 -37,-19 -50,5 -20,37 8,52 44,25 z m -104,-60 c 0,-15 -6,-25 -14,-25 -22,0 -30,19 -16,35 18,22 30,18 30,-10 z"
       id="path1" />
    <path
       d="m 1578,8788 c -8,-7 -18,-22 -22,-33 -6,-16 -2,-15 22,8 27,26 34,28 76,22 31,-5 46,-4 46,4 0,15 -102,14 -122,-1 z"
       id="path2" />
    <path
       d="m 1676,8671 c 27,-3 62,-14 77,-24 15,-10 27,-15 27,-12 0,17 -70,45 -110,44 l -45,-2 z"
       id="path3" />
    <path
       d="m 1310,8371 c -14,-11 -20,-20 -13,-21 6,0 15,5 19,11 10,17 128,5 159,-15 14,-9 23,-21 20,-26 -3,-5 2,-21 11,-35 18,-27 16,-68 -7,-142 -15,-50 -7,-64 34,-56 22,4 25,8 16,19 -16,19 -29,17 -29,-3 -1,-17 -1,-16 -11,1 -8,13 -7,27 6,56 13,28 16,53 11,96 -3,33 -6,67 -6,77 -2,29 -46,49 -118,55 -57,4 -71,1 -92,-17 z"
       id="path4" />
    <path
       d="m 1655,8372 c -43,-15 -50,-21 -54,-47 -9,-60 -6,-156 5,-163 17,-11 37,-53 28,-60 -4,-4 -9,-1 -11,6 -6,16 -21,15 -39,-3 -10,-10 -11,-15 -3,-15 9,0 9,-3 -1,-14 -6,-8 -19,-12 -27,-9 -11,4 -14,2 -9,-5 10,-16 31,-15 46,3 7,8 23,15 36,15 31,0 32,36 4,82 -13,22 -20,51 -20,85 v 51 l 47,18 c 25,10 41,20 35,22 -6,2 -24,-4 -41,-13 -23,-11 -29,-12 -25,-2 9,24 101,50 156,45 46,-5 49,-4 33,8 -25,19 -99,17 -160,-4 z"
       id="path5" />
    <path
       d="m 1324,8324 c -19,-15 -19,-16 1,-8 11,3 36,10 55,14 l 35,8 -36,1 c -19,0 -44,-6 -55,-15 z"
       id="path6" />
    <path
       d="m 1388,8321 c -20,-4 -44,-13 -52,-20 -14,-12 -11,-16 21,-32 44,-22 100,-24 127,-4 17,13 17,15 -7,39 -27,27 -30,28 -89,17 z m 54,-38 c 8,15 12,16 24,6 12,-10 12,-14 2,-20 -31,-20 -98,-3 -83,21 5,8 12,6 27,-7 19,-17 20,-17 30,0 z"
       id="path8" />
    <path
       d="m 1500,8005 c -14,-8 -33,-14 -42,-15 -10,0 -18,-4 -18,-9 0,-4 61,-9 135,-10 74,0 135,3 135,8 0,11 -74,24 -133,22 -30,0 -46,3 -42,9 9,14 -5,12 -35,-5 z"
       id="path9" />
    <path
       d="m 1470,7927 c 10,-11 41,-19 85,-23 58,-5 73,-4 84,10 12,14 8,16 -45,16 -33,0 -77,3 -99,6 -36,6 -39,5 -25,-9 z"
       id="path10" />
    <path
       d="m 2065,7344 c -9,-9 -13,-19 -10,-22 3,-3 11,3 18,12 13,18 17,18 98,-2 46,-11 99,-23 117,-27 19,-4 50,-21 69,-38 27,-24 34,-27 25,-11 -18,35 -57,54 -162,79 -117,29 -133,30 -155,9 z"
       id="path11" />
    <path
       d="m 1484,7668 c 4,-13 18,-74 31,-137 13,-62 27,-116 31,-120 4,-3 3,12 -1,34 -4,22 -9,56 -10,75 -3,40 -43,170 -52,170 -3,0 -2,-10 1,-22 z"
       id="path12" />
    <path
       d="m 1168,7293 c 23,-2 59,-2 80,0 20,2 1,4 -43,4 -44,0 -61,-2 -37,-4 z"
       id="path13" />
    <path
       d="m 1315,7280 c 17,-4 44,-8 60,-8 25,0 24,2 -10,9 -51,10 -92,10 -50,-1 z"
       id="path14" />
    <path
       d="m 1225,7270 c 19,-8 103,-14 94,-6 -2,2 -29,6 -59,9 -36,4 -48,3 -35,-3 z"
       id="path15" />
    <path
       d="m 1755,7248 c -22,-12 -58,-27 -80,-34 -22,-7 -31,-13 -20,-13 11,-1 52,14 90,33 39,19 66,35 60,35 -5,0 -28,-9 -50,-21 z"
       id="path16" />
    <path
       d="m 1894,7256 c -11,-8 -36,-19 -55,-25 l -34,-11 32,5 c 30,4 109,45 88,45 -6,0 -20,-6 -31,-14 z"
       id="path17" />
    <path
       d="m 1175,7240 c 83,-4 181,-12 218,-19 37,-7 70,-11 73,-9 12,13 -207,38 -318,36 l -123,-2 z"
       id="path18" />
    <path
       d="m 1960,7191 c 0,-4 26,-8 58,-9 55,0 56,1 17,9 -53,11 -75,11 -75,0 z"
       id="path19" />
    <path
       d="m 1208,7173 c 23,-2 59,-2 80,0 20,2 1,4 -43,4 -44,0 -61,-2 -37,-4 z"
       id="path20" />
    <path
       d="m 1691,7169 c -62,-12 -75,-20 -21,-12 25,3 70,9 100,13 54,7 54,7 10,8 -25,0 -65,-4 -89,-9 z"
       id="path21" />
    <path
       d="m 1573,7145 c 0,-19 4,-25 14,-21 8,3 27,6 41,7 l 27,1 -30,10 c -16,6 -35,15 -41,20 -8,6 -11,0 -11,-17 z"
       id="path22" />
    <path
       d="m 1991,7166 c 2,-2 27,-6 54,-10 34,-4 43,-3 30,3 -19,9 -93,15 -84,7 z"
       id="path23" />
    <path
       d="m 1015,7151 c -16,-4 31,-5 105,-3 174,4 199,10 45,10 -66,0 -133,-3 -150,-7 z"
       id="path24" />
    <path
       d="m 1000,7125 -55,-14 55,7 c 68,9 249,9 355,0 52,-4 68,-3 45,3 -68,16 -341,19 -400,4 z"
       id="path25" />
    <path
       d="m 1750,7129 c -47,-5 -101,-13 -120,-18 -32,-9 -31,-10 15,-5 141,13 217,22 222,28 7,7 1,7 -117,-5 z"
       id="path26" />
    <path
       d="m 1913,7123 c 20,-2 54,-2 75,0 20,2 3,4 -38,4 -41,0 -58,-2 -37,-4 z"
       id="path27" />
    <path
       d="m 1128,7113 c 18,-2 45,-2 60,0 15,2 0,4 -33,4 -33,0 -45,-2 -27,-4 z"
       id="path28" />
    <path
       d="m 1960,7111 -75,-6 80,-7 c 44,-3 94,-9 110,-12 19,-4 15,-1 -10,7 -32,11 -36,15 -20,19 23,7 16,6 -85,-1 z"
       id="path29" />
    <path
       d="m 970,7095 c -58,-17 -34,-17 55,0 55,10 62,13 30,13 -22,0 -60,-6 -85,-13 z"
       id="path30" />
    <path
       d="m 1267,7103 c 18,-2 50,-2 70,0 21,2 7,4 -32,4 -38,0 -55,-2 -38,-4 z"
       id="path31" />
    <path
       d="m 1753,7103 c 26,-2 67,-2 90,0 23,2 2,3 -48,3 -49,0 -68,-1 -42,-3 z"
       id="path32" />
    <path
       d="m 995,7074 c -42,-11 -44,-12 -10,-7 22,3 87,9 145,13 l 105,7 h -95 c -52,1 -117,-5 -145,-13 z"
       id="path33" />
    <path
       d="m 1570,7061 c 0,-18 4,-18 38,-9 20,6 96,14 167,19 l 130,7 -135,-4 c -74,-2 -148,-6 -165,-10 -23,-4 -26,-3 -15,5 13,9 13,11 -2,11 -11,0 -18,-8 -18,-19 z"
       id="path34" />
    <path
       d="m 1031,7059 c -55,-9 -81,-20 -45,-18 10,0 57,7 104,14 62,9 73,13 40,13 -25,0 -69,-4 -99,-9 z"
       id="path35" />
    <path
       d="m 1370,7059 c -32,-4 -15,-6 55,-7 102,0 116,3 35,10 -25,2 -65,1 -90,-3 z"
       id="path36" />
    <path
       d="m 1810,7059 -105,-6 125,2 c 110,1 258,-12 323,-30 18,-5 19,-4 6,4 -17,11 -208,43 -231,39 -7,-1 -60,-5 -118,-9 z"
       id="path37" />
    <path
       d="m 990,7025 c -58,-17 -34,-17 55,0 55,10 62,13 30,13 -22,0 -60,-6 -85,-13 z"
       id="path38" />
    <path
       d="m 1238,7033 c 18,-2 45,-2 60,0 15,2 0,4 -33,4 -33,0 -45,-2 -27,-4 z"
       id="path39" />
    <path
       d="m 1695,7035 c 6,-2 64,-5 130,-7 66,-3 107,-1 90,3 -29,7 -240,11 -220,4 z"
       id="path40" />
    <path
       d="m 1040,7010 c -20,-5 1,-6 50,-3 47,3 87,7 89,9 8,7 -103,2 -139,-6 z"
       id="path41" />
    <path
       d="m 1795,7010 c 55,-5 133,-14 173,-20 41,-7 76,-10 78,-7 8,8 -137,27 -244,32 l -107,4 z"
       id="path42" />
    <path
       d="m 1960,7018 c 7,-8 202,-40 207,-35 2,3 -24,10 -59,16 -110,18 -153,24 -148,19 z"
       id="path43" />
    <path
       d="m 2140,7005 c 30,-7 57,-12 58,-10 6,5 -71,25 -93,24 -11,0 5,-7 35,-14 z"
       id="path44" />
    <path
       d="m 1570,6988 c 0,-9 20,-13 66,-13 36,-1 58,2 48,6 -11,4 37,6 106,4 117,-3 119,-3 40,5 -137,13 -260,12 -260,-2 z"
       id="path45" />
    <path
       d="m 1925,6976 c 6,-2 33,-8 60,-12 48,-7 49,-8 20,-15 -25,-7 -24,-8 10,-4 22,3 51,5 65,6 15,1 7,5 -20,10 -57,10 -148,21 -135,15 z"
       id="path46" />
    <path
       d="m 2115,6965 c 75,-17 92,-17 40,0 -22,8 -53,13 -70,13 -19,0 -7,-5 30,-13 z"
       id="path47" />
    <path
       d="m 980,6955 c -44,-10 -49,-13 -25,-15 30,-2 30,-2 5,-10 -16,-6 -5,-7 30,-3 76,8 109,23 40,17 -55,-4 -55,-4 -15,7 24,7 96,9 180,6 87,-3 123,-2 95,3 -68,13 -248,9 -310,-5 z"
       id="path48" />
    <path
       d="m 1771,6966 c 2,-2 49,-6 104,-9 67,-3 87,-2 60,3 -39,9 -172,14 -164,6 z"
       id="path49" />
    <path
       d="m 1730,6940 c 25,-4 48,-5 53,-1 4,4 -16,8 -45,8 l -53,1 z"
       id="path50" />
    <path
       d="m 1108,6934 c -3,-3 -28,-9 -55,-14 l -48,-9 50,6 c 28,3 93,9 145,12 l 95,7 -91,2 c -50,1 -93,-1 -96,-4 z"
       id="path51" />
    <path
       d="m 2018,6915 c 73,-13 136,-26 139,-29 10,-9 -6,-8 -128,14 -63,11 -123,19 -134,19 -25,-2 31,-13 150,-33 50,-8 99,-18 109,-22 14,-5 17,-4 12,4 -4,7 -2,12 6,12 8,0 6,4 -4,11 -23,13 -213,49 -253,48 -16,0 30,-11 103,-24 z"
       id="path52" />
    <path
       d="m 2097,6925 c 35,-8 68,-17 74,-21 7,-4 9,-3 6,3 -8,12 -86,33 -119,32 -13,0 5,-7 39,-14 z"
       id="path53" />
    <path
       d="m 1580,6912 c 0,-5 8,-16 18,-24 36,-32 59,-38 118,-30 l 59,8 -52,6 c -28,4 -70,16 -92,27 -45,23 -51,25 -51,13 z"
       id="path54" />
    <path
       d="m 1268,6903 c 18,-2 45,-2 60,0 15,2 0,4 -33,4 -33,0 -45,-2 -27,-4 z"
       id="path55" />
    <path
       d="m 1678,6900 c 12,-5 53,-12 90,-14 61,-5 62,-4 17,3 -123,21 -131,22 -107,11 z"
       id="path56" />
    <path
       d="m 1044,6875 c -72,-13 -148,-34 -142,-40 2,-2 37,6 78,16 45,12 135,23 225,28 l 150,8 -120,1 c -66,0 -152,-6 -191,-13 z"
       id="path57" />
    <path
       d="m 1871,6876 c 2,-2 54,-6 114,-8 70,-4 96,-3 70,3 -39,8 -192,13 -184,5 z"
       id="path58" />
    <path
       d="m 1285,6860 -60,-7 h 60 c 33,-1 71,3 85,7 l 25,8 -25,-1 c -14,0 -52,-3 -85,-7 z"
       id="path59" />
    <path
       d="m 990,6843 c -8,-2 -21,-7 -29,-9 -8,-2 -12,-6 -10,-8 2,-3 29,2 59,9 38,9 46,13 25,13 -16,0 -37,-2 -45,-5 z"
       id="path60" />
    <path
       d="m 1560,6846 c 0,-5 9,-45 21,-87 22,-82 43,-111 105,-150 35,-21 45,-36 18,-25 -9,3 -12,2 -9,-5 4,-5 15,-7 26,-4 12,4 18,2 17,-5 -4,-18 62,-49 117,-55 l 50,-5 -55,13 c -51,12 -107,36 -85,37 6,0 32,-7 59,-15 27,-8 61,-15 75,-14 20,1 16,3 -14,10 -110,26 -143,41 -193,85 -28,26 -49,50 -46,55 3,5 1,9 -4,9 -5,0 -17,20 -26,45 -22,56 -55,123 -56,111 z"
       id="path61" />
    <path
       d="m 1630,6839 c 29,-20 89,-49 101,-49 7,0 -15,13 -47,30 -60,30 -81,38 -54,19 z"
       id="path62" />
    <path
       d="m 1730,6840 c 19,-5 96,-11 170,-14 120,-4 124,-4 40,4 -188,16 -247,19 -210,10 z"
       id="path63" />
    <path
       d="m 1055,6831 c -22,-3 37,-6 130,-6 97,0 151,3 125,7 -54,8 -199,8 -255,-1 z"
       id="path64" />
    <path
       d="m 2080,6807 c 83,-25 95,-27 60,-11 -19,9 -51,18 -70,20 -31,4 -30,3 10,-9 z"
       id="path65" />
    <path
       d="m 1238,6803 c 18,-2 45,-2 60,0 15,2 0,4 -33,4 -33,0 -45,-2 -27,-4 z"
       id="path66" />
    <path
       d="m 1791,6806 c 2,-2 69,-6 149,-8 83,-3 128,-1 105,3 -40,8 -262,12 -254,5 z"
       id="path67" />
    <path
       d="m 1080,6790 c -27,-6 -29,-8 -10,-8 14,-1 43,3 65,7 33,7 35,9 10,9 -16,-1 -46,-4 -65,-8 z"
       id="path68" />
    <path
       d="m 1633,6783 c 24,-28 127,-66 163,-60 29,4 29,4 -3,6 -39,1 -106,26 -148,55 l -30,20 z"
       id="path69" />
    <path
       d="m 1258,6783 c 23,-2 59,-2 80,0 20,2 1,4 -43,4 -44,0 -61,-2 -37,-4 z"
       id="path70" />
    <path
       d="m 1065,6765 -60,-13 56,5 c 31,3 71,9 90,13 l 34,8 h -30 c -16,0 -57,-6 -90,-13 z"
       id="path71" />
    <path
       d="m 1715,6769 c 11,-7 72,-16 140,-20 66,-4 164,-17 218,-29 55,-12 101,-20 103,-17 10,10 -216,50 -324,57 -65,4 -126,11 -137,15 -20,7 -20,7 0,-6 z"
       id="path72" />
    <path
       d="m 1931,6776 c 2,-2 41,-11 86,-20 45,-8 95,-18 110,-22 15,-4 25,-4 22,0 -3,3 -48,15 -99,26 -91,19 -128,24 -119,16 z"
       id="path73" />
    <path
       d="m 1173,6753 c 20,-2 54,-2 75,0 20,2 3,4 -38,4 -41,0 -58,-2 -37,-4 z"
       id="path74" />
    <path
       d="m 971,6741 c -28,-18 23,-21 94,-6 68,14 26,14 -55,0 -26,-5 -31,-4 -20,4 18,13 1,15 -19,2 z"
       id="path75" />
    <path
       d="m 1255,6740 -90,-6 80,-2 c 44,0 98,3 120,7 48,10 27,10 -110,1 z"
       id="path76" />
    <path
       d="m 1400,6734 -55,-14 54,6 c 30,3 62,9 70,14 22,13 2,11 -69,-6 z"
       id="path77" />
    <path
       d="m 1858,6723 c 17,-2 47,-2 65,0 17,2 3,4 -33,4 -36,0 -50,-2 -32,-4 z"
       id="path78" />
    <path
       d="m 1258,6713 c 18,-2 45,-2 60,0 15,2 0,4 -33,4 -33,0 -45,-2 -27,-4 z"
       id="path79" />
    <path
       d="m 2027,6705 c 40,-8 78,-17 84,-21 13,-7 82,-14 75,-7 -9,9 -172,42 -201,42 -16,-1 3,-7 42,-14 z"
       id="path80" />
    <path
       d="m 1041,6695 c -35,-8 -66,-17 -70,-21 -3,-4 8,-3 24,1 17,4 68,13 115,20 63,10 73,13 40,13 -25,0 -74,-6 -109,-13 z"
       id="path81" />
    <path
       d="m 1665,6700 c 12,-19 121,-50 191,-55 41,-2 96,-7 122,-11 26,-4 44,-3 41,0 -4,4 -63,13 -131,21 -68,7 -148,22 -176,33 -29,11 -50,16 -47,12 z"
       id="path82" />
    <path
       d="m 1965,6689 c 39,-5 83,-14 99,-19 16,-6 31,-8 33,-6 9,9 -66,27 -131,31 l -71,4 z"
       id="path83" />
    <path
       d="m 1147,6683 c 18,-2 50,-2 70,0 21,2 7,4 -32,4 -38,0 -55,-2 -38,-4 z"
       id="path84" />
    <path
       d="m 1340,6680 -45,-7 h 40 c 22,0 54,3 70,7 26,7 27,8 5,7 -14,0 -45,-3 -70,-7 z"
       id="path85" />
    <path
       d="m 1905,6670 c 17,-4 46,-8 65,-8 h 35 l -40,9 c -22,4 -51,8 -65,7 -23,0 -22,-1 5,-8 z"
       id="path86" />
    <path
       d="m 1039,6645 c -43,-15 -119,-54 -119,-60 0,-2 29,10 65,27 36,17 89,34 118,38 48,7 49,8 12,8 -22,0 -56,-5 -76,-13 z"
       id="path87" />
    <path
       d="m 1280,6650 c -22,-5 -6,-6 40,-3 41,3 77,7 79,9 7,7 -83,2 -119,-6 z"
       id="path88" />
    <path
       d="m 1720,6642 c 43,-24 165,-52 217,-51 31,1 26,3 -22,10 -53,8 -150,32 -210,53 -11,4 -4,-2 15,-12 z"
       id="path89" />
    <path
       d="m 2058,6644 c 29,-7 66,-21 83,-30 17,-8 28,-11 25,-5 -9,13 -112,51 -139,50 -12,0 2,-7 31,-15 z"
       id="path90" />
    <path
       d="m 1057,6626 c -27,-7 -54,-19 -60,-25 -7,-7 6,-5 28,5 22,9 80,20 130,24 l 90,7 -70,1 c -38,0 -92,-5 -118,-12 z"
       id="path91" />
    <path
       d="m 1965,6611 c 55,-10 111,-21 125,-26 14,-4 22,-4 19,-1 -12,13 -109,34 -177,40 -59,5 -55,3 33,-13 z"
       id="path92" />
    <path
       d="m 1215,6611 c -11,-5 -42,-11 -70,-15 -54,-8 -149,-36 -142,-42 2,-2 22,2 43,10 22,7 62,17 89,20 66,10 157,35 125,35 -14,0 -34,-4 -45,-8 z"
       id="path93" />
    <path
       d="m 1750,6602 c 19,-13 179,-54 192,-50 5,2 -31,14 -81,26 -51,13 -99,25 -109,28 -14,5 -15,4 -2,-4 z"
       id="path94" />
    <path
       d="m 978,6568 c -21,-12 -38,-26 -38,-32 0,-6 5,-5 11,1 6,6 17,10 23,9 6,-2 7,-1 2,2 -5,3 6,13 25,23 19,10 30,18 24,18 -5,0 -27,-9 -47,-21 z"
       id="path95" />
    <path
       d="m 1170,6575 c -39,-9 -46,-13 -25,-13 17,0 48,5 70,13 51,16 27,17 -45,0 z"
       id="path96" />
    <path
       d="m 1280,6575 c -46,-18 -28,-18 35,0 29,8 39,14 25,14 -14,0 -41,-7 -60,-14 z"
       id="path97" />
    <path
       d="m 2010,6581 c 14,-4 43,-11 65,-14 l 40,-6 -40,14 c -22,7 -51,13 -65,13 h -25 z"
       id="path98" />
    <path
       d="m 1216,6537 c -65,-17 -114,-33 -108,-35 14,-4 214,48 227,59 5,5 7,8 5,8 -3,-1 -58,-15 -124,-32 z"
       id="path99" />
    <path
       d="m 1151,6544 c -52,-14 -76,-24 -55,-24 21,1 147,38 129,38 -11,1 -45,-6 -74,-14 z"
       id="path100" />
    <path
       d="m 1595,6507 c 3,-12 -1,-40 -10,-61 -20,-46 -33,-385 -18,-451 l 9,-40 h 110 c 127,1 160,13 199,75 32,51 40,104 25,173 -15,73 -56,129 -111,152 -57,23 -163,24 -188,1 -28,-26 -34,-19 -26,30 11,73 14,78 39,57 20,-18 20,-18 6,2 -14,18 -13,18 20,-2 45,-28 93,-46 85,-33 -3,6 -2,10 4,10 5,0 13,-4 16,-10 9,-15 22,-12 22,5 0,8 -2,13 -5,10 -8,-7 -120,53 -146,80 -31,31 -38,31 -31,2 z m 162,-168 c 56,-17 108,-63 121,-106 19,-65 15,-140 -10,-185 -32,-57 -66,-71 -179,-76 l -96,-4 -6,38 c -13,76 -7,298 7,317 26,34 83,40 163,16 z"
       id="path101" />
    <path
       d="m 960,6510 c 0,-5 7,-10 15,-10 8,0 15,-4 15,-8 0,-10 88,-8 98,3 4,4 -9,5 -28,1 l -35,-6 30,15 c 36,17 17,20 -20,3 -21,-9 -31,-9 -46,0 -23,15 -29,15 -29,2 z"
       id="path102" />
    <path
       d="m 1935,6500 c 17,-4 44,-8 60,-8 25,0 24,2 -10,9 -51,10 -92,10 -50,-1 z"
       id="path103" />
    <path
       d="m 1915,6480 c 17,-4 44,-8 60,-8 h 30 l -30,8 c -16,4 -43,8 -60,8 h -30 z"
       id="path104" />
    <path
       d="m 1361,6421 c -90,-66 -90,-75 2,-17 26,18 121,34 97,17 -9,-6 -10,-11 -3,-11 17,0 44,30 38,41 -15,23 -81,8 -134,-30 z"
       id="path105" />
    <path
       d="m 1503,6405 c 2,-30 1,-30 -59,-36 -65,-6 -166,-41 -198,-68 -63,-54 -81,-190 -36,-271 32,-57 64,-69 196,-69 97,-1 102,0 108,22 9,35 6,410 -4,432 -8,17 -9,15 -7,-10 z m 0,-82 c 3,-16 3,-99 0,-185 -6,-153 -7,-157 -29,-162 -22,-6 -96,-1 -170,10 -54,8 -97,119 -80,207 15,81 123,155 227,156 43,1 47,-1 52,-26 z m -264,-298 c 11,-20 16,-33 11,-30 -17,11 -50,83 -49,107 1,18 3,16 9,-9 4,-17 17,-48 29,-68 z"
       id="path106" />
    <path
       d="m 968,6151 c 13,-11 22,-24 21,-28 -1,-4 13,-17 31,-27 21,-13 30,-15 25,-6 -6,10 -3,12 15,7 32,-8 15,4 -55,42 -37,20 -51,24 -37,12 z"
       id="path107" />
    <path
       d="m 2016,5948 c -30,-52 -48,-99 -41,-106 2,-3 12,12 21,34 9,21 25,56 35,77 26,50 16,47 -15,-5 z"
       id="path108" />
    <path
       d="m 798,6290 c -4,-52 -10,-108 -12,-125 -3,-16 1,-5 9,25 8,30 14,87 12,125 l -2,70 z"
       id="path109" />
    <path
       d="m 740,6004 c -7,-31 -21,-81 -31,-112 -22,-63 -22,-65 -10,-58 19,12 74,226 57,226 -2,0 -10,-25 -16,-56 z"
       id="path110" />
    <path
       d="m 2521,5841 c -6,-41 -10,-76 -8,-78 7,-6 30,124 25,139 -2,6 -10,-21 -17,-61 z"
       id="path111" />
    <path
       d="m 2661,4593 c 1,-49 5,-128 9,-178 6,-76 7,-62 7,88 -1,97 -5,177 -9,177 -4,0 -8,-39 -7,-87 z"
       id="path112" />
    <path
       d="m 2595,4435 c 9,-22 26,-64 37,-93 12,-29 23,-50 25,-48 6,6 -55,158 -69,171 -5,6 -2,-8 7,-30 z"
       id="path113" />
    <path
       d="m 499,5928 c -16,-37 -17,-120 -4,-280 6,-78 3,-153 -9,-285 -10,-98 -24,-245 -32,-328 -16,-174 -18,-264 -4,-285 8,-13 10,-13 10,2 0,32 40,542 50,642 13,129 13,217 -2,347 -9,84 -9,119 0,160 14,61 10,73 -9,27 z"
       id="path114" />
    <path
       d="m 2306,5699 c 3,-31 10,-71 14,-90 7,-26 8,-20 4,22 -3,31 -10,71 -14,90 -7,26 -8,20 -4,-22 z"
       id="path115" />
    <path
       d="m 2401,5358 c 40,-100 38,-96 38,-73 1,21 -44,125 -53,125 -3,0 4,-24 15,-52 z"
       id="path116" />
    <path
       d="m 1347,4473 c 9,-16 29,-42 44,-60 15,-18 38,-59 50,-93 12,-33 24,-58 27,-55 11,11 -34,104 -80,168 -51,68 -73,90 -41,40 z"
       id="path117" />
    <path
       d="m 1437,3698 c -8,-95 -9,-163 -3,-157 6,6 19,239 14,239 -3,0 -8,-37 -11,-82 z"
       id="path118" />
    <path
       d="m 1408,2987 c -5,-10 -8,-37 -7,-60 l 1,-42 9,34 c 12,40 9,97 -3,68 z"
       id="path119" />
    <path
       d="m 2037,3104 c -4,-4 -7,-26 -6,-48 l 1,-41 9,39 c 10,42 8,62 -4,50 z"
       id="path120" />
    <path
       d="m 1127,2614 c 14,-38 105,-47 141,-14 31,29 28,36 -4,11 -33,-26 -70,-27 -111,-1 -25,15 -31,16 -26,4 z"
       id="path121" />
    <path
       d="m 1712,1415 c -8,-49 -18,-160 -22,-247 -9,-158 -24,-268 -41,-300 -5,-10 -6,-18 -1,-18 14,0 31,67 42,160 38,336 53,617 22,405 z"
       id="path122" />
    <path
       d="m 1668,309 c -29,-17 -20,-28 12,-16 30,11 41,27 18,27 -7,0 -21,-5 -30,-11 z"
       id="path123" />
    <path
       d="m 1311,494 c -28,-61 -20,-69 9,-9 12,25 20,48 17,51 -3,3 -15,-16 -26,-42 z"
       id="path124" />
    <path
       d="m 361,4678 c 1,-18 5,-46 9,-63 6,-24 8,-17 9,33 0,35 -3,62 -9,62 -5,0 -9,-15 -9,-32 z"
       id="path129" />
    <path
       d="m 480,4515 c 0,-13 42,-86 46,-82 6,5 -33,87 -41,87 -3,0 -5,-2 -5,-5 z"
       id="path130" />
    <path
       d="m 1730.9604,8323.5648 c 20,-4 44,-13 52,-20 14,-12 11,-16 -21,-32 -44,-22 -100,-24 -127,-4 -17,13 -17,15 7,39 27,27 30,28 89,17 z m -54,-38 c -8,15 -12,16 -24,6 -12,-10 -12,-14 -2,-20 31,-20 98,-3 83,21 -5,8 -12,6 -27,-7 -19,-17 -20,-17 -30,0 z"
       id="path125" />
  </g>
  <path
     style="fill:none"
     d="m 152.8928,90.102102 c -4.08395,-2.722632 -8.16789,-5.445264 -12.25184,-8.167896 -8.42314,-0.170165 -16.84629,-0.340329 -25.26943,-0.510494 -9.44413,0.502808 -19.259511,1.74812 -28.332389,4.849688 -6.976745,5.019853 -13.953489,10.039707 -20.930234,15.05956 0.170165,6.29609 0.340329,12.59217 0.510494,18.88826 4.083948,3.23312 8.167896,6.46625 12.251844,9.69937 5.700511,0.93591 11.401021,1.87181 17.101532,2.80772 8.678383,-0.42541 17.356773,-0.85083 26.035163,-1.27624 7.14691,-1.4464 14.29382,-2.89279 21.44073,-4.33919 3.06296,-2.63755 6.12592,-5.2751 9.18888,-7.91265 0.0851,-9.69938 0.17017,-19.398752 0.25525,-29.098128 z"
     id="femaleRightPec"
     sodipodi:nodetypes="cccccccccccc"
     inkscape:label="femaleRightPec" />
  <path
     style="fill:none"
     d="m 155.06358,90.861815 c 5.16878,-2.811094 10.33757,-5.622188 15.50635,-8.433282 6.8545,-0.944023 14.67783,-2.081814 22.3074,-1.088166 7.25443,0.544083 14.50887,1.088166 21.7633,1.632249 9.24941,5.350147 18.49881,10.700293 27.74822,16.05044 -1.36021,5.712864 -2.72041,11.425734 -4.08062,17.138604 0.14902,4.1713 -0.34539,8.3426 -2.44837,12.5139 -5.89423,1.45089 -11.78846,2.90178 -17.68269,4.35267 -10.42825,0.37129 -21.24403,-1.19509 -31.28475,-3.53654 -8.16124,-1.45472 -16.32249,-4.84712 -24.48373,-8.43328 -2.35769,-2.44837 -4.71538,-4.89675 -7.07307,-7.34512 -0.0907,-7.61716 -0.18136,-15.234317 -0.27204,-22.851475 z"
     id="femaleLeftPec"
     sodipodi:nodetypes="cccccccccccc"
     inkscape:label="femaleLeftPec" />
  <path
     style="fill:none"
     d="m 103.61875,142.69384 c -0.11629,2.90737 -0.23259,5.81475 -0.34888,8.72212 1.97701,3.02367 3.95403,6.04733 5.93104,9.071 0.34888,11.51319 0.69777,23.02639 1.04665,34.53958 5.11698,9.76877 10.23395,19.53755 15.35093,29.30632 19.42256,5.79776 37.30845,5.44888 54.42601,-1.04666 4.07032,-7.67546 8.14065,-15.35093 12.21097,-23.02639 1.97701,-5.46586 3.95403,-10.93172 5.93104,-16.39758 -0.1163,-9.1873 -0.23259,-18.37459 -0.34889,-27.56189 3.13996,-1.97701 6.27993,-3.95403 9.41989,-5.93104 0.58147,-3.60514 1.16295,-7.21028 1.74442,-10.81542 -4.18662,-2.3259 -8.37323,-4.6518 -12.55985,-6.9777 -12.55985,-0.69777 -25.11969,-1.39554 -37.67954,-2.09331 -13.14133,0.23259 -26.28265,0.46518 -39.42398,0.69777 -5.23327,3.83773 -10.46654,7.67547 -15.69981,11.5132 z"
     id="femaleAbs"
     sodipodi:nodetypes="ccccccccccccccc"
     inkscape:label="femaleAbs" />
  <path
     style="fill:none"
     d="m 249.92611,103.05297 c 6.24564,5.13754 12.49127,10.27507 18.73691,15.41261 3.38138,4.56922 6.26663,9.30381 8.15962,14.20378 1.20883,7.5552 2.41766,15.11041 3.62649,22.66561 -4.02944,3.6265 -8.05888,7.25299 -12.08832,10.87949 -8.89332,1.93333 -17.2905,-0.26776 -25.68769,-3.62649 0.91252,-7.82132 -1.81325,-15.31188 -2.71987,-22.96782 0,-6.74931 0,-13.49863 0,-20.24794 0.20147,-4.23091 0.40294,-8.46183 0.60441,-12.69274 2.62669,-0.87808 5.91488,-3.5753 9.36845,-3.6265 z"
     id="femaleLeftBicep"
     sodipodi:nodetypes="cccccccccc"
     inkscape:label="femaleLeftBicep" />
  <path
     style="fill:none"
     d="m 24.391145,152.57082 c 3.420367,7.06502 8.691097,11.60682 14.298257,13.6254 6.504305,-0.3925 13.008611,-0.78501 19.512916,-1.17751 1.504138,-7.62574 4.149299,-15.25147 6.223948,-22.87721 1.419013,-10.27326 -0.234082,-20.97078 -2.018578,-31.96081 -2.401284,-1.3214 -5.753419,-2.07228 -8.915384,-1.68215 -6.504305,3.98108 -13.176825,6.95288 -19.512916,11.94325 -1.682148,7.06502 -3.364296,14.13005 -5.046444,21.19507 -1.513933,3.64465 -3.027866,7.28931 -4.541799,10.93396 z"
     id="femaleRightBicep"
     sodipodi:nodetypes="ccccccccc"
     inkscape:label="femaleRightBicep" />
  <path
     style="fill:none"
     d="m 214.95066,83.154111 c -1.02565,-1.550113 -0.51282,-2.929285 0,-5.163164 7.51829,-0.09058 15.03658,-0.181163 22.55487,-0.271745 8.06178,0.724654 16.12357,1.449309 24.18535,2.173963 5.90684,2.32588 10.95898,4.993642 14.13076,10.054582 1.65972,5.585405 2.46474,10.828923 1.90222,15.217743 -2.02347,5.55474 -4.90164,10.08383 -7.60887,13.58728 -6.70306,-5.16316 -13.40611,-10.32633 -20.10917,-15.48949 -11.68505,-6.703056 -23.80523,-12.318299 -35.05516,-20.109169 z"
     id="femaleRightDeltoid"
     sodipodi:nodetypes="ccccccccc"
     inkscape:label="femaleRightDeltoid" />
  <path
     style="fill:none"
     d="m 35.658503,117.40623 c 8.605483,-3.23485 16.518267,-7.57802 24.98521,-12.61389 C 69.780699,98.485392 78.917685,92.178445 88.054671,85.871497 86.518363,84.254331 84.982056,82.637166 83.445748,81.02 c -2.414421,-1.074335 -5.10592,-2.702828 -8.490119,-3.638623 -9.356384,0.196743 -18.574228,0.670565 -27.653533,2.668324 -5.821275,1.73305 -9.841534,3.743179 -14.554491,7.277245 -3.175607,4.447205 -4.965818,8.894409 -4.123773,13.341614 0.959493,6.82608 3.165844,12.68238 7.034671,16.73767 z"
     id="femaleLeftDeltoid"
     sodipodi:nodetypes="ccccccccc"
     inkscape:label="femaleLeftDeltoid" />
  <path
     style="fill:none"
     d="m 77.180129,76.616771 c 14.651981,-2.429575 28.543501,-5.619612 42.815251,-10.140455 2.81679,4.131296 5.63359,8.262593 8.45038,12.393889 C 111.35722,78.11906 93.888442,78.508607 77.180129,76.616771 Z"
     id="femaleRightFrontUpperTrap"
     sodipodi:nodetypes="cccc"
     inkscape:label="femaleRightFrontUpperTrap" />
  <path
     style="fill:none"
     d="m 186.62584,63.65701 c 4.51001,3.099056 8.77029,4.824649 13.9046,6.300523 9.92151,2.389854 19.84303,4.779707 29.76454,7.169561 -15.78752,0.506939 -31.57503,1.013877 -47.36255,1.520816 2.47974,-4.497526 3.33629,-9.993933 3.69341,-14.9909 z"
     id="femaleLeftFrontUpperTrap"
     sodipodi:nodetypes="ccccc"
     inkscape:label="femaleLeftFrontUpperTrap" />
  <path
     style="fill:none"
     d="m 40.103898,167.73891 c 6.509618,-1.04619 13.019237,-2.09237 19.528855,-3.13856 0.649473,4.26815 -0.697459,8.13702 -1.046189,12.20553 -8.950725,9.99691 -17.90145,19.99383 -26.852175,29.99074 -9.299455,-2.55735 -18.598909,-5.1147 -27.898364,-7.67205 1.3949182,-6.97459 2.7898364,-13.94918 4.1847546,-20.92377 4.8316624,-9.53451 9.4636834,-16.67333 15.6928294,-24.41107 4.664868,7.44469 10.327938,10.69694 16.390289,13.94918 z"
     id="femaleRightForearm"
     sodipodi:nodetypes="cccccccc"
     inkscape:label="femaleRightForearm" />
  <path
     style="fill:none"
     d="m 243.95642,162.75633 c 7.12282,1.7807 14.24563,3.56141 21.36845,5.34211 6.45437,-2.57882 11.25679,-6.07539 14.95791,-11.04036 3.41073,4.50016 6.45437,9.55096 7.47895,14.60177 1.78071,10.92165 3.56141,21.8433 5.34212,32.76495 -7.03606,5.06268 -15.35697,7.55567 -23.86143,7.47895 -5.46083,-8.30995 -10.92165,-16.6199 -16.38248,-24.92985 -3.88559,-7.33832 -8.13828,-15.77795 -8.90352,-24.21757 z"
     id="femaleLeftForearm"
     sodipodi:nodetypes="cccccccc"
     inkscape:label="femaleLeftForearm" />
  <path
     style="fill:none"
     d="m 157.90658,247.76137 c 18.90254,-13.98695 38.76089,-25.10649 58.14133,-37.65973 10.16235,-2.7997 18.49951,-9.24976 27.74927,-13.87464 6.79416,16.33463 11.19881,31.23555 13.21394,47.57018 -7.12038,23.25104 -16.37013,42.85172 -27.74927,58.80203 -5.50581,6.38674 -11.01161,12.77348 -16.51742,19.16022 -4.45695,6.80797 -8.3055,-0.68134 -15.19603,-3.30349 -7.31997,1.70956 -15.85673,2.20233 -23.7851,3.30349 -0.88093,1.54163 -1.76185,3.08325 -2.64278,4.62488 -5.81001,0.36752 -12.22841,-1.39434 -16.51743,-5.28558 1.76186,-14.09487 3.52372,-28.18974 5.28558,-42.28461 -0.6607,-10.35092 -1.32139,-20.70183 -1.98209,-31.05275 z"
     id="femaleLeftQuad"
     sodipodi:nodetypes="cccccccccccc"
     inkscape:label="femaleLeftQuad" />
  <path
     style="fill:none"
     d="m 147.43537,250.07308 c 0,13.79844 0,27.59687 0,41.39531 -0.9451,10.39609 -1.89019,20.79217 -2.83529,31.18826 -4.15843,1.70118 -8.31687,3.40235 -12.4753,5.10353 -3.02432,-2.64628 -6.04863,-5.29255 -9.07295,-7.93883 -6.00549,0.27529 -12.4753,-0.37804 -18.71295,-0.56706 -3.59137,1.32314 -7.182749,2.64627 -10.774123,3.96941 -6.048631,-5.67059 -12.097262,-11.34118 -18.145893,-17.01177 -9.261966,-18.14589 -18.523931,-36.29179 -27.785897,-54.43768 -0.567059,-9.82902 -1.134118,-19.65805 -1.701177,-29.48707 4.158433,-9.45099 8.316867,-18.90197 12.4753,-28.35296 7.371769,6.04863 14.743538,12.09726 22.115307,18.14589 13.231381,5.85961 26.462763,11.71923 39.694143,17.57884 12.14623,5.4388 21.90213,11.21908 27.21883,20.41413 z"
     id="femaleRightQuad"
     sodipodi:nodetypes="cccccccccccccc"
     inkscape:label="femaleRightQuad" />
  <path
     style="fill:none"
     d="m 201.83733,409.13949 c 9.67714,-10.25071 17.92526,-23.64527 24.74436,-37.61144 0.16497,-5.60872 0.32993,-11.21744 0.49489,-16.82617 -2.36511,-6.18033 -5.30184,-12.93227 -11.38241,-16.82617 -1.64962,13.197 -3.29924,26.394 -4.94887,39.59099 -2.96932,10.5576 -9.9399,21.6868 -8.90797,31.67279 z"
     id="femaleLeftCalf1"
     sodipodi:nodetypes="cccccc"
     inkscape:label="femaleLeftCalf1" />
  <path
     style="fill:none"
     d="m 167.78437,409.46164 6.10124,-19.65958 -2.71166,-20.67646 -6.10125,-8.47395 -4.74542,15.59208 z"
     id="femaleLeftCalf2"
     inkscape:label="femaleLeftCalf2" />
  <path
     style="fill:none"
     d="m 83.722703,340.6531 c -2.711666,9.03889 -7.499368,17.70032 -8.134999,27.11667 7.003878,15.44564 14.573947,28.24905 22.710207,40.675 1.780619,-5.18854 -5.875277,-18.30375 -8.812916,-27.45563 -0.903889,-9.7168 -1.807778,-19.43361 -2.711667,-29.15041 0.681699,-3.91727 0.04228,-8.7782 -3.050625,-11.18563 z"
     id="femaleRightCalf1"
     sodipodi:nodetypes="cccccc"
     inkscape:label="femaleRightCalf1" />
  <path
     style="fill:none"
     d="m 137.63928,350.16161 9.70145,24.55679 -10.30779,30.01385 -5.76023,-28.19483 5.15389,-12.12681 z"
     id="femaleRightCalf2"
     inkscape:label="femaleRightCalf2" />
</svg>
