<?xml version="1.0" encoding="UTF-8" standalone="no"?>
<svg
   version="1.0"
   width="300px"
   height="470px"
   viewBox="0 0 300 470"
   preserveAspectRatio="xMidYMid meet"
   id="svg22"
   sodipodi:docname="FemaleRearMusclesOG.svg"
   inkscape:version="1.4 (e7c3feb1, 2024-10-09)"
   xmlns:inkscape="http://www.inkscape.org/namespaces/inkscape"
   xmlns:sodipodi="http://sodipodi.sourceforge.net/DTD/sodipodi-0.dtd"
   xmlns="http://www.w3.org/2000/svg"
   xmlns:svg="http://www.w3.org/2000/svg">
  <defs
     id="defs22" />
  <sodipodi:namedview
     id="namedview22"
     pagecolor="#ffffff"
     bordercolor="#000000"
     borderopacity="0.25"
     inkscape:showpageshadow="2"
     inkscape:pageopacity="0.0"
     inkscape:pagecheckerboard="0"
     inkscape:deskcolor="#d1d1d1"
     inkscape:zoom="2.1236542"
     inkscape:cx="145.50391"
     inkscape:cy="160.80772"
     inkscape:window-width="1104"
     inkscape:window-height="588"
     inkscape:window-x="137"
     inkscape:window-y="44"
     inkscape:window-maximized="0"
     inkscape:current-layer="svg22" />
  <metadata
     id="metadata1">
Created by potrace 1.10, written by Peter Selinger 2001-2011
</metadata>
  <g
     fill="#000000"
     stroke="none"
     id="g22"
     transform="matrix(0.1370745,0,0,-0.06210648,-55.557632,482.48662)">
    <path
       d="m 1436,7762 c -3,-2 -26,-6 -52,-8 -92,-6 -180,-85 -225,-201 -16,-43 -22,-83 -24,-156 -1,-53 -4,-100 -7,-102 -8,-8 9,-112 22,-132 11,-17 11,-17 5,2 -3,10 -8,40 -10,65 -5,49 -4,46 28,-72 19,-68 31,-93 56,-110 14,-10 22,-41 36,-136 9,-67 14,-137 11,-156 -16,-84 -243,-235 -388,-257 -135,-20 -193,-58 -242,-154 -48,-97 -59,-214 -31,-334 13,-53 14,-85 5,-180 -5,-64 -10,-192 -10,-286 0,-206 -8,-261 -65,-435 -52,-160 -61,-210 -75,-435 -14,-212 -25,-298 -44,-354 -9,-24 -14,-46 -11,-50 2,-4 0,-84 -5,-177 -8,-168 -8,-169 18,-239 21,-56 40,-84 97,-142 65,-68 74,-73 112,-73 23,0 54,-5 69,-10 15,-6 29,-9 31,-6 9,8 -8,45 -44,97 -73,107 -112,238 -72,247 12,2 19,-9 27,-41 12,-47 46,-97 66,-97 7,0 21,9 31,20 29,32 14,91 -60,245 -66,138 -67,141 -62,205 7,80 45,200 138,435 112,283 121,315 120,422 -1,68 6,126 28,225 16,73 33,156 38,183 8,48 8,47 14,-45 4,-52 14,-126 23,-165 9,-38 19,-115 22,-170 8,-132 -8,-196 -79,-322 -31,-54 -65,-125 -75,-158 -18,-53 -43,-217 -73,-470 -21,-182 -5,-487 36,-680 78,-365 112,-505 155,-640 100,-311 118,-524 66,-783 -21,-105 -26,-161 -26,-271 0,-172 13,-250 95,-556 74,-276 106,-437 106,-527 0,-293 0,-293 -59,-342 -44,-37 -65,-86 -52,-120 10,-27 56,-56 89,-56 10,0 48,-13 83,-30 70,-33 111,-37 163,-16 46,19 52,58 25,151 -24,84 -25,114 -4,180 15,51 12,132 -7,199 -36,119 -28,376 18,624 35,190 37,372 4,537 -37,181 -37,188 0,346 l 33,144 -3,486 c -4,530 7,645 28,291 6,-114 16,-265 22,-337 6,-71 14,-195 19,-275 9,-153 16,-197 57,-324 31,-94 29,-177 -8,-346 -34,-155 -32,-358 4,-535 15,-71 30,-168 33,-215 7,-94 -9,-285 -31,-370 -51,-200 -50,-196 -31,-239 13,-28 16,-50 12,-76 -4,-20 -2,-71 5,-113 17,-103 43,-132 122,-132 45,0 61,5 92,30 25,20 49,30 72,30 75,0 110,87 56,136 -95,84 -93,81 -93,123 0,22 4,50 9,63 5,15 5,45 -2,78 -20,103 20,306 142,720 33,113 68,248 77,300 21,123 14,285 -20,478 -22,119 -26,173 -26,329 0,196 3,218 85,628 13,66 33,174 45,240 43,252 111,506 154,574 32,50 114,127 132,123 16,-3 19,9 5,23 -14,17 -58,153 -95,295 -19,74 -57,203 -85,285 -27,83 -64,216 -82,296 -28,128 -31,152 -22,200 l 10,54 2,-70 c 2,-88 29,-149 107,-241 76,-90 109,-165 134,-303 11,-63 22,-117 25,-119 8,-8 7,2 -15,153 -23,165 -24,242 -5,350 8,44 15,94 16,110 1,20 7,5 20,-45 48,-194 50,-217 58,-580 5,-224 12,-364 19,-380 10,-21 11,-14 7,40 -4,64 -4,64 7,20 8,-34 7,-59 -3,-105 -8,-36 -14,-133 -15,-246 l -1,-186 -31,-44 c -28,-40 -58,-71 -149,-153 -31,-28 -32,-28 -26,-5 4,13 41,57 83,99 77,76 103,116 114,180 6,34 6,34 -15,-10 -43,-91 -52,-106 -83,-138 -38,-41 -152,-122 -160,-114 -13,12 -3,23 65,74 38,29 84,73 100,98 30,43 31,48 24,120 -8,94 -23,169 -39,195 -7,11 -17,34 -21,50 -9,29 -9,29 -14,-15 -5,-34 -1,-55 16,-87 11,-24 27,-75 33,-114 14,-80 6,-125 -30,-169 l -20,-25 15,37 c 24,59 20,104 -22,278 -6,22 -7,23 -13,5 -7,-20 -10,-21 -51,-24 -11,0 -17,-6 -14,-12 4,-6 19,-7 36,-4 24,6 29,3 29,-13 0,-16 -11,-23 -48,-32 l -48,-11 -14,-90 c -15,-102 -8,-121 32,-95 34,22 48,57 48,121 0,48 2,55 20,55 18,0 20,-7 20,-79 0,-44 -5,-92 -11,-108 -5,-15 -37,-56 -71,-89 -35,-36 -56,-64 -49,-68 5,-4 8,-13 4,-21 -7,-21 10,-19 41,6 l 26,20 v -35 c 0,-20 3,-36 6,-36 13,0 140,119 190,178 l 53,62 -1,193 c -1,152 2,202 15,241 15,46 15,54 -3,133 -16,67 -20,121 -20,271 -1,357 -21,507 -101,739 -37,106 -39,117 -39,235 0,67 -5,191 -11,274 -9,113 -9,184 -1,280 12,142 6,224 -28,337 -37,120 -82,154 -260,192 -153,34 -360,157 -399,239 -26,53 -26,64 3,209 20,95 29,123 49,141 24,22 38,57 53,134 4,18 4,32 1,32 -3,0 -11,-24 -17,-53 -12,-58 -50,-130 -58,-109 -2,8 5,26 15,41 11,14 22,42 25,61 3,19 9,44 13,54 6,14 5,17 -4,12 -9,-6 -8,2 3,22 37,72 27,201 -25,323 -27,62 -103,132 -167,153 -44,15 -164,20 -176,8 z m 120,-23 c -27,-4 -49,-17 -69,-39 l -28,-32 3,38 c 3,36 5,39 37,41 19,2 36,5 38,7 2,2 16,1 31,-2 25,-6 24,-6 -12,-13 z m -110,-33 c 9,-37 -2,-59 -41,-80 -19,-10 -32,-23 -28,-28 3,-6 -3,-8 -14,-4 -13,4 -20,2 -20,-8 0,-8 6,-12 15,-8 10,3 13,1 8,-6 -4,-7 -2,-12 3,-12 6,0 11,-4 11,-10 0,-5 -15,-7 -32,-5 -26,4 -29,3 -13,-4 18,-9 18,-10 -7,-10 -37,-1 -59,-11 -51,-24 4,-6 0,-8 -11,-4 -11,4 -15,3 -11,-4 4,-6 0,-9 -11,-7 -10,2 -19,-2 -19,-7 0,-17 -53,-80 -61,-72 -4,4 0,35 10,69 21,77 59,115 120,121 l 41,4 -42,1 c -32,2 -49,-4 -74,-25 l -33,-28 20,34 c 10,19 38,46 61,61 23,15 40,30 36,34 -18,18 48,2 80,-19 20,-14 37,-21 37,-15 0,6 -26,23 -57,38 -57,26 -58,26 -28,33 17,4 47,7 67,8 32,1 39,-3 44,-23 z m 205,-2 c 17,-8 28,-18 25,-21 -3,-3 2,-12 12,-20 9,-8 11,-11 3,-7 -9,5 -12,3 -7,-4 4,-7 14,-12 21,-12 18,0 41,-35 66,-100 l 20,-52 -28,19 c -30,21 -134,53 -174,53 -17,0 -29,10 -40,33 -8,17 -28,38 -43,45 -25,13 -26,15 -13,35 30,47 102,61 158,31 z m -124,-120 c 20,-28 24,-41 19,-71 -8,-52 -8,-52 3,-103 13,-57 13,-191 0,-295 -12,-107 -21,-264 -10,-185 4,30 14,87 21,125 8,39 13,104 13,145 -1,68 0,71 7,30 7,-35 8,-26 5,40 -2,47 -11,106 -19,133 -8,26 -10,47 -5,47 16,0 27,44 17,69 -5,13 -6,26 -3,29 7,8 136,-26 162,-43 26,-18 48,-49 58,-85 7,-23 5,-22 -31,11 -22,20 -50,42 -64,49 l -25,13 25,-29 c 16,-19 18,-23 5,-13 -25,20 -80,49 -95,49 -21,0 -9,-18 20,-30 17,-7 50,-26 73,-43 23,-17 36,-23 28,-14 -7,9 -11,17 -7,17 12,0 37,-49 42,-82 16,-100 -14,-185 -95,-269 -28,-29 -53,-50 -56,-47 -3,2 3,29 12,59 11,35 17,89 17,154 0,92 -2,104 -28,148 -32,54 -45,58 -19,7 29,-60 29,-169 -2,-315 -59,-277 -63,-294 -66,-250 -2,28 -4,17 -9,-35 -11,-115 -11,-447 1,-730 7,-198 7,-279 -3,-360 l -13,-105 -6,80 c -7,82 -11,1354 -5,1595 3,103 1,124 -6,90 -5,-25 -10,-186 -11,-358 -2,-262 -4,-304 -13,-260 -17,79 -47,292 -53,378 l -5,75 -6,-55 c -6,-54 -6,-54 -18,-27 -7,16 -12,66 -12,111 0,73 4,90 29,137 l 29,54 -20,49 c -22,57 -13,103 28,135 31,25 58,17 91,-25 z m -177,-74 c -13,-8 -13,-10 1,-10 17,0 49,-40 49,-61 0,-7 -7,-17 -16,-24 -31,-22 -38,-232 -10,-324 9,-30 14,-56 11,-59 -2,-3 -16,3 -30,12 -14,9 -30,14 -35,11 -6,-3 -10,1 -10,10 0,12 -5,15 -17,11 -10,-4 -14,-4 -11,0 4,4 -9,25 -28,48 -19,22 -38,53 -41,69 -3,15 -10,30 -14,33 -15,9 -10,133 6,164 9,17 13,30 10,30 -2,0 -14,-18 -25,-40 -23,-46 -35,-53 -19,-13 26,68 119,153 168,153 20,0 23,-2 11,-10 z m 349,-513 c -20,-26 -25,-47 -28,-116 -4,-98 10,-154 47,-195 41,-44 169,-127 250,-162 l 74,-32 -75,-7 c -140,-13 -252,32 -309,126 -33,54 -58,173 -58,277 v 79 l 58,41 c 62,44 78,39 41,-11 z m -321,-8 c 57,-36 56,-235 -3,-349 -34,-65 -116,-119 -223,-144 -45,-11 -50,-15 -25,-15 82,-2 210,67 254,138 16,24 34,72 41,105 l 12,61 17,-85 c 10,-47 18,-114 19,-150 0,-59 -3,-69 -32,-104 -35,-43 -138,-96 -185,-96 -31,0 -89,35 -143,86 -20,19 -56,40 -80,47 l -45,13 47,21 c 48,22 146,85 212,137 47,38 100,112 90,128 -4,6 -3,8 2,5 10,-6 70,141 61,150 -6,5 -77,-138 -77,-155 0,-6 -3,-13 -7,-15 -5,-3 -8,36 -9,86 0,71 -5,103 -21,139 l -21,47 48,-19 c 27,-11 58,-25 68,-31 z m 215,-191 c 11,-192 82,-285 244,-322 78,-17 79,-35 4,-75 -48,-25 -70,-31 -112,-30 -48,2 -58,7 -100,46 -26,24 -52,57 -59,74 -7,16 -14,28 -16,26 -8,-8 29,-83 54,-110 39,-42 74,-57 132,-57 53,0 86,13 158,62 66,46 156,78 197,71 47,-8 55,-23 12,-23 -46,0 -145,-51 -206,-106 -90,-81 -146,-187 -171,-324 -8,-47 -8,-72 4,-117 8,-32 17,-85 21,-118 9,-73 20,-96 81,-164 25,-28 44,-55 40,-58 -8,-8 -114,16 -121,28 -9,14 -27,11 -19,-3 4,-8 3,-10 -2,-5 -5,5 -9,12 -9,15 0,4 -12,23 -27,42 -46,61 -49,78 -42,288 7,221 6,226 -77,412 -54,119 -48,84 10,-68 34,-89 50,-147 54,-195 3,-37 2,-65 -1,-63 -4,2 -6,-30 -5,-72 2,-98 -1,-106 -35,-85 l -27,15 25,-20 c 43,-36 34,-128 -36,-357 -41,-135 -43,-150 -53,-356 -6,-123 -5,-189 5,-260 18,-126 18,-121 -13,-117 -32,4 -35,19 -22,133 5,39 10,173 12,299 3,164 7,231 15,234 7,2 12,11 12,21 0,9 6,40 13,68 8,29 10,50 4,46 -5,-3 -6,4 -2,17 5,17 4,21 -5,15 -10,-6 -11,-4 -4,6 5,8 10,23 10,34 4,57 18,121 28,127 7,5 7,8 1,8 -6,0 -11,14 -11,30 -1,17 3,30 8,30 5,0 6,6 1,12 -4,7 -9,30 -10,50 -3,29 0,36 11,32 8,-3 13,-11 10,-17 -2,-7 6,-18 18,-26 20,-13 22,-12 11,1 -7,8 -10,17 -7,20 3,3 -6,15 -20,26 -27,20 -36,39 -13,26 9,-6 9,-4 -1,8 -19,23 -27,162 -27,458 0,216 3,283 18,363 11,53 22,97 26,97 5,0 11,-42 14,-92 z m -592,-323 c 23,-9 66,-33 93,-54 81,-61 134,-91 158,-91 13,0 52,14 87,30 71,34 75,32 87,-28 5,-28 0,-40 -44,-93 -30,-38 -52,-75 -55,-96 -4,-20 0,-97 8,-172 18,-170 19,-233 2,-274 -20,-45 -109,-141 -163,-172 -25,-15 -43,-29 -40,-32 8,-9 94,45 132,84 49,49 94,121 94,152 1,24 1,25 12,7 24,-42 47,-139 37,-158 -13,-24 -56,-51 -69,-43 -5,3 -10,2 -10,-2 0,-9 -52,-43 -66,-43 -4,0 10,13 32,29 21,16 42,27 46,25 12,-8 51,57 40,68 -6,6 -12,6 -17,-3 -6,-8 -4,-10 5,-4 8,5 11,3 9,-4 -3,-7 -7,-11 -10,-9 -3,2 -28,-18 -57,-43 -37,-33 -77,-56 -146,-82 -53,-21 -100,-37 -106,-37 -16,0 -12,-26 17,-99 l 26,-68 91,40 c 50,22 107,50 126,62 19,12 41,25 48,29 9,5 12,-7 12,-48 0,-54 0,-55 -37,-66 -31,-10 -198,-86 -211,-96 -2,-1 10,-23 28,-49 46,-67 98,-183 116,-261 8,-37 22,-80 29,-95 12,-23 75,-187 75,-196 0,-1 -20,11 -45,28 -84,57 -175,92 -234,90 -52,-2 -99,-17 -87,-28 7,-8 -13,-33 -26,-33 -6,0 -4,8 3,18 12,15 12,16 -2,5 -9,-7 -20,-9 -25,-5 -4,4 -2,-1 5,-11 12,-15 11,-21 -6,-40 -12,-12 -35,-44 -53,-72 -21,-34 -30,-42 -26,-25 3,14 10,50 16,80 12,65 39,114 72,131 l 23,12 -20,-24 -20,-23 29,22 c 16,12 38,22 50,23 14,1 10,4 -13,10 -31,10 -32,11 -15,24 22,17 11,20 -17,4 -11,-5 -16,-15 -13,-21 4,-6 3,-8 -3,-5 -13,8 -70,-54 -84,-90 -5,-14 -16,-71 -24,-127 -8,-55 -21,-134 -30,-174 -41,-197 3,-401 126,-580 22,-31 50,-73 63,-92 24,-36 43,-119 100,-450 59,-341 69,-521 35,-645 l -14,-50 -6,95 c -6,94 -52,270 -72,270 -4,0 -6,-8 -3,-17 3,-10 18,-61 33,-113 l 28,-95 v -505 c 0,-555 -5,-496 71,-865 63,-308 74,-365 73,-393 -1,-34 1,-39 -50,168 -23,96 -48,188 -56,205 -17,36 -17,34 32,-155 36,-142 74,-344 77,-413 1,-33 3,-28 8,23 6,55 7,58 8,21 1,-24 5,-42 8,-38 14,14 -35,413 -71,577 -64,293 -67,321 -72,645 -5,359 -6,354 68,335 92,-24 112,-54 111,-165 0,-59 1,-64 8,-35 15,58 15,127 0,145 -10,12 -11,24 -1,54 16,55 14,118 -9,213 -11,46 -26,155 -35,243 -14,144 -32,255 -34,215 0,-8 6,-100 14,-205 8,-104 15,-235 17,-290 1,-98 2,-99 7,-30 l 6,70 13,-53 c 15,-65 15,-100 1,-141 -9,-24 -16,-30 -28,-25 -48,20 -107,33 -123,28 -16,-5 -18,2 -18,63 0,38 9,105 21,148 31,120 40,224 28,339 -21,208 -75,537 -121,731 -11,50 -21,101 -22,115 -1,14 -6,25 -13,25 -6,0 -24,18 -39,40 -14,22 -39,55 -55,73 -41,46 -36,51 10,9 45,-41 119,-66 195,-68 l 51,-1 -46,-8 c -61,-11 -90,-26 -82,-46 5,-13 9,-12 27,5 13,12 42,22 76,26 119,14 206,42 253,83 22,19 24,17 43,-49 21,-70 29,-267 15,-372 -26,-195 -34,-476 -21,-737 l 13,-255 -36,-145 c -19,-80 -43,-183 -52,-229 -16,-78 -25,-111 -54,-185 -24,-61 -20,-13 14,145 18,90 45,191 59,224 14,33 26,67 26,75 0,8 -12,-12 -25,-45 -14,-33 -31,-65 -40,-71 -8,-6 -12,-13 -9,-16 3,-3 -4,-55 -16,-114 -12,-60 -28,-138 -34,-174 -7,-36 -25,-103 -40,-150 -25,-77 -28,-94 -22,-185 3,-55 17,-146 30,-202 38,-154 46,-211 56,-418 9,-191 14,-225 32,-225 14,0 5,314 -9,332 -6,7 -13,54 -17,103 -4,50 -20,142 -37,205 -36,138 -47,265 -29,341 7,30 30,88 51,129 22,41 50,111 64,155 l 25,80 -3,-75 c -3,-41 -2,-67 0,-57 9,33 20,16 32,-50 28,-149 26,-253 -10,-473 -30,-181 -34,-227 -34,-395 0,-162 4,-206 23,-297 23,-104 23,-109 7,-160 -10,-29 -21,-57 -26,-63 -12,-12 -11,-2 2,32 15,39 20,122 9,143 -22,41 -117,31 -161,-16 -17,-19 -19,-25 -7,-21 14,5 15,1 8,-24 -5,-18 -5,-41 1,-55 15,-41 10,-102 -11,-145 -12,-22 -22,-53 -23,-69 -2,-27 -6,-30 -35,-30 -80,0 -97,49 -34,99 49,38 91,116 81,151 -4,14 -5,81 -2,150 6,142 -7,241 -63,460 -49,197 -47,187 -35,170 13,-18 13,-3 1,25 -6,14 -9,15 -10,5 -1,-8 -12,21 -26,65 -13,44 -22,91 -19,105 4,20 3,22 -5,10 -8,-11 -9,-5 -5,25 5,31 4,37 -5,25 -8,-12 -9,-6 -5,25 3,27 2,34 -3,20 -7,-15 -9,-7 -9,30 0,28 -4,113 -8,190 -6,120 -3,157 14,255 40,214 44,275 31,405 -15,156 -30,222 -85,385 -50,149 -105,357 -130,495 -9,50 -27,146 -40,215 -47,253 -57,510 -25,695 5,33 17,115 25,182 17,141 51,258 89,308 14,18 26,40 26,47 0,8 13,35 30,61 16,26 30,52 30,58 0,6 3,8 8,6 10,-7 16,69 16,208 l -1,119 23,-64 c 23,-64 31,-80 104,-215 21,-38 45,-96 54,-128 13,-54 13,-58 -2,-52 -51,21 -94,27 -157,21 -99,-9 -101,-23 -3,-18 112,6 161,-9 193,-56 14,-20 36,-53 49,-72 14,-19 25,-41 25,-47 1,-13 21,-19 21,-6 0,9 -50,93 -77,129 -12,17 -23,39 -23,48 0,32 -48,163 -80,216 -26,44 -80,164 -80,178 0,2 8,-2 18,-9 15,-13 16,-12 3,3 -7,10 -17,16 -21,13 -10,-6 -39,65 -51,128 -13,71 17,135 97,204 33,28 73,75 90,105 25,46 29,63 29,133 -1,71 -4,88 -35,149 -46,92 -148,197 -208,215 -23,6 -40,16 -37,21 4,6 -5,10 -19,10 -14,0 -27,4 -30,8 -3,5 9,7 27,6 18,-2 23,-1 13,2 -13,4 14,17 80,40 98,34 99,34 118,14 20,-20 20,-20 -19,-21 -22,-1 -53,-5 -70,-9 -18,-5 0,-6 43,-3 39,3 72,2 73,-3 2,-28 9,-45 23,-59 22,-22 56,-138 57,-194 1,-25 5,-57 10,-71 6,-16 7,12 5,80 -4,101 -6,107 -52,200 -54,106 -146,210 -221,249 -94,47 -223,13 -282,-75 -50,-76 -63,-214 -33,-353 7,-32 6,-57 -3,-90 -7,-25 -16,-57 -20,-71 -7,-24 20,17 94,140 18,30 52,72 75,93 l 41,39 -40,-24 c -22,-14 -58,-50 -79,-81 -22,-31 -42,-55 -44,-52 -10,10 58,134 92,167 38,37 97,54 145,41 l 22,-6 -28,-26 c -42,-40 -98,-107 -101,-122 -2,-8 -9,-17 -15,-21 -7,-4 -9,-8 -5,-8 4,0 -7,-29 -23,-65 -16,-36 -45,-127 -63,-203 -28,-113 -35,-132 -41,-108 -7,25 -3,99 10,196 4,28 2,25 -11,-15 -15,-44 -16,-69 -5,-220 6,-93 12,-215 12,-270 1,-55 5,-113 9,-130 5,-17 8,59 7,180 -1,226 0,230 45,380 38,128 61,193 101,279 l 31,69 13,-84 c 21,-137 31,-329 22,-399 -7,-53 -81,-379 -120,-531 -13,-52 -51,-89 -91,-89 -18,0 -38,4 -43,8 -15,10 -35,82 -35,125 0,47 -17,57 -25,14 -4,-21 0,-58 10,-94 16,-56 16,-62 0,-99 -9,-21 -30,-88 -46,-149 l -30,-110 6,83 c 3,46 10,105 15,130 11,57 22,218 15,210 -9,-9 -43,-255 -50,-363 -16,-252 -27,-350 -46,-410 -11,-36 -17,-70 -14,-75 3,-6 0,-10 -7,-10 -8,0 -6,-5 5,-11 9,-5 22,-7 27,-4 6,3 31,3 56,-1 l 47,-7 68,-144 c 38,-79 69,-153 69,-164 0,-24 -17,-59 -29,-59 -9,0 -51,99 -51,122 0,9 -12,23 -27,30 -29,14 -31,23 -19,88 l 7,35 -16,-25 -16,-25 6,25 c 5,21 4,22 -5,7 -6,-9 -15,-15 -20,-12 -5,3 -20,-18 -33,-47 -48,-103 -54,-101 -38,15 8,61 10,113 6,124 -10,21 -21,-47 -31,-197 -6,-92 -5,-97 25,-162 38,-81 93,-133 149,-143 22,-3 48,-15 58,-26 17,-19 14,-19 -49,4 -71,26 -84,27 -40,3 23,-13 25,-15 8,-16 -30,0 -142,121 -172,188 -24,53 -26,66 -24,197 1,77 6,157 10,177 5,20 7,39 5,41 -3,2 7,49 20,103 19,79 26,137 31,284 9,269 10,274 109,548 24,68 26,87 26,235 1,89 6,209 12,267 10,105 12,240 6,465 -3,108 -1,125 20,170 42,91 90,124 213,149 41,8 75,15 75,15 1,1 21,-6 45,-14 z m 475,-197 c -2,-101 -4,-205 -5,-231 -1,-43 -4,-50 -36,-69 -20,-11 -34,-23 -31,-25 3,-3 19,5 35,17 30,21 43,16 19,-8 -9,-9 -9,-12 2,-12 9,0 8,-5 -6,-15 -11,-9 -13,-13 -4,-10 12,4 15,-4 16,-40 1,-27 -3,-45 -10,-45 -7,0 -7,-3 -1,-8 13,-9 14,-15 32,-173 10,-88 13,-158 8,-195 l -8,-59 -33,125 c -18,69 -39,143 -45,165 -7,22 -13,45 -13,50 -1,6 -4,13 -9,16 -4,3 -12,46 -17,95 -6,49 -15,113 -20,143 -21,116 -10,181 39,225 12,11 31,35 42,53 21,33 21,36 4,78 -16,44 -16,45 7,74 13,17 26,30 30,30 4,1 5,-81 4,-181 z m 745,171 c 106,-36 170,-186 168,-394 -1,-60 -4,-139 -8,-175 -5,-54 -7,-38 -14,101 -8,197 -26,302 -64,371 -29,54 -51,73 -111,94 -45,16 -19,19 29,3 z m -8,-31 c 41,-20 90,-88 108,-148 5,-19 12,-87 15,-150 2,-63 7,-125 9,-137 9,-39 -3,-26 -42,50 -21,39 -63,98 -93,130 -50,51 -60,57 -95,56 -22,0 -34,-3 -26,-6 16,-6 -171,-74 -206,-75 -13,0 -20,-5 -16,-11 4,-6 0,-8 -11,-4 -9,4 -15,3 -12,-2 4,-5 -14,-21 -39,-35 -25,-15 -45,-29 -45,-32 0,-4 49,22 115,61 11,6 35,17 54,23 l 33,12 -44,-53 c -25,-28 -62,-82 -83,-119 -38,-66 -63,-86 -84,-65 -6,6 -11,23 -11,38 0,21 15,39 70,83 39,31 70,59 70,62 0,9 -62,-36 -104,-75 -36,-34 -38,-34 -32,-11 8,31 16,60 21,80 2,8 4,16 5,18 2,1 3,6 4,11 0,5 4,13 9,17 4,4 7,15 7,25 0,10 7,25 16,33 8,9 13,16 10,16 -3,0 2,9 11,20 12,14 30,20 58,21 22,0 63,4 90,9 28,4 57,4 65,-1 10,-5 -4,-8 -39,-9 -79,0 -59,-7 39,-12 l 85,-6 -70,34 c -38,19 -85,34 -105,35 -34,0 -89,17 -62,18 7,1 36,19 65,40 29,22 71,44 94,50 99,27 206,-42 238,-151 18,-65 31,-77 20,-21 -16,84 -70,152 -144,178 -51,18 -89,19 -128,4 -18,-7 -25,-7 -18,0 16,16 86,29 125,24 19,-3 52,-14 73,-25 z m -1213,-8 c 30,-16 48,-29 40,-30 -9,0 -2,-8 15,-19 17,-11 40,-28 53,-38 l 23,-18 -118,-39 c -129,-42 -207,-81 -197,-98 4,-6 3,-8 -3,-5 -13,8 -66,-66 -90,-124 l -18,-44 -7,45 c -12,79 -8,195 7,248 18,59 65,119 110,138 52,23 124,16 185,-16 z m 949,-122 66,-12 -45,-7 c -25,-4 -63,-7 -85,-7 -38,1 -38,1 10,8 l 50,7 -43,1 c -26,1 -41,6 -37,12 8,12 5,12 84,-2 z m 250,-156 c 59,-59 132,-202 162,-317 17,-64 23,-127 29,-310 6,-168 13,-245 25,-285 10,-30 17,-82 16,-116 -1,-74 -33,-184 -62,-210 -20,-18 -21,-18 -69,32 -43,45 -50,58 -65,130 -9,43 -34,140 -56,214 -78,269 -102,470 -74,625 9,50 17,110 17,135 l -1,45 19,-36 c 28,-52 70,-163 125,-324 l 48,-140 7,-230 c 3,-126 9,-237 14,-246 4,-11 -2,-30 -18,-54 -14,-21 -26,-45 -26,-54 0,-9 7,-3 16,14 8,16 21,37 27,45 9,11 12,115 11,385 0,416 1,405 -79,565 -35,69 -52,92 -87,114 l -43,28 41,-39 c 52,-48 121,-183 140,-272 7,-37 13,-115 12,-176 0,-60 -3,-99 -5,-85 -21,122 -132,403 -217,550 -14,25 -26,48 -26,53 0,4 16,7 35,7 30,0 45,-9 84,-48 z m -121,-8 c 11,-31 12,-60 3,-144 -6,-58 -11,-132 -12,-165 0,-33 -3,-78 -7,-100 l -7,-39 -24,24 c -13,14 -21,19 -17,13 11,-19 0,-16 -47,13 -84,53 -127,107 -127,161 0,29 43,122 82,176 26,37 117,109 132,104 6,-2 17,-21 24,-43 z m -1062,13 c 49,-29 107,-85 140,-135 42,-63 42,-95 -1,-168 -32,-54 -121,-127 -147,-121 -10,3 -16,1 -12,-4 3,-5 -4,-9 -15,-9 -18,0 -21,6 -20,48 1,26 -2,71 -6,100 -7,48 -5,56 22,95 36,51 46,67 40,67 -2,0 -17,-19 -33,-41 l -29,-42 -17,59 c -24,80 -23,104 7,137 28,30 40,32 71,14 z m 205,-297 c 0,-53 -13,-65 -113,-116 -62,-31 -120,-49 -73,-22 83,46 163,150 166,213 1,42 21,-29 20,-75 z m 675,-79 c 32,-30 82,-65 111,-78 59,-27 59,-26 22,-107 -10,-23 -19,-35 -19,-28 0,8 -8,10 -24,6 -30,-7 -82,19 -97,49 -6,12 -31,43 -56,68 -41,42 -46,54 -58,125 -15,81 -13,94 11,94 8,0 18,8 21,18 5,12 11,0 19,-38 11,-47 21,-63 70,-109 z m -682,-28 c -15,-48 -58,-113 -75,-113 -6,0 -8,-4 -5,-9 3,-4 -11,-21 -30,-37 -20,-16 -44,-46 -55,-66 -19,-37 -34,-52 -23,-24 8,21 -13,90 -36,116 -11,13 -20,30 -21,39 0,9 -2,24 -4,34 -2,9 1,17 6,17 5,0 9,-4 9,-10 0,-5 7,-10 16,-10 8,0 13,4 10,9 -4,5 3,7 13,4 23,-6 153,51 177,78 28,31 33,22 18,-28 z m 475,-120 c 23,-46 44,-83 47,-83 2,0 -3,14 -11,31 -16,30 -16,30 6,19 14,-8 19,-8 15,-1 -9,15 -5,14 32,-5 17,-8 54,-19 81,-23 78,-12 97,-30 104,-95 7,-70 -19,-169 -58,-226 -16,-23 -32,-43 -37,-46 -9,-6 -172,77 -204,104 -14,12 -23,33 -26,60 -2,23 -2,42 0,42 1,0 34,-18 73,-40 82,-46 156,-80 176,-80 17,0 53,81 53,119 0,39 -24,56 -106,79 -83,23 -102,32 -168,80 l -48,35 7,51 c 6,47 13,71 20,64 2,-2 22,-40 44,-85 z m 391,-32 c 0,-21 16,-102 35,-180 30,-116 36,-163 39,-263 3,-138 25,-240 101,-460 64,-186 126,-438 132,-538 l 5,-85 -36,-41 c -38,-45 -86,-132 -86,-157 0,-9 -4,-18 -8,-21 -5,-3 -14,77 -20,177 -12,187 -60,529 -88,627 -8,30 -37,96 -64,147 -27,50 -63,124 -80,165 -30,69 -32,79 -32,200 1,100 5,144 22,205 34,122 60,226 60,246 0,9 5,17 10,17 6,0 10,-18 10,-39 z M 990,5550 c 4,32 19,-26 19,-77 1,-78 -15,-64 -28,22 -12,84 -13,116 -1,70 4,-16 8,-23 10,-15 z m 444,-52 c -3,-5 -1,-8 3,-8 5,0 14,-19 20,-42 9,-32 9,-46 0,-57 -10,-12 -9,-13 1,-7 10,6 12,-4 10,-48 -3,-34 0,-56 7,-56 5,-1 -2,-8 -17,-16 -16,-8 -28,-17 -28,-20 0,-2 9,0 19,6 11,5 22,10 24,10 8,0 1,-313 -8,-355 -8,-37 -10,-31 -32,90 -30,169 -40,329 -22,352 8,9 9,14 3,10 -8,-4 -13,5 -16,28 -3,28 1,39 19,52 13,10 23,22 23,27 0,5 -9,1 -20,-9 -19,-18 -20,-17 -20,1 0,11 8,31 17,44 16,23 16,24 0,11 -9,-7 -22,-32 -29,-55 l -13,-41 -3,43 c -3,35 2,51 25,80 l 27,36 7,-34 c 4,-19 5,-38 3,-42 z m 218,29 c 66,-41 115,-63 198,-86 l 65,-18 3,-39 c 2,-29 -3,-48 -18,-66 l -20,-26 -62,24 c -88,34 -98,46 -75,87 17,32 17,32 -2,9 -11,-12 -21,-27 -23,-33 -3,-8 -14,-7 -35,4 -20,11 -39,34 -56,71 -28,59 -43,106 -33,106 3,0 29,-15 58,-33 z m -298,-64 -1,-58 -61,-36 c -68,-40 -162,-74 -172,-62 -4,5 -15,30 -25,56 -21,54 -15,66 33,70 18,1 32,6 32,10 0,5 4,6 9,3 14,-9 42,5 35,16 -4,6 1,8 12,4 11,-3 26,-1 34,5 13,9 12,10 -3,5 -11,-3 -16,-2 -12,4 3,6 16,8 28,5 13,-3 34,3 52,15 17,11 32,20 35,20 3,0 4,-26 4,-57 z m 262,-102 3,-84 -32,29 c -31,28 -31,28 2,-9 33,-34 33,-53 1,-24 -8,6 -7,3 3,-9 18,-22 21,-44 11,-82 -6,-22 -7,-22 -28,-5 -17,15 -17,13 3,-9 12,-15 20,-31 16,-37 -7,-13 -16,-50 -17,-71 0,-8 -8,-49 -19,-90 -10,-41 -20,-84 -22,-95 -5,-20 -10,47 -11,137 -1,43 1,47 19,42 18,-4 18,-4 3,6 -15,9 -18,26 -18,100 0,78 17,226 27,240 2,2 15,-9 29,-25 l 26,-30 -20,30 c -16,24 -19,41 -14,85 l 5,55 15,-35 c 8,-19 16,-73 18,-119 z m -203,-351 c 33,-160 42,-240 29,-240 -27,0 -124,45 -133,62 -5,10 -12,42 -15,71 -4,33 -17,70 -36,102 -17,28 -31,62 -32,76 -1,15 -5,25 -11,23 -5,-2 -18,10 -28,28 -18,32 -18,32 5,51 13,10 59,36 103,57 l 80,38 6,-72 c 4,-39 18,-127 32,-196 z m 334,206 c 95,-47 95,-53 16,-226 -35,-74 -63,-143 -63,-153 0,-10 -6,-19 -12,-21 -7,-2 -33,-8 -58,-14 -25,-6 -53,-14 -62,-17 -16,-6 -18,-1 -18,43 0,27 9,79 20,114 25,83 60,251 60,292 0,41 9,50 29,32 9,-8 48,-30 88,-50 z m 189,-66 c -14,-43 -112,-245 -212,-438 -20,-39 -34,-75 -30,-79 4,-4 9,3 13,15 3,12 9,22 13,22 5,0 12,10 16,23 4,12 23,45 43,74 44,64 78,78 165,69 42,-5 56,-3 46,3 -25,17 -95,23 -135,12 -22,-6 -40,-9 -41,-8 -1,1 24,57 56,124 32,67 62,132 67,145 6,18 9,7 14,-47 8,-86 8,-86 48,-164 26,-51 30,-66 19,-73 -10,-8 -10,-9 3,-5 30,10 100,-130 113,-228 4,-27 16,-95 26,-150 25,-132 38,-232 51,-401 6,-76 13,-166 16,-199 4,-60 -11,-148 -56,-311 -11,-39 -27,-118 -36,-175 -9,-57 -27,-158 -41,-224 -77,-374 -84,-427 -84,-623 0,-187 11,-291 46,-442 12,-51 17,-115 17,-200 -1,-112 -5,-141 -40,-280 -42,-163 -122,-431 -131,-440 -2,-3 -2,7 2,22 8,33 63,353 82,473 18,116 17,337 -1,491 -8,67 -15,125 -17,130 -1,5 4,36 11,70 11,51 11,69 -1,115 -14,55 -9,248 7,314 4,17 5,27 1,24 -10,-10 -35,-155 -37,-214 l -1,-50 -19,60 c -15,46 -20,88 -20,176 0,64 4,125 7,135 6,16 5,17 -7,6 -9,-8 -14,-49 -17,-135 -4,-113 -2,-127 23,-192 54,-142 59,-163 46,-221 l -12,-53 -30,11 c -30,10 -87,7 -121,-7 -16,-6 -18,0 -18,58 0,35 5,88 10,118 6,29 14,89 20,133 5,45 18,142 30,216 11,74 25,162 30,195 92,608 96,627 152,706 70,98 127,219 145,306 20,100 7,245 -37,393 -43,144 -97,224 -165,243 -11,4 -2,4 20,1 32,-3 36,-2 22,6 -43,27 -251,-13 -318,-61 -15,-10 -30,-19 -34,-19 -44,0 153,474 258,620 l 32,46 3,-34 c 2,-19 -4,-56 -12,-82 z M 855,5104 c -7,-49 -48,-170 -134,-394 -29,-74 -65,-178 -81,-230 -16,-52 -29,-89 -29,-81 -1,24 30,132 60,209 16,41 28,76 26,79 -8,7 -78,-188 -97,-273 -15,-64 -17,-90 -9,-102 10,-16 10,-16 5,0 -2,9 -1,29 4,45 l 8,28 1,-30 c 0,-16 -2,-47 -5,-67 -6,-33 -10,-38 -34,-38 h -27 l 23,121 c 41,215 109,408 170,484 18,22 35,54 39,70 4,17 17,55 30,85 13,30 27,74 31,98 4,23 11,42 16,42 6,0 8,-18 3,-46 z M 750,4926 c -11,-26 -30,-61 -44,-79 -13,-18 -33,-50 -44,-72 -24,-50 -77,-230 -98,-339 -8,-44 -20,-104 -25,-133 -6,-30 -16,-54 -26,-57 -13,-5 -14,-1 -9,26 4,18 18,105 31,193 24,163 86,428 111,477 13,25 18,27 58,22 28,-4 46,-2 51,5 17,28 14,0 -5,-43 z m 1639,-78 v -43 l -17,33 c -14,29 -14,34 -2,42 8,6 16,10 18,10 1,0 2,-19 1,-42 z m -927,-94 c 51,-5 77,-1 137,20 41,14 76,24 79,21 2,-2 -3,-22 -11,-43 -9,-22 -23,-68 -32,-103 -9,-35 -33,-88 -52,-117 -19,-30 -42,-72 -51,-93 -8,-21 -18,-39 -21,-39 -4,0 -14,21 -23,48 -10,26 -33,64 -52,84 -19,21 -37,48 -41,60 -10,35 -56,150 -71,180 l -14,27 45,-20 c 24,-11 73,-22 107,-25 z m -228,-107 c 93,-43 162,-94 200,-150 53,-78 67,-145 66,-327 0,-85 0,-166 0,-178 0,-30 -38,-84 -52,-76 -7,4 -8,2 -4,-4 9,-15 -33,-54 -82,-78 -53,-26 -202,-31 -279,-9 -80,23 -139,59 -168,103 -40,61 -69,184 -69,292 0,108 21,178 94,311 49,89 74,116 126,135 50,18 98,13 168,-19 z m 752,-6 c 129,-78 218,-511 137,-664 -9,-18 -18,-38 -19,-46 -4,-24 -54,-68 -111,-96 -53,-27 -58,-28 -112,-17 -68,14 -94,15 -66,1 14,-7 6,-8 -30,-4 -66,7 -167,57 -204,102 -45,54 -55,108 -56,288 0,133 3,168 18,205 42,101 150,204 248,235 66,21 158,19 195,-4 z m 435,-574 c -13,-13 -15,41 -3,70 5,13 8,8 10,-21 2,-21 -1,-43 -7,-49 z M 590,3965 c -8,-23 -45,-45 -77,-45 -33,0 -29,14 19,65 42,44 43,44 54,23 7,-12 9,-31 4,-43 z m 943,-39 c 15,-22 14,-27 -4,-62 -10,-21 -19,-56 -19,-78 0,-53 -9,-41 -25,36 -10,50 -10,66 -1,78 7,8 16,23 19,33 8,22 12,22 30,-7 z m -943,-32 c 0,-13 -7,-15 -32,-10 -25,4 -29,3 -18,-4 12,-8 8,-10 -14,-8 -42,4 -44,26 -4,31 64,8 68,7 68,-9 z m 1107,-85 c 47,-19 77,-23 158,-23 103,0 129,7 204,61 15,11 2,-16 -42,-83 -73,-112 -77,-125 -138,-514 -17,-107 -44,-278 -60,-380 -63,-392 -71,-454 -65,-525 4,-59 2,-74 -14,-95 -26,-34 -25,-54 14,-211 32,-131 64,-220 49,-139 -3,19 -12,58 -19,85 -8,28 -22,85 -31,127 -16,72 -16,80 0,112 21,44 55,67 111,73 35,4 48,1 65,-16 25,-25 28,-98 7,-181 -12,-49 -21,-98 -41,-225 -4,-22 -9,-89 -11,-150 -6,-150 -28,-281 -64,-373 -39,-103 -65,-202 -91,-352 -12,-69 -25,-127 -29,-130 -4,-3 -11,-23 -17,-45 -6,-22 -14,-49 -18,-60 -7,-20 -6,-20 9,-1 9,11 19,35 22,55 6,30 8,32 15,16 6,-17 8,-15 8,10 1,17 16,104 35,195 24,121 44,190 75,260 34,78 41,88 37,55 -3,-22 -8,-69 -11,-105 -4,-36 -20,-122 -36,-191 -16,-70 -29,-136 -29,-148 0,-11 -5,-20 -12,-19 -13,3 -26,-34 -26,-77 0,-23 3,-19 13,20 15,57 19,31 5,-30 -5,-22 -5,-44 -1,-48 5,-5 12,13 15,40 4,26 25,131 47,233 37,177 47,262 69,585 26,380 42,497 64,475 13,-14 11,-287 -5,-435 -20,-196 -53,-411 -94,-605 -43,-208 -50,-264 -37,-319 6,-28 9,-57 6,-65 -3,-8 -1,-17 5,-21 15,-9 14,-59 -3,-100 -14,-33 -13,-35 19,-78 18,-24 45,-51 59,-60 40,-27 50,-54 31,-83 -20,-31 -52,-30 -91,4 -44,39 -57,96 -50,211 4,60 3,102 -3,111 -6,8 -11,11 -11,6 0,-6 -7,-1 -16,10 -15,19 -16,19 -9,-1 17,-47 17,-104 1,-136 -9,-17 -16,-42 -15,-53 0,-31 23,-91 32,-88 13,4 53,-80 49,-100 -6,-24 -63,-58 -96,-58 -29,0 -66,16 -78,34 -13,19 -9,115 7,153 19,44 19,90 0,123 -22,39 -19,123 5,145 29,26 80,24 119,-5 32,-22 33,-22 22,-2 -30,56 -94,67 -141,25 -28,-25 -62,-112 -39,-97 5,3 9,-10 9,-29 0,-19 7,-51 15,-71 21,-50 5,-45 -23,7 -27,51 -28,97 -3,169 19,54 44,251 56,438 5,78 16,123 61,256 50,150 54,168 53,250 -1,49 -4,100 -8,114 -4,14 -7,-31 -7,-100 0,-125 0,-125 -46,-245 -25,-66 -50,-138 -54,-160 -6,-35 -11,-20 -35,125 -40,229 -40,330 1,540 17,91 33,166 35,168 1,2 12,-26 23,-62 11,-36 38,-96 60,-133 78,-129 93,-280 46,-453 -38,-137 -38,-147 -2,-45 30,85 32,99 33,230 0,151 0,149 -66,290 -21,44 -50,123 -64,175 -15,52 -38,129 -52,170 -23,69 -25,84 -20,200 10,217 15,284 22,315 5,21 4,27 -3,20 -14,-13 -32,-158 -34,-279 -2,-162 -20,-94 -29,111 -10,236 -25,454 -41,603 -18,163 -17,582 1,637 l 14,42 33,-28 c 18,-16 59,-39 91,-52 z m -1097,42 c 5,-11 10,-22 10,-25 0,-6 -67,4 -95,14 -17,7 -15,9 15,18 51,15 58,14 70,-7 z m -22,-67 c 2,-1 5,-10 6,-20 2,-10 9,-20 16,-22 8,-3 10,0 5,8 -5,9 -4,11 4,6 6,-4 9,-12 6,-17 -4,-5 3,-9 13,-9 11,0 30,-9 43,-20 l 24,-21 -35,7 c -47,8 -85,33 -115,74 -40,54 -33,57 33,14 z m 26,26 c 13,0 61,-59 54,-66 -3,-2 -15,6 -28,19 -13,12 -35,30 -49,41 -16,11 -19,16 -8,12 10,-3 24,-6 31,-6 z m 1720,-104 c -1,-44 -6,-62 -24,-81 -30,-32 -42,-23 -24,20 8,19 14,52 14,73 0,41 7,55 24,49 6,-2 10,-29 10,-61 z M 1389,643 c 19,-17 20,-22 11,-73 -19,-99 -23,-171 -11,-183 9,-9 10,-2 5,29 -4,29 -2,44 6,49 8,5 11,4 6,-3 -3,-6 -2,-13 3,-16 5,-3 12,-27 16,-53 4,-26 13,-60 21,-75 26,-50 -11,-88 -84,-88 -32,0 -48,8 -85,41 l -46,40 25,39 c 14,21 31,58 39,83 12,39 11,48 -6,87 -22,49 -23,69 -8,104 18,38 73,47 108,19 z m 398,-215 c -2,-18 -4,-6 -4,27 0,33 2,48 4,33 2,-15 2,-42 0,-60 z"
       id="path1" />
    <path
       d="m 1524,7495 c -4,-8 -10,-15 -16,-15 -5,0 -6,5 -3,10 7,11 -23,9 -42,-3 -7,-5 -13,-5 -13,0 0,17 -20,-23 -20,-41 0,-14 5,-17 23,-11 12,3 30,8 41,9 15,2 55,66 40,66 -2,0 -7,-7 -10,-15 z"
       id="path2" />
    <path
       d="m 1445,7363 c -4,-16 -7,-64 -8,-108 v -80 l -7,70 -6,70 -1,-80 c -1,-91 10,-188 20,-165 5,12 15,320 11,320 -1,0 -5,-12 -9,-27 z"
       id="path3" />
    <path
       d="m 1514,7180 c -1,-96 2,-164 6,-150 10,31 11,207 2,275 -4,30 -7,-19 -8,-125 z"
       id="path4" />
    <path
       d="m 1312,7391 c -12,-21 -22,-49 -22,-62 1,-16 9,-4 25,35 29,70 28,82 -3,27 z"
       id="path5" />
    <path
       d="m 1320,7245 c -1,-52 -4,-63 -10,-45 -6,20 -8,21 -8,5 -1,-26 16,-66 18,-45 1,8 8,-3 15,-25 l 14,-40 -6,50 c -3,28 -9,77 -13,110 l -7,60 z"
       id="path6" />
    <path
       d="m 885,5890 c -10,-30 -35,-90 -57,-134 -22,-43 -37,-80 -34,-83 5,-5 24,28 67,117 33,69 52,126 46,143 -2,6 -12,-13 -22,-43 z"
       id="path7" />
    <path
       d="m 815,3960 c 11,-187 54,-429 92,-513 14,-31 28,-55 31,-53 2,3 -8,40 -22,82 -29,84 -70,273 -61,282 3,3 5,-1 5,-8 0,-17 91,-163 97,-156 3,2 -2,15 -11,28 -9,12 -16,31 -16,41 0,10 -4,16 -9,12 -5,-3 -13,0 -17,6 -4,7 -3,9 4,5 5,-3 12,-1 14,6 2,6 15,-5 27,-26 13,-20 25,-35 28,-32 2,2 -8,23 -23,46 -18,27 -30,37 -35,29 -5,-8 -13,0 -23,24 -9,20 -23,54 -32,74 -9,21 -25,83 -35,138 l -19,100 z"
       id="path8" />
    <path
       d="m 1336,1494 c 13,-53 33,-108 33,-96 1,18 -29,122 -35,122 -2,0 -1,-12 2,-26 z"
       id="path9" />
    <path
       d="m 1968,6223 c 17,-2 47,-2 65,0 17,2 3,4 -33,4 -36,0 -50,-2 -32,-4 z"
       id="path10" />
    <path
       d="m 1872,6175 c -69,-14 -81,-19 -57,-29 9,-3 13,-2 10,4 -4,6 6,10 22,11 33,1 137,27 108,27 -11,0 -48,-6 -83,-13 z"
       id="path11" />
    <path
       d="m 1958,4766 c 30,-8 55,-16 57,-18 2,-2 -27,-2 -65,0 -37,2 -75,0 -84,-5 -10,-5 9,-7 52,-5 46,3 78,-1 102,-11 l 35,-16 -35,5 c -34,4 -34,4 -6,-5 31,-11 72,-49 62,-58 -4,-4 -12,-1 -18,5 -7,7 -17,12 -22,12 -6,0 6,-11 26,-25 20,-14 38,-30 41,-37 2,-7 2,1 -1,17 -6,45 -51,121 -77,133 -12,6 -44,13 -71,16 l -49,5 z"
       id="path12" />
    <path
       d="m 2191,3876 c -15,-77 -74,-202 -127,-271 -18,-25 -30,-45 -25,-45 5,0 18,11 29,25 11,14 25,25 31,25 6,0 11,4 11,10 0,5 9,24 20,42 l 19,32 -2,-57 c -1,-31 -5,-57 -9,-57 -4,0 -5,-6 -2,-13 2,-7 -9,-74 -25,-148 -31,-136 -51,-263 -31,-189 51,188 131,599 128,659 l -3,56 z"
       id="path13" />
    <path
       d="m 976,4113 c 7,-54 32,-153 39,-153 3,0 3,12 -1,28 -3,16 4,7 19,-23 14,-27 44,-68 68,-90 l 43,-40 -37,42 c -45,52 -66,94 -102,201 -15,45 -29,82 -31,82 -2,0 -1,-21 2,-47 z"
       id="path14" />
    <path
       d="m 2081,4153 c -1,-11 -48,-92 -88,-153 l -17,-25 25,22 c 36,32 91,129 86,150 -3,10 -5,13 -6,6 z"
       id="path15" />
    <path
       d="m 1913,3867 c -29,-17 -51,-32 -49,-34 4,-5 95,47 101,58 8,12 8,12 -52,-24 z"
       id="path16" />
    <path
       d="m 1703,3868 c 11,-10 32,-18 48,-18 16,0 29,-4 29,-9 0,-5 10,-7 22,-3 17,4 11,9 -32,23 -30,10 -57,16 -59,13 -2,-2 -9,0 -16,4 -6,4 -2,-1 8,-10 z"
       id="path17" />
    <path
       d="m 1585,3757 c -4,-30 -5,-63 -3,-73 2,-11 8,12 12,49 4,38 5,71 3,74 -3,2 -8,-20 -12,-50 z"
       id="path18" />
    <path
       d="m 1578,3588 c -3,-15 -1,-33 3,-40 5,-7 9,-23 9,-35 0,-13 5,-23 11,-23 6,0 8,8 4,19 -3,10 -9,39 -13,62 -7,39 -9,41 -14,17 z"
       id="path19" />
    <path
       d="m 2451,4965 c -1,-16 6,-104 14,-195 10,-107 15,-243 13,-385 l -3,-220 -17,100 c -9,55 -30,145 -47,200 -35,120 -113,336 -119,330 -2,-2 4,-27 13,-55 9,-28 14,-58 11,-66 -3,-8 -2,-12 3,-9 9,5 55,-125 64,-180 15,-83 32,-143 40,-138 6,3 7,1 3,-5 -4,-7 2,-42 13,-79 10,-38 22,-90 26,-118 9,-71 16,-95 26,-95 5,0 4,12 -1,26 -16,40 -11,63 5,29 l 15,-30 -5,30 c -5,34 -8,255 -6,478 1,96 -3,156 -11,170 -6,12 -10,22 -9,22 6,0 -12,181 -20,200 -6,17 -8,15 -8,-10 z"
       id="path20" />
    <path
       d="m 2231,4880 c -1,-8 8,-44 18,-80 11,-36 20,-60 20,-53 1,6 4,20 8,30 3,10 2,14 -3,10 -5,-5 -16,18 -25,50 -10,32 -18,51 -18,43 z"
       id="path21" />
    <path
       d="m 2291,4668 c -1,-4 7,-29 18,-55 10,-26 29,-85 41,-131 12,-46 24,-81 27,-78 7,7 -38,166 -63,221 -13,28 -23,47 -23,43 z"
       id="path22" />
  </g>
  <path
     style="fill:none"
     d="m 162.35254,199.75312 c 11.14256,-2.58276 22.28513,-5.16551 33.42769,-7.74827 10.32587,-0.61776 19.80352,-0.3873 25.88829,3.23604 7.86124,3.82605 12.04686,8.78307 15.10151,14.02282 2.85194,7.01141 5.1384,14.02283 4.31471,21.03424 -3.28671,5.83138 -7.42165,10.24906 -12.4048,12.40481 -7.73053,1.25846 -15.46107,2.51692 -23.1916,3.77538 -13.79237,0.54094 -25.88829,-0.33182 -38.83244,-4.31472 -4.85406,-1.10321 -9.99085,-2.77191 -14.56217,-7.55075 0,-7.91031 0,-15.82063 0,-23.73094 3.4196,-3.70954 6.83921,-7.41907 10.25881,-11.12861 z"
     id="femaleRightGlute"
     sodipodi:nodetypes="ccccccccccc"
     inkscape:label="femaleRightGlute" />
  <path
     style="fill:none"
     d="m 150.00991,229.10605 c 0.27325,-6.53048 0,-13.33421 0,-20.00132 -3.93965,-3.18203 -7.87931,-6.36406 -11.81896,-9.54609 -13.48574,-4.32359 -26.48224,-7.17946 -40.457218,-9.54608 -8.787152,1.16598 -13.334215,2.49504 -20.001322,5.4549 -7.540285,5.42024 -13.612847,10.6774 -17.728444,17.72845 -1.456168,4.73194 -1.444613,9.30081 -0.454576,12.72811 2.215101,6.33964 5.734846,10.55924 9.09151,13.63727 8.92843,4.07831 18.18302,5.8735 27.27453,6.36405 9.98911,1.13001 20.30437,1.77078 30.45656,0.45458 6.52714,-0.80515 12.89119,-2.26263 19.09217,-6.81863 4.38438,-0.61595 6.44613,-6.15041 4.54575,-10.45524 z"
     id="femaleLeftGlute"
     sodipodi:nodetypes="cccccccccccc"
     inkscape:label="femaleLeftGlute" />
  <path
     style="fill:none"
     d="m 27.998295,155.74052 c 2.770665,2.91649 5.541329,5.83297 8.311994,8.74946 6.416276,2.92674 13.111876,3.61889 19.248828,-0.43747 8.468071,-8.48247 12.18763,-17.24426 16.186514,-27.12335 2.793242,-7.30355 1.675945,-15.16574 0,-22.74861 -0.499097,-3.49979 -2.394815,-7.2789 -5.687154,-10.49936 -10.595886,1.69034 -18.957179,6.17392 -28.435768,10.93683 -2.479016,5.10386 -4.958031,10.20771 -7.437047,15.31157 -0.729122,8.60364 -1.458245,17.20729 -2.187367,25.81093 z"
     id="femaleLeftTricep"
     sodipodi:nodetypes="ccccccccc"
     inkscape:label="femaleLeftTricep" />
  <path
     style="fill:none"
     d="m 244.71508,159.51798 c 2.41694,3.8671 4.83388,7.7342 7.25082,11.6013 4.10879,2.12394 8.21759,2.42423 12.32638,1.81271 3.83963,-1.14258 7.67925,-3.34895 10.15115,-6.1632 2.5176,-2.71723 2.75564,-6.04235 2.53778,-9.06352 -6.13465,-9.50504 -2.68337,-22.13592 -6.52573,-32.26613 -2.70733,-8.24164 -9.81873,-15.37781 -19.21467,-21.02737 -5.83087,-0.12091 -12.47749,1.38966 -16.67688,6.16319 -3.23271,5.64959 -4.56203,11.57109 -3.98795,17.7645 3.51615,11.75241 9.81496,22.68907 14.1391,31.17852 z"
     id="femaleRightTricep"
     sodipodi:nodetypes="cccccccccc"
     inkscape:label="femaleRightTricep" />
  <path
     style="fill:none"
     d="m 146.24011,245.82994 c -14.25542,3.68932 -30.35429,6.45692 -45.53144,5.53761 -15.792427,0.25335 -31.584859,-4.10193 -47.377291,-6.1529 5.650965,20.78487 11.30193,34.95094 21.535134,48.60788 7.300935,8.11507 13.720205,15.64236 16.612818,25.22687 0.820386,4.10193 1.640772,8.20386 2.461158,12.30579 18.957671,6.02158 37.621451,7.34095 55.991351,3.07645 -0.46522,-13.12618 -1.8121,-25.95846 -4.92231,-39.37853 2.46115,-10.04973 4.92231,-20.09946 7.38347,-30.14919 -2.05097,-6.35799 -4.10193,-12.71599 -6.15289,-19.07398 z"
     id="femaleLeftHamstring"
     sodipodi:nodetypes="cccccccccc"
     inkscape:label="femaleLeftHamstring" />
  <path
     style="fill:none"
     d="m 156.30526,242.34952 c 11.37074,2.37598 22.74148,4.75195 34.11222,7.12793 13.8646,-0.0389 25.7704,-0.0778 37.67619,-3.05483 7.63706,-1.18799 15.27413,-2.37597 22.91119,-3.56396 -10.01304,28.00257 -23.29076,55.67867 -30.03912,84.00771 -19.02076,6.41147 -38.36799,5.96712 -58.04169,3.56396 -2.54569,-18.66838 -5.09138,-37.33676 -7.63707,-56.00514 0.33943,-10.69189 0.67885,-21.38378 1.01828,-32.07567 z"
     id="femaleRightHamstring"
     sodipodi:nodetypes="cccccccc"
     inkscape:label="femaleRightHamstring" />
  <path
     style="fill:none"
     d="m 172.01262,356.47353 c 3.77221,-4.33804 7.54441,-8.67608 11.31662,-13.01412 7.97564,-3.50245 17.13668,-5.81951 26.59406,-3.39498 5.4697,3.77221 10.9394,7.54441 16.4091,11.31662 3.28698,7.3558 4.49951,14.71161 4.52665,22.06741 -7.40981,14.0109 -16.59771,25.651 -24.89657,38.4765 -10.9394,1.83183 -21.8788,1.29287 -32.8182,-3.39498 -3.20637,-9.24191 -6.41275,-18.48381 -9.61912,-27.72572 2.82915,-8.11024 5.65831,-16.22049 8.48746,-24.33073 z"
     id="femaleRightRearCalf"
     sodipodi:nodetypes="ccccccccc"
     inkscape:label="femaleRightRearCalf" />
  <path
     style="fill:none"
     d="m 140.38897,359.29335 c -4.26714,-4.40938 -8.53429,-8.81876 -12.80143,-13.22814 -4.70724,-3.12254 -11.67244,-4.83386 -19.20213,-6.82742 -8.09865,2.00472 -15.350562,5.13841 -20.909,11.09457 -2.120189,9.09654 -2.546903,17.6286 -1.280142,24.74942 4.700547,13.21476 11.094568,23.04257 16.641852,34.56385 3.98713,5.52498 8.82099,7.09852 13.65486,8.10757 7.39638,0.55334 15.35724,-0.0223 22.18913,-4.26714 2.27581,-8.961 4.55162,-17.922 6.82743,-26.883 2.24458,-8.82099 2.2312,-18.20647 -5.12057,-27.30971 z"
     id="femaleLeftRearCalf"
     sodipodi:nodetypes="cccccccccc"
     inkscape:label="femaleLeftRearCalf" />
  <path
     style="fill:none"
     d="M 32.259064,117.05432 C 41.328391,109.55147 49.19307,103.8556 60.370533,98.159722 74.945719,94.202144 87.111607,92.955027 101.38563,91.707909 92.746811,86.970125 82.301018,83.135827 70.048252,81.108503 61.59945,79.909921 53.752972,80.518312 44.701845,82.03019 35.11513,86.951924 31.852822,92.475982 29.494001,97.698878 c 0.921688,6.451812 1.843375,12.903632 2.765063,19.355442 z"
     id="femaleLeftRearDeltoid"
     sodipodi:nodetypes="ccccccc"
     inkscape:label="femaleLeftRearDeltoid" />
  <path
     style="fill:none"
     d="m 239.48923,97.41506 c 14.34857,7.14875 24.67717,15.05124 31.73954,25.96872 0.60113,-8.05512 1.20225,-16.11023 1.80338,-24.165337 -2.93006,-5.541171 -7.61885,-11.082342 -14.06639,-15.869768 -6.73263,-1.082029 -13.46525,-2.164059 -20.19788,-3.246089 -14.88492,2.110072 -25.24736,5.225138 -37.87104,10.098943 14.12037,1.399517 26.48201,3.804027 38.59239,7.213531 z"
     id="femaleRightRearDeltoid"
     sodipodi:nodetypes="ccccccc"
     inkscape:label="femaleRightRearDeltoid" />
  <path
     style="fill:none"
     d="m 77.079418,76.359049 c 22.091297,1.200614 44.182592,2.401228 66.273892,3.601842 27.61412,-0.480246 55.22824,-0.960491 82.84236,-1.440737 -17.21671,-2.353736 -34.02531,-7.156192 -50.42578,-14.407367 -19.20982,0 -38.41965,0 -57.62947,0 -12.46264,10.203886 -26.149642,10.612894 -41.061002,12.246262 z"
     id="femaleRearUpperTraps"
     sodipodi:nodetypes="cccccc"
     inkscape:label="femaleRearUpperTraps" />
  <path
     style="fill:none"
     d="m 71.274713,99.373397 c 24.672016,-5.711115 49.344027,-11.422229 74.016047,-17.133344 0.91378,17.590232 1.82756,35.180467 2.74134,52.770697 -5.71112,5.93956 -11.42223,11.87912 -17.13335,17.81868 -2.28445,10.05156 -4.56889,20.10313 -6.85334,30.15469 -15.07734,-0.47934 -30.154684,-4.06597 -45.232026,-9.59468 2.741335,-3.88356 5.48267,-7.76711 8.224005,-11.65067 -3.883558,-7.76712 -7.767116,-15.53423 -11.650674,-23.30135 -1.370667,-13.02134 -2.741335,-26.04268 -4.112002,-39.064023 z"
     id="path24"
     sodipodi:nodetypes="ccccccccc" />
  <path
     style="fill:none"
     d="M 232.76774,97.863059 C 205.7868,92.98515 178.80587,88.10724 151.82493,83.229331 c 1.21948,16.462943 2.43895,32.925889 3.65843,49.388829 3.81087,8.84121 7.62174,17.68243 11.43261,26.52364 0.15243,12.34721 0.30487,24.69441 0.4573,37.04162 17.22512,-9.75582 33.53563,-14.02399 51.67535,-18.29216 -2.59139,-5.64008 -5.18278,-11.28017 -7.77417,-16.92025 4.26817,-9.14608 8.53635,-18.29216 12.80452,-27.43824 2.89626,-11.8899 5.79251,-23.77981 8.68877,-35.669711 z"
     id="femaleRightLowerTrap"
     sodipodi:nodetypes="ccccccccc"
     inkscape:label="femaleRightLowerTrap" />
  <path
     style="fill:none"
     d="m 134.67352,196.35965 c -0.31392,-14.44052 -0.62785,-28.88103 -0.94177,-43.32155 4.86583,-7.22026 9.73165,-14.44052 14.59748,-21.66078 6.27849,6.27849 12.55697,12.55697 18.83546,18.83546 0.15696,15.22533 0.31393,30.45065 0.47089,45.67598 -10.04558,5.8076 -21.97471,5.96456 -32.96206,0.47089 z"
     id="path25"
     sodipodi:nodetypes="cccccc" />
</svg>
