<?xml version="1.0" encoding="UTF-8" standalone="no"?>
<svg
   version="1.0"
   width="300px"
   height="470px"
   viewBox="0 0 300 470"
   preserveAspectRatio="xMidYMid meet"
   id="svg51"
   sodipodi:docname="MaleFrontMusclesOG.svg"
   inkscape:version="1.4 (e7c3feb1, 2024-10-09)"
   xmlns:inkscape="http://www.inkscape.org/namespaces/inkscape"
   xmlns:sodipodi="http://sodipodi.sourceforge.net/DTD/sodipodi-0.dtd"
   xmlns="http://www.w3.org/2000/svg"
   xmlns:svg="http://www.w3.org/2000/svg">
  <defs
     id="defs51" />
  <sodipodi:namedview
     id="namedview51"
     pagecolor="#ffffff"
     bordercolor="#000000"
     borderopacity="0.25"
     inkscape:showpageshadow="2"
     inkscape:pageopacity="0.0"
     inkscape:pagecheckerboard="0"
     inkscape:deskcolor="#d1d1d1"
     inkscape:zoom="1.0132842"
     inkscape:cx="155.92862"
     inkscape:cy="244.25528"
     inkscape:window-width="1104"
     inkscape:window-height="660"
     inkscape:window-x="87"
     inkscape:window-y="383"
     inkscape:window-maximized="0"
     inkscape:current-layer="svg51"
     showgrid="true">
    <inkscape:grid
       id="grid55"
       units="px"
       originx="0"
       originy="0"
       spacingx="1"
       spacingy="1"
       empcolor="#0099e5"
       empopacity="0.30196078"
       color="#0099e5"
       opacity="0.14901961"
       empspacing="5"
       enabled="true"
       visible="true" />
  </sodipodi:namedview>
  <metadata
     id="metadata1">
Created by potrace 1.10, written by Peter Selinger 2001-2011
</metadata>
  <g
     fill="#000000"
     stroke="none"
     id="g51"
     transform="matrix(0.11106184,0,0,-0.08075981,-9.6530081,475.67528)">
    <path
       d="m 1361,5871 c -69,-24 -100,-48 -135,-104 -23,-38 -29,-60 -33,-130 -5,-70 -8,-84 -22,-83 -40,3 -3,-174 42,-201 38,-23 62,-237 32,-280 -9,-12 -67,-54 -129,-92 -93,-58 -121,-71 -155,-71 -86,0 -200,-88 -245,-190 -34,-75 -43,-174 -23,-248 13,-50 13,-56 -8,-110 -13,-31 -35,-115 -50,-187 -25,-121 -32,-137 -90,-235 -61,-101 -65,-112 -100,-268 -39,-176 -96,-357 -139,-437 -19,-36 -43,-61 -86,-90 -38,-25 -62,-49 -66,-65 -4,-14 -14,-36 -22,-50 -15,-23 -39,-79 -45,-105 -1,-5 7,-10 18,-10 13,0 37,23 67,63 49,65 66,60 29,-8 -28,-53 -82,-230 -79,-258 4,-38 26,-38 42,0 8,18 29,68 47,110 18,43 34,77 35,75 2,-1 -7,-56 -19,-120 -22,-120 -19,-152 14,-152 14,0 19,15 45,148 20,99 41,132 30,46 -10,-78 -9,-170 1,-180 21,-21 34,14 48,121 9,63 17,116 19,118 3,2 8,-33 12,-77 11,-132 44,-121 44,15 0,44 8,118 19,165 10,47 16,98 14,115 -6,42 56,173 167,349 97,155 125,212 135,272 4,21 13,56 20,78 8,22 19,68 24,102 5,34 21,79 35,102 33,51 72,139 81,181 7,31 8,30 32,-37 39,-108 42,-120 53,-224 9,-83 8,-115 -5,-192 -9,-50 -20,-126 -25,-167 -4,-41 -21,-127 -38,-190 -16,-63 -40,-193 -53,-288 l -23,-174 17,-257 c 18,-269 34,-392 66,-514 26,-95 38,-193 46,-357 5,-116 3,-150 -15,-240 -30,-147 -24,-308 18,-475 58,-233 74,-351 70,-530 l -4,-162 -37,-66 c -21,-36 -48,-79 -61,-94 -33,-39 -58,-92 -50,-104 3,-6 17,-9 30,-6 13,2 24,1 24,-3 0,-12 73,-18 87,-8 7,6 14,5 18,-2 4,-7 19,-9 35,-5 16,3 31,2 35,-4 11,-19 59,-12 98,15 31,21 38,31 35,53 -1,17 5,35 16,46 14,14 16,28 12,59 -16,114 -17,146 -7,179 10,29 9,44 -8,94 -33,98 -36,189 -12,358 12,83 34,193 48,245 32,114 36,270 9,388 -20,92 -20,160 0,254 9,45 19,169 24,328 7,190 15,281 30,355 14,68 23,159 27,283 5,158 8,182 22,182 14,0 16,-18 18,-133 1,-72 9,-168 17,-212 58,-303 66,-363 66,-490 0,-127 13,-237 45,-383 13,-62 14,-90 4,-183 -14,-130 -7,-282 15,-359 70,-242 95,-494 60,-610 -12,-40 -14,-73 -9,-136 5,-56 3,-99 -6,-133 -12,-48 -11,-53 10,-81 12,-17 19,-35 16,-40 -22,-35 57,-96 109,-85 17,3 56,7 86,9 30,1 60,4 65,6 6,1 17,2 27,1 9,-1 19,2 22,8 3,5 15,7 26,4 26,-7 35,18 19,49 -7,13 -27,41 -46,63 -49,57 -93,151 -93,198 0,22 -5,79 -12,127 -13,104 4,274 55,515 40,193 42,350 8,494 -33,144 -40,451 -12,576 27,119 38,223 56,502 15,231 11,350 -14,465 -5,24 -15,81 -21,128 -6,47 -22,135 -35,195 -40,180 -65,328 -65,391 0,83 25,203 59,283 16,37 32,83 36,101 7,34 8,33 35,-41 15,-40 43,-106 63,-145 23,-43 37,-84 37,-107 0,-20 6,-54 14,-74 8,-21 17,-56 21,-78 13,-76 43,-142 132,-291 109,-179 133,-226 133,-256 0,-13 7,-34 16,-46 13,-19 13,-28 3,-57 -11,-28 -10,-47 4,-112 9,-43 17,-117 17,-163 0,-47 4,-91 9,-99 14,-22 31,-3 31,37 0,93 29,159 31,70 1,-85 23,-193 39,-193 12,0 15,20 16,113 1,62 3,114 5,117 3,2 16,-51 29,-118 22,-107 27,-122 45,-122 28,0 30,38 7,163 -11,56 -16,102 -13,102 7,0 55,-118 66,-163 9,-36 32,-54 48,-38 12,12 -12,123 -55,254 -28,86 -18,99 21,28 31,-54 63,-82 78,-68 6,6 -13,65 -39,123 -10,22 -18,47 -18,56 0,8 -28,37 -62,63 -89,68 -121,146 -193,470 -48,215 -58,245 -121,350 -49,83 -57,103 -83,230 -16,77 -36,159 -45,183 -13,35 -14,53 -5,94 17,77 7,184 -23,249 -50,110 -150,189 -241,189 -39,0 -63,9 -144,58 -53,31 -114,74 -136,94 l -39,37 7,83 c 4,46 11,91 16,100 5,9 9,26 9,38 0,12 11,31 24,41 49,38 76,186 37,196 -17,4 -19,15 -20,79 -1,88 -20,133 -80,187 -43,38 -120,67 -180,67 -20,-1 -60,-9 -90,-19 z m 205,-20 c 56,-25 112,-86 125,-135 14,-50 7,-212 -9,-228 -17,-17 -31,29 -21,67 5,16 8,41 8,55 -1,23 -2,23 -8,-5 -7,-29 -8,-28 -15,18 -7,36 -5,53 8,72 9,13 16,29 16,34 0,5 -23,28 -51,50 -42,33 -60,41 -93,41 -38,0 -44,-4 -64,-37 -15,-27 -22,-32 -22,-19 0,31 -30,56 -65,56 -57,0 -154,-85 -127,-112 19,-19 14,-32 -5,-17 -10,7 -7,1 6,-13 22,-26 23,-30 11,-72 -7,-25 -10,-57 -8,-70 3,-17 -1,-31 -13,-42 -16,-15 -17,-13 -14,28 4,35 3,38 -4,13 l -7,-30 -7,40 c -4,22 -3,73 2,114 12,96 45,145 120,184 68,34 172,38 237,8 z m -136,-83 c 22,-46 24,-51 12,-44 -8,5 -6,-73 3,-82 3,-3 5,8 6,24 0,16 3,23 6,17 2,-7 8,-13 13,-13 10,0 8,20 -4,38 -10,17 1,77 17,89 11,8 26,9 68,4 6,0 8,-8 5,-17 -5,-14 -4,-15 8,-5 12,10 19,8 34,-7 11,-11 19,-22 17,-24 -2,-2 5,-5 17,-5 30,-3 31,-7 9,-49 -11,-20 -18,-41 -15,-46 9,-14 -11,-9 -32,8 -10,8 -13,13 -6,9 14,-7 16,4 3,24 -7,11 -10,10 -15,-6 -3,-10 -21,-23 -39,-28 -23,-7 -37,-21 -52,-51 -11,-23 -27,-46 -36,-52 -15,-10 -16,-6 -12,29 4,26 2,39 -6,39 -7,0 -9,5 -6,10 4,6 3,9 -2,8 -4,-1 -19,4 -32,11 -22,12 -59,11 -91,-3 -9,-4 -20,2 -28,15 -8,12 -9,18 -3,14 15,-9 14,2 -5,30 -14,22 -14,24 8,36 13,7 26,12 31,11 4,-1 6,1 6,6 -4,26 1,34 16,22 13,-11 14,-10 9,3 -4,12 3,17 33,20 21,2 39,4 40,5 2,1 12,-17 23,-40 z m -20,-143 c 8,-9 15,-36 16,-62 1,-34 -1,-42 -8,-30 -5,10 -6,22 -2,29 4,6 3,8 -4,4 -6,-3 -14,-1 -17,5 -4,6 -17,14 -29,19 -20,9 -20,9 0,9 11,1 26,-5 34,-11 12,-11 12,-10 2,3 -14,19 -52,32 -52,19 0,-5 -12,-15 -27,-22 -14,-7 -28,-18 -30,-25 -6,-18 46,-28 78,-16 23,9 28,8 32,-8 3,-10 -2,-24 -12,-31 -15,-12 -15,-11 -1,6 14,18 14,19 -7,5 -14,-8 -18,-16 -12,-20 16,-9 -5,-20 -41,-21 -29,-1 -60,16 -60,34 0,5 10,2 22,-6 12,-9 32,-16 43,-16 16,1 13,4 -10,14 -58,26 -75,72 -41,115 26,33 95,36 126,6 z m 212,-2 c 29,-26 21,-93 -12,-110 -15,-8 -19,-13 -9,-13 8,0 20,5 27,12 7,7 12,8 12,2 0,-34 -86,-48 -111,-18 -11,13 -9,15 17,9 26,-5 27,-5 6,5 -13,5 -27,8 -32,5 -11,-7 -20,19 -11,33 4,7 12,8 21,2 23,-15 66,-12 80,5 27,33 -35,55 -80,28 -38,-22 -44,-40 -25,-70 9,-13 14,-27 11,-31 -3,-5 12,-9 32,-10 20,-2 38,-5 41,-7 8,-8 -21,-35 -32,-28 -6,3 -7,1 -3,-5 4,-7 3,-12 -2,-12 -5,0 -14,10 -20,23 -11,22 -11,22 -7,-3 8,-38 -6,-51 -40,-41 l -30,8 29,8 c 26,7 28,10 22,48 -4,21 -13,51 -22,66 l -15,26 6,-29 c 17,-81 17,-83 0,-89 -9,-4 -14,-3 -10,3 3,6 1,10 -4,10 -6,0 -11,-8 -11,-17 0,-14 -3,-13 -16,5 -17,25 -12,39 20,53 21,9 21,10 -1,5 -15,-3 -23,1 -23,10 0,19 38,56 50,49 6,-4 10,7 10,24 0,62 82,90 132,44 z m -251,-58 c 0,-5 -7,-12 -16,-13 -23,-5 -47,6 -40,19 8,13 56,8 56,-6 z m 224,6 c 3,-5 0,-13 -5,-16 -16,-10 -62,4 -55,15 8,13 52,13 60,1 z m -392,-99 c -1,-34 1,-41 7,-27 9,20 9,20 10,0 1,-11 3,-35 5,-52 2,-18 1,-33 -1,-33 -11,0 -42,64 -36,78 3,10 1,13 -6,8 -13,-8 -28,76 -17,94 15,25 39,-18 38,-68 z m 537,39 c 0,-40 -28,-116 -51,-137 -24,-21 -25,-8 -1,19 10,13 11,17 3,12 -11,-6 -13,-4 -8,9 4,10 10,30 14,44 3,15 13,38 21,52 13,23 13,24 -2,6 -12,-15 -16,-16 -16,-5 0,19 20,40 32,33 4,-3 8,-18 8,-33 z m -470,-46 c 0,-22 33,-65 50,-65 4,0 12,-10 18,-22 6,-13 11,-17 11,-10 1,7 6,10 11,7 6,-3 10,-2 10,3 0,5 -11,15 -25,22 -13,7 -22,18 -18,23 3,6 1,7 -6,3 -15,-9 -41,11 -41,32 0,12 4,12 22,-4 14,-13 19,-14 14,-4 -4,8 9,-3 29,-25 19,-21 33,-45 30,-52 -3,-11 1,-10 17,2 29,19 54,19 62,0 3,-10 1,-15 -7,-13 -6,1 -25,-1 -41,-6 -23,-6 -27,-9 -16,-16 11,-7 10,-9 -7,-8 -14,2 -19,7 -15,16 3,10 0,13 -9,10 -8,-3 -13,-11 -11,-17 4,-19 -27,-12 -38,9 -6,11 -8,20 -5,20 3,0 -7,18 -21,40 -15,22 -31,40 -36,40 -10,0 8,-38 29,-58 17,-17 17,-27 -2,-42 -8,-7 -15,-17 -15,-23 0,-5 8,-3 18,6 10,10 22,14 25,10 13,-12 7,-21 -20,-28 -27,-6 -27,-7 -9,-21 14,-10 17,-17 9,-25 -15,-15 -34,36 -38,102 -2,30 -6,62 -10,72 -7,17 9,47 26,47 5,0 9,-11 9,-25 z m 139,-2 -1,-28 -8,25 c -7,23 -8,23 -9,3 -1,-12 -4,-29 -7,-38 -6,-14 -9,-13 -30,6 -24,23 -24,39 2,39 8,0 14,-8 15,-17 1,-18 2,-16 14,25 8,23 25,12 24,-15 z m 261,12 c 7,-8 9,-23 5,-32 -4,-10 -11,-49 -15,-87 -5,-46 -14,-75 -27,-88 -19,-19 -20,-19 -15,11 2,18 9,28 15,24 6,-3 7,-1 3,6 -4,6 -12,9 -17,6 -5,-3 -6,1 -3,9 3,9 11,16 18,16 6,0 3,7 -7,14 -10,8 -14,17 -9,20 6,3 20,23 31,43 21,36 20,36 -26,-13 -26,-28 -54,-53 -61,-55 -9,-3 -15,-28 -18,-74 -4,-58 -2,-66 7,-50 7,11 16,23 21,26 5,3 4,18 -2,34 -12,33 -6,44 18,29 28,-18 25,-48 -8,-84 -25,-27 -33,-30 -45,-20 -12,10 -15,9 -15,-4 0,-9 -7,-16 -15,-16 -10,0 -15,10 -15,30 0,28 2,30 23,19 16,-8 14,-4 -8,14 -28,23 -28,25 -8,31 12,4 27,13 33,21 11,13 9,13 -16,0 -34,-17 -86,-19 -117,-4 -21,10 -21,10 -2,-6 11,-8 36,-20 56,-25 37,-10 37,-10 26,-45 -11,-37 -27,-47 -27,-17 0,14 -2,15 -10,2 -7,-11 -10,-5 -10,23 0,35 -1,36 -20,25 -11,-7 -20,-17 -20,-22 0,-4 7,-3 15,4 13,11 15,8 15,-19 0,-38 -22,-41 -38,-6 -16,34 -15,92 1,102 6,4 46,10 87,13 l 75,5 -45,24 c -34,19 -41,26 -26,29 10,2 30,-5 45,-15 l 26,-20 50,51 c 47,47 32,40 -26,-12 -15,-13 -29,-19 -33,-14 -3,5 11,25 32,43 22,19 47,41 58,51 24,21 29,21 44,3 z m -241,-76 c -30,-7 -40,-3 -33,16 5,11 11,12 31,2 l 26,-12 z m 81,-55 c 0,-2 -26,-3 -57,-3 -49,1 -53,3 -23,8 33,6 80,3 80,-5 z m -167,-30 c 3,-3 2,-17 -4,-31 -7,-18 -5,-28 6,-39 16,-16 20,-34 8,-34 -4,0 -17,10 -30,22 -22,20 -31,67 -16,81 8,9 28,9 36,1 z m -9,-121 c 3,-7 12,-55 21,-106 19,-108 61,-270 81,-309 8,-16 20,-25 27,-22 8,3 27,64 46,147 47,202 59,250 66,270 4,10 3,17 -4,17 -6,0 -13,-10 -16,-22 -3,-13 -9,-41 -14,-63 -6,-28 -9,-33 -10,-15 -1,14 -8,38 -16,54 -19,36 -19,36 4,36 10,0 42,16 71,35 51,34 52,35 46,11 -12,-47 -17,-320 -7,-346 5,-14 10,-18 11,-10 0,13 1,13 10,0 12,-19 13,-33 1,-26 -5,4 -11,0 -14,-6 -7,-23 -33,9 -46,55 -10,36 -9,54 9,121 11,44 20,89 20,100 -1,12 -12,-21 -25,-72 -13,-51 -40,-130 -60,-175 -48,-109 -50,-117 -25,-84 16,20 31,27 55,27 30,0 81,10 299,56 60,12 84,14 102,5 14,-6 34,-11 44,-11 11,0 20,-4 20,-10 0,-6 -32,-10 -76,-10 -48,0 -102,-8 -145,-20 -37,-11 -116,-29 -174,-40 -58,-11 -110,-22 -114,-25 -14,-8 -34,-64 -28,-79 7,-18 98,-46 141,-45 21,1 14,4 -23,10 -78,13 -107,30 -103,59 5,44 25,54 61,32 17,-10 28,-22 23,-27 -4,-5 -2,-5 4,-2 6,3 51,-2 100,-12 80,-17 85,-19 49,-23 -22,-2 -1,-4 47,-4 48,1 85,2 84,3 -2,2 -54,12 -117,23 -114,20 -162,34 -188,54 -10,7 6,13 59,22 l 72,12 102,-54 c 57,-30 120,-70 142,-89 l 39,-35 -35,5 c -19,3 -69,-1 -110,-9 -201,-42 -265,-57 -306,-75 -46,-21 -53,-18 -29,13 8,11 20,16 30,12 9,-3 14,-2 11,3 -3,5 2,11 12,14 49,16 95,36 82,37 -8,0 -42,-11 -75,-24 -46,-18 -64,-32 -77,-58 -24,-44 -23,-124 0,-168 l 19,-34 -29,-24 -29,-25 -20,22 c -11,11 -24,21 -30,21 -5,0 0,14 13,30 27,37 37,144 18,190 -7,17 -15,29 -17,26 -3,-2 1,-14 7,-26 16,-29 7,-35 -23,-16 -13,9 -93,33 -178,52 -128,30 -167,35 -232,32 l -78,-5 28,29 c 15,16 53,41 84,57 32,16 85,45 118,65 l 60,37 73,-13 73,-14 -60,-23 c -33,-12 -95,-30 -138,-38 -42,-9 -75,-18 -73,-21 17,-16 245,49 270,77 16,17 13,19 -61,31 -43,6 -126,23 -185,36 -59,13 -130,24 -157,24 -28,0 -51,4 -51,8 0,11 96,35 109,28 17,-11 236,-54 309,-61 60,-6 75,-11 91,-31 26,-33 37,-30 13,4 -35,49 -52,91 -87,209 -35,121 -46,136 -20,28 8,-33 15,-77 15,-98 0,-21 7,-52 16,-68 17,-35 12,-48 -11,-29 -9,7 -13,21 -10,31 4,11 2,19 -4,19 -6,0 -11,-11 -11,-25 0,-20 -5,-25 -25,-25 -29,0 -29,-2 -11,41 13,33 28,292 16,284 -3,-2 -6,19 -8,47 l -3,49 30,-22 c 17,-12 32,-28 35,-36 z m 58,-13 c 21,0 22,-7 3,-40 -8,-14 -15,-41 -16,-60 -1,-26 -4,-17 -14,35 -17,90 -17,91 -3,77 7,-7 20,-12 30,-12 z m 115,-56 c 15,-51 15,-116 -1,-184 -12,-55 -13,-55 -19,-21 -4,18 -7,46 -7,61 0,17 -5,27 -15,27 -11,0 -12,-4 -4,-13 6,-8 9,-32 7,-54 -2,-22 0,-40 4,-40 5,0 7,-24 6,-52 l -2,-53 -5,50 -5,50 -6,-65 c -6,-60 -7,-58 -7,33 -1,54 -4,101 -7,104 -3,4 -6,-33 -6,-82 0,-49 -3,-85 -7,-82 -10,10 -4,151 11,257 13,88 18,85 18,-10 0,-23 1,-27 5,-12 2,12 8,20 13,17 4,-3 3,18 -4,47 -6,28 -16,53 -22,55 -14,5 -22,-42 -31,-177 l -7,-105 -13,50 c -23,90 -11,215 23,241 28,22 68,2 81,-42 z m -273,-111 c -49,-85 -103,-150 -123,-149 -11,0 -31,13 -45,29 l -25,27 47,25 c 26,13 74,45 107,69 33,24 62,45 63,45 2,1 -9,-20 -24,-46 z m 587,-70 c 29,-15 48,-32 45,-39 -3,-9 5,-11 32,-8 33,4 34,3 13,-6 -14,-6 -32,-10 -40,-9 -9,2 -36,-3 -61,-10 -25,-7 -54,-15 -65,-16 -11,-2 -30,-7 -42,-10 -19,-6 -25,-1 -40,29 -12,26 -19,33 -26,24 -6,-9 -6,-6 -2,7 4,11 7,25 6,30 -7,51 -7,93 1,107 7,16 15,13 69,-27 34,-25 83,-57 110,-72 z m -552,35 c -2,-80 -24,-138 -51,-138 -19,0 -19,1 2,30 11,16 25,32 30,35 21,13 9,22 -14,12 -14,-7 -20,-14 -15,-18 17,-10 -37,-51 -63,-47 -22,4 -21,5 12,27 19,13 28,21 19,18 -10,-3 1,19 27,60 24,35 44,69 44,74 0,5 2,9 6,9 3,0 4,-28 3,-62 z m -324,-93 c -42,-19 -66,-19 -41,0 11,8 31,15 45,14 26,-1 26,-1 -4,-14 z m 116,-1 c 12,-15 10,-16 -21,-9 -48,10 -62,25 -23,25 17,0 37,-7 44,-16 z m 523,-53 c -11,-12 -16,-12 -28,-1 -9,7 -16,18 -16,24 0,6 4,5 9,-3 6,-10 11,-5 16,20 l 7,33 13,-30 c 10,-24 10,-32 -1,-43 z m 441,47 c 7,-8 1,-9 -25,-4 -19,3 -39,11 -45,18 -7,8 -1,9 25,4 19,-3 39,-11 45,-18 z M 876,4854 c 0,-9 -13,-30 -28,-46 -32,-34 -62,-112 -77,-194 -9,-52 -7,-79 9,-139 2,-5 -9,-35 -23,-65 -24,-51 -26,-53 -26,-24 -1,20 7,38 24,54 14,13 23,26 20,28 -3,3 -16,-5 -30,-18 -23,-22 -25,-22 -32,-4 -5,10 -8,66 -8,124 0,116 13,152 78,226 24,29 82,74 93,74 1,0 1,-7 0,-16 z m 1220,-19 c 28,-23 55,-60 78,-107 34,-66 36,-76 35,-162 -1,-50 -4,-104 -8,-119 l -6,-28 -31,33 c -30,31 -32,38 -37,133 -5,105 -20,155 -63,212 -22,29 -33,73 -18,73 4,0 26,-16 50,-35 z m -1018,-26 c 34,-7 62,-16 62,-20 0,-5 -19,-19 -42,-33 -24,-14 -39,-26 -34,-26 5,0 31,14 58,31 28,16 52,28 55,25 3,-2 -6,-10 -19,-17 -12,-6 -42,-23 -65,-36 -50,-29 -63,-16 -27,27 15,17 24,33 21,36 -2,3 -20,-14 -38,-38 -43,-56 -251,-268 -263,-268 -5,0 -6,37 -4,83 6,92 35,180 76,228 25,31 27,31 92,26 37,-3 95,-11 128,-18 z m 972,-16 c 37,-42 70,-148 70,-224 0,-32 -2,-59 -5,-59 -13,0 -64,44 -59,51 2,4 -1,11 -7,15 -8,4 -9,3 -5,-4 18,-30 -13,-5 -87,68 -44,44 -82,78 -85,75 -3,-3 -20,6 -38,20 -36,27 -49,32 -38,13 4,-8 3,-10 -2,-5 -5,5 -9,14 -9,20 0,5 -6,12 -14,15 -8,3 -11,0 -7,-7 5,-7 1,-9 -8,-5 -21,8 -1,28 36,37 22,6 28,3 34,-15 9,-28 35,-70 41,-65 2,3 -6,21 -18,41 -13,22 -18,41 -13,46 9,9 80,17 147,16 31,0 44,-7 67,-33 z m -72,-230 c -29,-12 -37,-22 -52,-71 -50,-160 -69,-189 -138,-217 -47,-18 -93,-15 -188,12 l -55,15 123,49 c 135,53 151,63 219,140 46,52 46,52 -24,-12 -73,-69 -156,-111 -218,-112 -16,0 -23,-3 -16,-5 9,-3 -8,-15 -40,-29 l -54,-24 -22,28 c -39,48 -46,149 -11,147 10,-1 16,2 13,5 -7,13 59,39 127,51 34,6 90,18 123,27 132,34 301,31 213,-4 z m -768,-8 c 171,-39 220,-62 220,-103 0,-30 -16,-90 -28,-110 -11,-16 -65,-5 -55,11 3,6 1,7 -5,3 -19,-11 -163,46 -224,89 -32,22 -82,58 -112,79 -32,22 -68,39 -85,40 -32,1 -30,11 4,19 55,13 146,4 285,-28 z m -276,-72 c -19,-202 -110,-449 -193,-526 -23,-21 -41,-45 -41,-53 0,-18 -66,-164 -74,-164 -3,0 -1,12 5,28 45,113 78,207 74,210 -2,3 -10,-8 -17,-24 -12,-28 -13,-27 -16,30 -4,84 13,184 55,308 56,169 121,258 190,258 23,0 23,-1 17,-67 z m 1124,47 c 41,-25 66,-66 97,-160 46,-140 69,-268 70,-382 0,-58 3,-104 7,-101 10,5 9,-6 -1,-32 -7,-17 -10,-14 -20,18 -7,22 -10,53 -7,73 4,21 3,34 -4,34 -5,0 -10,-12 -10,-27 l -1,-28 -35,40 c -48,55 -96,159 -138,297 -33,110 -60,263 -50,280 9,15 59,8 92,-12 z m -993,-63 c 80,-57 133,-84 238,-122 43,-15 74,-31 70,-36 -21,-19 -159,-51 -197,-45 -85,14 -148,82 -182,197 -9,30 -21,61 -28,69 -13,17 -13,17 99,-63 z m -90,13 c 5,-19 4,-21 -4,-10 -9,13 -11,13 -11,0 0,-9 7,-26 16,-38 8,-12 10,-22 5,-22 -6,0 -2,-9 9,-20 19,-19 28,-80 12,-80 -5,0 -18,10 -30,23 -20,21 -22,33 -20,105 3,80 9,91 23,42 z m 949,-98 -27,-37 33,30 c 24,21 31,25 27,12 -4,-10 -7,-24 -7,-31 0,-14 -59,-60 -67,-52 -3,3 -1,12 6,20 6,8 11,18 10,22 -2,5 8,43 22,84 l 24,75 3,-43 c 3,-35 -2,-51 -24,-80 z m 265,-22 c 0,-25 -3,-38 -6,-30 -3,8 -16,44 -29,79 l -22,63 28,-33 c 23,-27 29,-44 29,-79 z M 695,4238 c -16,-50 -29,-119 -32,-172 -6,-87 -14,-95 -27,-24 -7,39 17,167 57,298 l 22,75 3,-47 c 2,-30 -6,-76 -23,-130 z m 1549,10 c 29,-128 31,-176 11,-228 l -13,-35 -1,40 c -1,22 -10,91 -21,154 -20,116 -27,246 -10,205 5,-12 20,-73 34,-136 z m -1305,1 c -12,-71 -56,-178 -96,-239 -21,-30 -38,-59 -39,-65 0,-5 -2,-22 -2,-38 -2,-19 -20,-44 -68,-90 -37,-34 -79,-84 -95,-112 -49,-85 -32,-28 23,77 40,77 62,107 95,131 24,17 41,32 39,35 -3,2 -19,-6 -36,-18 -17,-12 -33,-20 -36,-17 -3,3 9,15 25,26 17,12 30,25 29,29 -1,4 12,29 30,56 18,28 32,45 32,39 0,-5 -14,-30 -32,-54 -22,-32 -25,-39 -9,-24 13,11 29,31 36,45 15,29 67,209 86,295 l 13,60 7,-45 c 4,-25 3,-66 -2,-91 z m 1065,4 c 56,-181 84,-242 141,-303 47,-51 48,-53 12,-26 -21,15 -40,26 -43,23 -2,-2 11,-16 30,-31 19,-14 54,-57 77,-94 22,-37 38,-56 35,-42 -4,14 -9,41 -12,60 -5,31 -4,33 8,15 7,-11 13,-45 14,-75 1,-30 5,-64 9,-75 4,-11 -9,4 -29,34 -20,29 -49,63 -64,75 -64,50 -72,61 -75,101 -2,23 -16,59 -30,81 -32,48 -92,194 -103,249 l -7,40 -17,-66 c -18,-70 -38,-115 -41,-89 0,8 -4,4 -8,-10 -4,-14 -15,-26 -25,-28 -18,-4 -18,-3 0,27 10,17 24,29 30,27 13,-5 54,142 54,194 0,16 2,30 4,30 2,0 20,-53 40,-117 z m -899,9 c -1,-2 -20,4 -42,13 -33,13 -40,21 -40,43 v 28 l 43,-41 c 23,-22 41,-41 39,-43 z m -81,-19 c 3,-18 2,-33 -3,-33 -18,0 -52,50 -58,86 l -5,39 30,-30 c 16,-16 32,-45 36,-62 z m 914,39 c 2,-11 -6,-29 -16,-39 -58,-54 -71,-63 -85,-63 -26,0 -29,17 -4,24 12,3 30,18 40,35 25,43 21,47 -12,12 -33,-35 -37,-36 -80,-18 l -31,13 57,19 c 32,10 69,19 83,20 43,4 45,5 30,16 -13,9 -13,10 0,6 8,-2 16,-13 18,-25 z m -509,-24 c 6,-17 11,-43 10,-57 l -1,-26 -8,25 c -8,24 -8,24 -9,3 -1,-20 -4,-21 -27,-13 -17,7 -23,7 -19,0 3,-6 -2,-13 -11,-17 -10,-4 -19,-2 -21,4 -2,6 -15,1 -30,-13 -14,-13 -30,-21 -36,-17 -5,3 -8,2 -4,-3 3,-5 -1,-18 -9,-29 -13,-17 -14,-15 -14,27 0,26 5,59 11,75 8,23 8,26 -2,15 -14,-13 -26,-142 -15,-142 4,0 24,13 44,30 20,16 47,31 60,33 12,2 27,8 34,15 8,8 17,8 30,1 29,-16 41,-1 35,47 -3,28 -1,44 6,44 6,0 20,9 32,20 21,20 22,20 76,2 66,-22 93,-64 86,-134 -3,-35 -5,-39 -11,-21 -5,13 -22,27 -42,33 -19,7 -34,18 -34,25 0,9 -8,12 -26,9 -40,-7 -62,4 -67,34 -3,16 -4,10 -3,-13 0,-23 6,-40 13,-40 6,0 15,-3 19,-7 12,-12 46,-9 38,3 -11,19 27,-6 67,-43 29,-26 39,-46 49,-92 6,-32 10,-69 7,-82 -2,-14 0,-27 6,-31 6,-4 8,19 3,68 -4,41 -7,83 -6,94 3,64 -2,110 -15,141 -8,20 -10,34 -4,34 24,0 42,-77 47,-192 4,-94 7,-118 19,-118 12,0 12,-4 -1,-22 -22,-31 -22,-156 -1,-164 12,-5 13,-10 5,-19 -6,-8 -10,-37 -8,-67 3,-38 6,-47 11,-33 5,11 15,34 23,50 10,19 11,26 3,18 -40,-40 -27,24 15,74 49,57 86,116 85,133 0,13 -1,13 -6,0 -3,-8 -26,-43 -50,-76 -34,-47 -50,-60 -64,-57 -24,7 -26,55 -4,73 11,9 13,16 5,24 -16,16 -12,30 26,81 25,32 30,44 17,37 -11,-6 -25,-18 -33,-26 -22,-27 -31,-18 -28,26 4,51 22,62 111,73 l 59,7 -5,-53 c -3,-30 -11,-81 -17,-114 -7,-33 -10,-95 -7,-137 5,-69 3,-78 -17,-96 -32,-28 -91,-62 -110,-62 -9,0 -16,-4 -16,-9 0,-21 127,39 137,64 10,29 20,14 31,-49 16,-87 15,-110 -8,-165 -15,-34 -41,-64 -96,-110 -45,-37 -73,-68 -70,-76 5,-13 -65,-108 -130,-175 -18,-19 -33,-38 -34,-42 0,-5 0,-38 0,-75 0,-40 -4,-63 -9,-55 -19,31 12,-258 40,-363 18,-70 19,-88 10,-160 -6,-44 -12,-91 -14,-105 -5,-42 -32,151 -32,227 0,68 -1,71 -12,40 -12,-30 -12,-29 -8,23 4,43 2,49 -5,30 -7,-19 -9,-11 -5,35 3,40 1,53 -5,40 -6,-13 -9,22 -9,100 -1,96 2,125 15,144 11,16 15,35 11,62 -4,30 -1,41 11,49 10,5 14,10 9,10 -4,0 3,21 17,48 73,145 126,400 126,605 0,147 -4,173 -28,182 -14,5 -15,4 -4,-6 7,-8 12,-40 12,-83 0,-50 -3,-66 -10,-56 -5,8 -10,11 -10,6 0,-5 -6,-4 -12,2 -13,10 -19,12 -37,12 -5,0 -12,10 -14,23 -4,18 -4,17 -6,-6 -1,-26 -4,-28 -38,-25 -37,3 -38,4 -36,43 2,34 1,36 -7,15 -7,-23 -8,-23 -9,10 -1,44 15,101 31,113 10,6 9,8 -2,4 -27,-7 -41,-49 -37,-114 1,-35 8,-68 15,-75 7,-7 38,-13 69,-13 91,-3 103,-9 105,-58 4,-117 -18,-274 -59,-407 -20,-67 -27,-81 -34,-65 -6,16 -8,17 -8,3 -1,-9 -4,-25 -7,-35 -5,-15 -4,-16 6,-3 10,13 11,12 6,-3 -3,-10 -6,-24 -6,-30 0,-7 -5,-6 -11,3 -9,13 -10,12 -5,-2 3,-9 -3,-35 -12,-58 -16,-38 -19,-41 -49,-35 -18,3 -42,1 -52,-5 -13,-7 -22,-7 -26,0 -3,5 -12,10 -18,10 -8,-1 -7,-5 3,-13 10,-8 14,-25 12,-50 -2,-21 2,-44 8,-52 18,-22 23,-134 11,-275 -18,-221 -29,-220 -30,5 -1,110 -6,238 -13,284 -9,64 -9,88 1,102 9,15 8,26 -5,51 -12,24 -14,36 -5,55 6,13 7,22 2,18 -5,-3 -12,3 -14,12 -2,10 -3,6 -1,-9 6,-51 -5,-29 -40,80 -46,143 -69,294 -60,392 l 6,77 32,-3 c 17,-1 40,0 51,4 17,5 15,7 -10,12 -17,3 -35,15 -43,30 l -14,25 6,-26 c 4,-19 1,-26 -10,-26 -13,0 -15,11 -12,68 2,37 1,66 -3,63 -4,-2 -10,-82 -14,-176 -6,-153 -4,-185 15,-281 21,-108 61,-230 100,-308 12,-22 19,-43 17,-46 -3,-2 -46,42 -96,98 -85,95 -109,130 -78,113 27,-16 -52,61 -100,97 -73,55 -97,103 -88,183 4,33 13,89 21,124 15,70 18,236 5,294 -5,20 -7,39 -5,41 2,2 39,-31 82,-72 62,-60 81,-85 89,-118 7,-28 7,-41 1,-37 -6,4 -14,1 -18,-5 -7,-12 -38,18 -83,79 -18,25 -18,25 -1,-5 9,-16 31,-50 49,-75 31,-45 33,-55 26,-152 -2,-30 -23,-20 -78,37 -61,62 -71,60 -16,-5 32,-37 84,-70 110,-70 5,0 8,19 7,43 0,23 4,50 9,60 6,14 3,25 -15,45 -16,17 -18,23 -7,19 27,-9 45,35 31,80 -7,23 -8,39 -2,43 15,9 8,150 -8,150 -8,0 -11,-8 -7,-22 11,-51 10,-111 -3,-115 -7,-3 -10,1 -6,11 3,9 1,16 -6,16 -6,0 -8,-4 -5,-10 3,-5 2,-10 -3,-10 -19,0 -143,142 -138,157 3,8 6,19 6,25 0,17 83,-2 116,-27 17,-13 36,-20 42,-16 6,4 13,38 16,76 6,107 15,119 105,148 42,13 81,22 88,19 6,-2 16,-17 22,-34 z m -350,-25 c -35,-15 -49,-6 -49,29 0,15 3,15 40,0 l 41,-15 z m -106,-48 6,-40 -14,40 c -7,22 -13,51 -13,65 v 25 l 7,-25 c 4,-14 11,-43 14,-65 z m 249,53 c -7,-7 -12,-22 -12,-33 0,-12 -6,-22 -12,-22 -7,0 -38,-4 -70,-8 -50,-6 -57,-5 -67,13 -9,17 -6,21 32,35 23,9 59,15 79,13 21,-2 35,0 32,5 -3,5 3,9 12,9 14,0 15,-3 6,-12 z m 488,-2 c -25,-14 -40,-13 -40,5 0,5 15,9 33,9 l 32,-1 z m 71,-16 c 28,-16 24,-24 -30,-58 l -49,-30 -7,36 c -5,28 -3,39 11,49 21,16 49,17 75,3 z m -751,-25 c 49,-31 51,-45 5,-45 -35,0 -55,20 -55,54 0,21 3,20 50,-9 z m 893,5 c -7,-25 -29,-44 -43,-35 -8,5 -4,15 11,31 27,29 39,31 32,4 z m -63,-42 25,-9 -33,-30 c -22,-20 -43,-29 -65,-29 -18,0 -42,-7 -53,-15 -27,-20 -34,-19 -34,9 0,17 14,34 48,59 47,36 55,36 112,15 z m -660,-43 v -56 l -32,17 c -18,9 -46,28 -62,43 -22,20 -28,22 -23,8 6,-15 2,-18 -20,-15 -34,4 -43,28 -11,28 13,0 28,4 34,9 5,5 27,11 49,14 22,2 46,4 53,5 8,1 12,-15 12,-53 z m -170,-16 c 0,-11 -4,-19 -9,-19 -10,0 -21,24 -21,47 0,13 3,13 15,3 8,-7 15,-21 15,-31 z m 1260,-147 c -17,-89 -20,-97 -31,-80 -14,21 -10,75 7,136 16,52 18,55 27,34 7,-16 7,-42 -3,-90 z m -1650,13 c 4,3 6,-5 3,-17 -4,-19 -3,-20 6,-8 9,12 10,9 5,-12 -4,-18 -2,-28 5,-28 6,0 3,-20 -10,-52 -27,-68 -32,-72 -28,-23 2,22 -1,77 -5,122 -4,45 -4,88 1,95 5,8 9,-4 11,-35 2,-26 7,-45 12,-42 z m -33,-195 c -5,-106 -50,-306 -97,-423 -28,-70 -14,-91 20,-29 14,27 40,66 56,88 16,21 21,33 12,25 -10,-7 -27,-29 -39,-48 -30,-48 -35,-34 -9,24 26,60 122,186 163,215 l 31,23 -24,-40 c -13,-22 -42,-67 -64,-100 -22,-33 -40,-62 -39,-65 0,-3 -15,-29 -33,-57 -18,-29 -48,-80 -65,-114 -19,-39 -34,-58 -40,-52 -5,5 -7,18 -3,27 5,14 9,15 15,4 5,-7 9,-8 9,-3 0,6 -4,16 -9,23 -6,10 -11,5 -21,-17 -7,-17 -16,-31 -21,-31 -4,0 1,20 12,45 11,25 27,82 35,126 14,74 14,95 -1,230 -20,173 -17,184 54,298 l 46,73 8,-58 c 5,-33 6,-106 4,-164 z m 1775,113 29,-62 -12,-164 c -13,-183 -6,-251 36,-363 13,-35 20,-64 16,-64 -16,0 -71,140 -112,287 -48,169 -60,290 -39,407 l 13,70 20,-24 c 11,-14 33,-53 49,-87 z m -249,-60 c -4,-11 -2,-14 6,-9 13,8 29,-9 98,-103 42,-58 99,-193 88,-211 -6,-9 39,-128 75,-200 31,-61 41,-105 14,-60 l -15,25 6,-25 c 3,-14 -12,9 -35,50 -23,41 -43,84 -45,94 -3,11 -13,29 -23,40 -22,24 -83,119 -107,167 l -18,34 29,-25 c 16,-13 48,-42 72,-64 23,-22 42,-35 42,-29 0,17 -132,133 -143,126 -6,-4 -7,-1 -3,6 5,7 1,20 -7,29 -8,9 -21,46 -30,82 -8,36 -19,76 -23,90 -7,22 -6,23 9,12 9,-8 13,-20 10,-29 z M 765,3741 c -6,-53 -11,-60 -73,-121 -37,-36 -80,-81 -95,-100 -28,-35 -28,-35 -22,-7 18,85 89,210 168,295 19,21 22,22 25,7 2,-10 1,-43 -3,-74 z m 1685,-211 c 5,-102 14,-207 19,-234 10,-45 8,-67 -4,-55 -2,3 -15,61 -30,131 -25,127 -31,222 -18,339 6,58 7,61 15,34 5,-16 13,-113 18,-215 z m -1964,20 c 6,-80 3,-106 -15,-164 -12,-38 -19,-78 -15,-89 4,-12 2,-17 -4,-13 -6,3 -13,-7 -17,-24 -4,-16 -10,-30 -15,-30 -5,0 0,30 11,67 14,49 19,100 19,183 0,63 3,140 7,170 6,51 7,53 15,25 5,-16 11,-73 14,-125 z m 2044,-249 c 0,-20 2,-23 10,-11 9,13 10,13 10,0 0,-23 -17,-43 -29,-36 -6,4 -11,22 -11,40 0,44 -20,148 -32,166 -7,11 -8,8 -3,-10 11,-42 33,-205 29,-209 -2,-2 -6,-2 -8,0 -11,11 -34,192 -35,269 v 85 l 34,-134 c 19,-73 35,-145 35,-160 z m -2109,4 c -10,-34 -23,-59 -30,-57 -7,1 -22,3 -35,4 -17,2 -22,7 -18,17 5,13 6,13 10,1 3,-8 11,12 18,45 6,33 19,76 28,95 l 16,35 -5,-60 c -2,-33 -7,-76 -9,-95 -3,-19 1,-10 10,20 8,30 13,78 10,105 -2,28 1,75 8,105 l 11,55 3,-105 c 1,-80 -2,-119 -17,-165 z m 1468,134 c -24,-15 -28,-10 -16,21 11,30 12,30 21,10 7,-16 6,-24 -5,-31 z m -872,-11 c -1,-3 25,-24 58,-46 33,-22 71,-53 85,-68 l 25,-28 -39,29 c -78,57 -138,95 -152,95 -8,0 -14,5 -14,11 0,6 8,8 18,5 16,-6 16,-5 -1,8 -11,8 -15,20 -11,31 6,16 9,15 20,-6 6,-13 11,-27 11,-31 z m 879,-11 c -76,-48 -134,-90 -163,-117 -18,-17 -30,-25 -27,-17 10,28 168,146 194,146 11,0 10,-3 -4,-12 z m 38,-148 c 9,-63 23,-148 31,-189 9,-41 18,-140 20,-220 5,-135 4,-141 -8,-90 -7,30 -40,107 -73,170 l -59,115 -3,156 -3,156 33,21 c 42,27 43,24 62,-119 z m -909,112 31,-18 -12,-157 -12,-158 -53,-105 c -29,-59 -58,-133 -65,-167 l -12,-61 -1,120 c -2,174 55,565 82,565 7,0 26,-8 42,-19 z m 116,-231 c 82,-275 146,-550 185,-792 23,-145 25,-181 20,-323 -4,-88 -7,-176 -7,-195 0,-24 -3,-30 -9,-20 -7,11 -11,11 -24,1 -9,-8 -26,-11 -41,-7 -20,5 -25,13 -25,36 0,17 5,30 12,30 6,0 22,9 34,21 l 22,21 -4,-44 c -2,-23 5,0 15,52 11,52 20,119 20,148 1,63 -27,208 -74,382 -18,69 -45,177 -60,240 -14,63 -40,165 -57,225 -16,61 -36,144 -43,185 -13,70 -14,71 -11,20 2,-30 31,-165 66,-300 l 62,-245 -7,-145 c -4,-80 -13,-181 -21,-225 -17,-101 -17,-239 0,-287 l 14,-38 h -52 -51 l -1,78 c 0,55 -8,100 -28,160 -36,109 -52,204 -66,393 -13,175 -2,394 26,489 9,31 18,111 20,185 3,72 8,137 11,145 6,19 33,-50 74,-190 z m 688,133 c -1,-43 -4,-61 -10,-52 -6,10 -9,7 -9,-13 0,-14 -3,-34 -7,-44 -4,-12 -3,-15 5,-10 8,5 12,-5 12,-33 0,-22 7,-61 16,-86 8,-25 12,-56 9,-68 -5,-18 -4,-19 5,-7 9,12 11,10 6,-10 -3,-14 2,-48 10,-75 22,-69 30,-328 15,-490 -6,-72 -23,-170 -36,-220 l -25,-90 5,60 c 2,33 0,67 -5,75 -12,19 -11,-279 1,-302 8,-14 4,-19 -15,-24 -13,-3 -37,-4 -52,-2 -23,2 -28,8 -26,23 13,83 11,123 -7,226 -11,64 -26,184 -32,267 l -13,150 34,154 c 39,182 69,338 74,393 2,22 1,27 -1,11 -3,-22 -7,-26 -13,-15 -6,9 -8,0 -5,-26 4,-33 3,-36 -5,-15 -7,20 -8,16 -5,-20 4,-33 2,-40 -5,-25 -8,18 -9,16 -9,-10 -1,-111 -2,-129 -10,-117 -4,8 -8,0 -8,-20 0,-35 -28,-171 -69,-333 -71,-279 -87,-442 -60,-584 19,-98 19,-104 6,-96 -19,12 -10,-14 14,-42 20,-22 27,-26 37,-15 17,16 39,16 39,-1 0,-7 6,-19 12,-25 7,-7 23,-61 35,-120 12,-59 20,-87 18,-62 -3,33 -1,40 6,28 14,-25 29,-22 29,5 0,18 2,19 10,7 6,-8 9,-33 8,-55 -1,-23 1,-46 5,-52 4,-7 1,-65 -7,-130 -9,-65 -20,-199 -25,-298 -7,-133 -16,-211 -36,-298 -19,-79 -24,-122 -18,-128 6,-6 40,-15 77,-22 55,-9 66,-14 66,-30 0,-18 -6,-19 -77,-14 -49,3 -70,2 -55,-4 25,-9 26,-16 12,-53 -9,-23 -12,-25 -35,-14 -15,7 -24,17 -21,27 13,48 18,82 21,136 2,33 11,159 20,280 20,252 16,376 -13,453 -11,28 -16,52 -11,52 5,0 -8,26 -28,57 -31,49 -78,171 -69,180 2,2 9,-3 16,-12 7,-8 17,-15 23,-15 5,0 -2,9 -15,20 -24,18 -55,105 -56,155 0,11 -6,66 -13,123 -25,204 32,630 141,1060 41,163 94,302 115,302 2,0 4,-30 4,-67 z m -625,-149 c -6,-43 -13,-81 -13,-84 -2,-5 -90,271 -90,280 0,3 26,-22 57,-56 l 58,-60 z m 570,159 c -28,-68 -84,-249 -84,-273 0,-33 -12,-17 -45,58 -27,61 -28,63 -9,83 19,21 19,21 36,-43 17,-62 18,-44 2,52 -5,32 -1,41 51,98 31,34 59,62 61,62 2,0 -3,-17 -12,-37 z M 424,3220 c 37,-12 65,-24 63,-28 -2,-4 -7,-15 -10,-24 -5,-15 -9,-15 -48,4 -24,11 -60,23 -81,26 -35,4 -48,19 -31,35 11,11 38,8 107,-13 z m 2151,1 c 0,-8 -25,-20 -65,-31 -36,-10 -72,-21 -81,-24 -11,-5 -18,-1 -22,13 -6,25 -4,27 64,45 64,18 104,16 104,-3 z m -1305,-84 c -1,-7 -17,-41 -36,-77 -34,-64 -35,-64 -29,-25 3,22 8,69 12,104 l 6,64 24,-27 c 12,-15 23,-32 23,-39 z m -883,35 c 14,-8 12,-12 -15,-26 -45,-23 -64,-19 -22,5 33,19 28,20 -14,3 -13,-5 -17,-4 -12,4 3,6 2,13 -3,16 -12,8 -116,-71 -116,-87 0,-6 -4,-16 -10,-20 -6,-5 -4,-7 5,-4 8,2 15,8 15,14 0,13 27,38 45,40 8,1 26,4 40,7 14,4 3,-5 -25,-19 -64,-32 -21,-21 62,16 l 63,28 -4,-23 c -2,-13 -12,-39 -22,-57 -10,-19 -19,-47 -20,-64 -2,-37 -25,-94 -31,-78 -2,6 3,25 11,42 9,16 16,36 16,43 -1,7 -15,-16 -32,-52 -16,-36 -32,-59 -35,-53 -2,7 14,47 36,90 l 40,77 -44,-50 c -42,-47 -60,-79 -31,-55 11,9 10,4 -2,-24 -9,-19 -20,-35 -24,-35 -11,0 -10,7 3,32 7,12 7,18 1,14 -6,-3 -25,-36 -42,-74 -18,-37 -34,-61 -37,-54 -3,6 -9,10 -13,7 -5,-3 -3,7 5,22 8,15 15,36 15,46 0,11 7,31 15,45 8,15 21,43 29,63 8,21 23,38 35,42 36,9 34,-11 -5,-47 -21,-19 -32,-36 -26,-40 6,-3 23,11 39,31 40,51 50,68 33,58 -9,-5 -11,-4 -6,4 4,6 11,9 16,6 4,-3 13,2 20,10 7,8 17,12 23,8 6,-3 7,-1 3,5 -4,7 -2,12 3,12 6,0 11,4 11,10 0,5 -15,1 -32,-9 -18,-11 -53,-25 -78,-32 -41,-11 -120,-75 -120,-98 0,-4 -11,-18 -25,-31 -14,-13 -25,-20 -25,-16 0,13 32,71 44,78 6,4 7,8 2,8 -6,0 -1,7 10,16 10,8 13,13 7,9 -9,-4 -11,-1 -7,9 3,9 11,13 17,9 6,-4 8,2 5,15 -6,23 6,38 80,88 48,33 89,38 129,16 z m 2199,-8 c 19,-15 37,-25 39,-22 3,3 -6,11 -20,18 -14,7 -25,17 -25,22 0,11 11,5 78,-45 53,-41 63,-54 37,-54 -8,0 -12,4 -9,8 2,4 -1,11 -7,15 -8,4 -9,3 -5,-4 9,-14 -4,-15 -24,-2 -13,8 -12,10 5,10 14,0 16,3 8,11 -8,8 -17,8 -32,-3 -20,-14 -19,-15 14,-27 36,-13 85,-63 85,-87 0,-8 4,-14 9,-14 11,0 33,-61 25,-69 -8,-9 -34,30 -34,51 0,10 -4,18 -8,18 -4,0 -15,13 -25,29 -12,20 -35,35 -78,51 -33,13 -76,33 -94,46 l -33,22 -6,-30 c -9,-44 -7,-127 4,-172 5,-22 6,-45 2,-50 -4,-6 -10,7 -13,29 -6,37 -6,35 -9,-20 -1,-47 -4,-55 -10,-35 -5,15 -6,-4 -3,-47 4,-44 2,-73 -4,-73 -12,0 -15,158 -3,165 6,4 10,14 9,23 0,14 -2,13 -8,-3 -7,-17 -9,-15 -13,12 -2,18 -1,30 4,27 13,-8 9,27 -8,75 -12,35 -13,50 -4,72 7,15 9,33 5,38 -3,6 -1,11 4,11 6,0 11,-8 12,-17 0,-15 2,-15 9,2 13,31 12,-5 -1,-44 -7,-20 -8,-49 -3,-79 8,-46 8,-46 15,38 3,46 11,86 17,88 6,2 8,11 5,20 -3,12 -2,13 4,5 5,-7 24,-19 43,-27 19,-8 29,-15 22,-16 -7,0 -23,5 -35,11 -21,10 -22,10 -2,-6 13,-10 30,-14 50,-10 23,5 26,4 15,-4 -17,-12 -4,-13 25,-2 17,7 16,9 -9,15 -16,4 -36,15 -45,24 -9,10 -11,11 -6,3 9,-12 7,-12 -14,-2 -19,10 -21,15 -10,22 19,12 16,13 55,-17 z m -2268,-6 c -3,-13 -58,-42 -65,-34 -3,3 56,45 65,46 1,0 1,-6 0,-12 z m 118,-6 c 14,-9 27,-96 19,-122 -12,-39 -24,-19 -27,48 -2,37 -3,-21 -2,-129 1,-108 -2,-202 -7,-210 -6,-9 -9,1 -9,32 0,26 -3,61 -7,79 -4,24 -3,31 5,26 8,-5 12,2 11,21 -1,17 -3,21 -6,11 -2,-10 -11,-18 -19,-18 -12,0 -12,4 -4,20 6,11 14,72 17,135 3,63 9,115 12,115 3,0 11,-4 17,-8 z m 851,-165 c -26,-51 -47,-100 -47,-108 0,-8 15,14 32,49 17,34 32,61 34,59 2,-2 -3,-27 -11,-57 -8,-29 -17,-85 -21,-124 l -7,-71 -30,119 -30,119 39,79 38,78 25,-25 25,-25 z m 331,116 c -1,-10 13,-41 31,-70 31,-50 33,-65 15,-122 -5,-17 -36,25 -79,107 l -28,53 23,24 c 28,29 39,32 38,8 z m 914,-7 c 3,3 28,-21 54,-52 27,-32 60,-68 73,-81 13,-13 21,-26 18,-29 -9,-9 -25,4 -66,56 -21,27 -42,46 -46,42 -4,-4 -5,-2 -3,3 1,6 -5,21 -15,35 -9,13 -17,22 -17,19 0,-11 52,-134 62,-146 6,-7 8,-22 5,-33 -3,-11 -1,-18 4,-14 5,3 9,-1 9,-8 1,-7 7,-49 15,-93 8,-44 15,-81 15,-82 0,-2 -6,-3 -13,-3 -13,0 -37,93 -53,199 -8,58 -29,109 -37,90 -4,-8 -4,0 -1,16 5,24 3,27 -6,15 -9,-13 -10,-12 -6,5 3,11 -2,31 -10,45 l -15,25 4,-25 c 2,-14 13,-65 23,-113 16,-77 17,-89 4,-97 -12,-8 -12,-10 -1,-10 9,0 12,-11 9,-40 -2,-22 0,-40 4,-40 5,0 8,-16 8,-35 0,-27 -3,-33 -15,-29 -9,4 -16,19 -16,38 0,17 -3,60 -6,96 -2,36 -4,85 -5,110 0,36 -1,40 -7,20 -5,-15 -7,4 -6,50 3,96 3,98 19,78 7,-10 15,-15 18,-12 z m -1193,-457 -23,-134 -19,90 c -13,64 -16,107 -11,150 3,33 7,74 9,90 2,28 28,159 43,215 3,14 10,-42 15,-126 9,-138 8,-163 -14,-285 z m 1283,416 c 8,9 25,-17 32,-50 l 6,-30 -35,40 c -34,39 -48,68 -22,46 8,-6 16,-9 19,-6 z M 386,2988 c -2,-35 -12,-94 -21,-133 -9,-38 -16,-83 -16,-98 1,-16 -2,-34 -6,-40 -4,-7 -6,-24 -4,-39 1,-16 -2,-28 -9,-28 -7,0 -10,22 -9,65 1,36 5,65 9,65 3,0 4,16 2,36 -3,27 0,39 12,46 9,5 16,17 15,26 0,14 -2,14 -8,-2 -6,-15 -10,-16 -15,-7 -5,7 -1,29 7,49 9,21 21,56 27,80 6,23 13,42 15,42 3,0 3,-28 1,-62 z m 1104,37 c 6,-8 10,-29 8,-47 -3,-32 -4,-33 -48,-33 -45,0 -45,0 -48,37 -2,28 2,40 18,51 23,16 53,13 70,-8 z m 94,-39 c 7,-18 16,-53 20,-77 5,-35 1,-29 -18,31 -33,101 -32,71 1,-49 30,-111 34,-194 14,-301 l -15,-75 -19,75 c -13,54 -20,125 -24,253 -5,158 -4,177 11,177 8,0 22,-15 30,-34 z m 1038,-48 c 3,-16 1,-31 -4,-34 -4,-3 -8,4 -8,16 0,11 -9,40 -20,63 l -21,42 25,-29 c 13,-16 26,-42 28,-58 z m -652,-217 c 20,-140 -12,-467 -61,-618 -16,-51 -32,-117 -35,-148 -7,-57 -13,-65 -33,-41 -25,30 -23,82 8,206 38,158 48,229 56,410 6,134 -13,401 -30,418 -3,3 -5,-3 -5,-13 0,-10 -3,-16 -6,-12 -3,3 -2,16 2,29 12,38 91,-137 104,-231 z m -972,174 c -14,-83 -3,-459 16,-572 9,-50 27,-127 40,-170 36,-114 51,-209 37,-239 -6,-13 -15,-24 -20,-24 -5,0 -21,39 -35,86 -15,47 -29,84 -31,82 -2,-1 8,-41 21,-88 14,-49 22,-96 19,-111 -4,-18 1,-42 14,-68 12,-22 21,-51 21,-64 0,-13 9,-50 19,-83 10,-32 24,-75 29,-94 11,-34 11,-33 5,12 -5,43 -3,47 18,50 18,2 25,10 27,31 3,25 1,27 -24,23 -34,-7 -42,-15 -24,-26 11,-7 12,-12 4,-20 -8,-8 -16,5 -28,48 -9,32 -16,67 -16,78 0,11 -9,37 -19,57 -32,63 -22,75 70,79 l 79,3 v -52 -53 l -62,-2 -63,-2 53,-3 52,-4 v -47 c -1,-26 -7,-75 -14,-109 -7,-35 -10,-63 -5,-63 5,0 9,11 9,24 0,26 37,79 50,71 4,-3 23,12 40,32 l 33,37 -7,-39 c -8,-43 -52,-154 -67,-170 -12,-12 -11,-28 1,-20 13,8 13,3 -5,-32 -38,-76 -38,-193 0,-562 20,-191 18,-212 -10,-111 -30,107 -42,187 -55,370 -14,184 -42,350 -81,467 -18,55 -28,102 -24,115 6,22 5,22 -8,-1 -9,-16 -12,-31 -6,-40 45,-82 100,-383 102,-558 1,-67 5,-114 10,-105 4,9 5,-7 3,-36 -3,-32 -1,-50 4,-47 6,4 10,-7 10,-23 0,-24 20,-104 56,-223 3,-12 -5,-20 -27,-28 -18,-6 -33,-10 -34,-9 -2,2 -25,97 -53,213 -44,177 -75,334 -95,480 -3,17 -3,-4 0,-45 6,-107 27,-218 83,-447 28,-111 50,-204 50,-207 0,-3 -6,-6 -13,-6 -9,0 -20,29 -31,81 -10,45 -19,79 -22,76 -2,-2 3,-37 11,-77 8,-40 13,-75 11,-77 -11,-12 -38,139 -31,173 5,23 4,26 -5,14 -10,-13 -11,-12 -6,4 4,10 -8,71 -25,135 -17,64 -31,141 -31,171 0,42 -2,48 -7,25 -6,-25 -9,-16 -20,54 -15,92 -10,212 14,301 8,30 12,39 10,20 -3,-19 -7,-105 -9,-190 l -4,-155 8,130 c 4,72 13,159 19,195 6,36 10,90 10,120 -2,55 -2,55 -10,15 l -7,-40 2,45 c 4,62 -12,291 -23,343 -12,50 0,68 23,36 9,-13 16,-19 16,-14 0,6 -14,27 -30,47 -23,28 -35,59 -50,125 -39,183 -55,463 -32,563 11,48 72,194 78,187 1,-1 -3,-29 -8,-62 z m 1696,-23 c 4,-18 4,-37 0,-44 -4,-7 -3,-8 4,-4 7,4 12,4 12,-1 1,-4 7,-34 14,-65 8,-33 10,-58 5,-58 -5,0 -12,8 -15,18 -3,9 -23,62 -45,117 -21,55 -39,104 -39,108 0,23 59,-42 64,-71 z m -1045,-12 c -1,-19 -4,-48 -8,-65 -6,-24 -8,-16 -14,42 -4,39 -10,80 -13,90 -4,13 0,11 15,-7 13,-16 20,-38 20,-60 z m -1338,30 c -7,-4 -18,-27 -25,-51 -7,-24 -18,-44 -25,-44 -14,0 -14,4 -5,61 3,25 10,41 14,35 4,-8 13,-5 25,10 13,13 21,16 23,9 3,-7 -1,-16 -7,-20 z m -128,-76 c 8,-8 -14,-54 -25,-54 -5,0 -6,-5 -3,-10 8,-14 -4,-50 -17,-50 -6,0 -8,13 -3,36 13,70 29,97 48,78 z m 87,-48 c 0,-6 -7,-23 -14,-38 -8,-16 -11,-28 -7,-28 4,0 6,-13 3,-30 -7,-45 -22,-36 -22,14 0,67 10,105 26,99 8,-3 14,-10 14,-17 z m 1092,-441 -8,-60 -16,106 c -16,102 -16,109 2,200 11,52 21,105 22,119 1,14 4,-49 5,-140 2,-91 0,-192 -5,-225 z m 1278,339 c 0,-21 -4,-33 -10,-29 -5,3 -10,19 -10,36 0,16 5,29 10,29 6,0 10,-16 10,-36 z m -959,-324 c 6,-69 15,-145 21,-170 5,-25 12,-88 15,-141 4,-84 2,-98 -15,-119 -17,-21 -23,-23 -44,-13 -73,33 -83,205 -29,471 17,84 32,156 33,160 1,8 3,-4 19,-188 z m -385,-56 c 32,-141 37,-281 12,-329 -35,-67 -79,-81 -98,-31 -16,44 -12,214 9,391 6,50 11,115 12,145 l 1,55 18,-56 c 10,-31 31,-110 46,-175 z m 609,-460 c -1,-124 1,-220 5,-214 15,25 4,-373 -13,-450 -9,-41 -35,-158 -57,-260 -23,-102 -44,-196 -46,-210 l -4,-25 10,25 9,25 -2,-25 c -2,-22 -7,-25 -35,-23 -18,0 -36,4 -39,7 -3,3 6,53 21,110 14,58 26,117 26,131 0,15 4,24 9,21 9,-6 21,27 20,54 0,10 -3,8 -10,-5 -12,-27 -2,188 18,379 9,89 24,178 38,220 30,93 38,147 24,166 -9,13 -10,12 -5,-3 6,-18 -11,-96 -38,-177 l -15,-45 v 36 c -1,20 6,56 14,79 8,23 15,58 15,77 0,18 7,50 16,71 9,20 15,62 15,92 -1,47 17,170 24,170 1,0 1,-102 0,-226 z m -226,24 c 1,-22 -40,-51 -53,-38 -5,5 -10,32 -10,59 l -1,49 32,-27 c 17,-14 32,-34 32,-43 z m 191,14 c 0,-14 -7,-45 -15,-71 -8,-25 -17,-67 -20,-92 -5,-39 -9,-46 -24,-42 -11,3 -28,0 -40,-7 -25,-13 -27,-10 -35,68 l -5,52 57,1 c 71,1 57,7 -23,11 -60,3 -60,3 -69,39 -15,60 -9,64 88,64 84,1 86,0 86,-23 z m -552,-91 c -2,-27 -5,-47 -7,-45 -2,2 -17,-15 -32,-36 -16,-22 -31,-40 -33,-40 -2,0 -4,16 -3,35 1,21 -6,42 -15,52 -15,14 -15,19 -2,45 13,25 17,27 36,17 16,-9 24,-8 36,5 9,9 18,16 19,16 2,0 2,-22 1,-49 z m -88,-82 c 0,-14 -7,-34 -16,-45 -15,-18 -15,-18 -10,6 3,14 6,41 6,60 0,26 3,31 10,20 5,-8 10,-27 10,-41 z m 65,-149 c -13,-21 -29,-42 -36,-46 -13,-8 -13,-8 21,68 21,46 26,53 32,37 5,-14 0,-33 -17,-59 z m 387,-23 c 11,-16 18,-30 15,-33 -9,-9 -77,94 -77,117 0,20 4,17 21,-16 12,-22 30,-53 41,-68 z m -342,-85 c 7,-51 10,-122 7,-159 -7,-76 -45,-213 -59,-213 -5,0 -22,28 -38,63 -27,56 -30,72 -29,157 0,59 3,87 9,75 5,-14 7,-4 6,30 -1,43 4,57 39,106 23,33 43,52 46,45 4,-6 12,-53 19,-104 z m 331,56 c 37,-53 44,-70 43,-108 -1,-28 2,-38 6,-25 9,26 23,-133 15,-166 -3,-14 -7,-56 -9,-94 -7,-166 -18,-320 -22,-324 -2,-2 -4,11 -4,30 -1,19 -9,81 -18,138 l -18,103 22,10 c 13,6 25,17 28,25 4,9 -4,7 -21,-7 -33,-25 -33,-24 -62,89 -15,62 -21,116 -21,200 0,100 7,191 15,191 1,0 22,-28 46,-62 z m 288,-158 c 0,-63 -4,-133 -9,-155 -51,-211 -83,-403 -82,-495 1,-25 -2,-30 -9,-20 -5,8 -7,33 -4,55 4,39 4,39 -9,-8 -14,-48 -23,-64 -30,-56 -7,8 24,186 58,340 44,195 56,285 59,434 2,115 2,118 14,70 6,-28 11,-102 12,-165 z m -676,-277 c 11,-7 11,-27 -2,-120 -9,-61 -19,-114 -22,-117 -3,-4 -9,41 -12,99 -4,57 -9,131 -12,162 l -6,58 20,-37 c 12,-20 27,-41 34,-45 z m -29,-399 c 3,-9 6,-20 6,-24 0,-12 -95,-40 -132,-40 -23,0 -28,4 -28,25 0,20 5,25 28,26 15,0 45,6 67,14 53,17 52,17 59,-1 z m 12,-69 c 5,-19 0,-30 -17,-44 -25,-20 -30,-17 -43,25 -5,15 -1,24 16,32 33,16 37,15 44,-13 z m 554,-4 c 0,-31 -15,-71 -26,-71 -16,0 -17,5 -8,49 6,27 34,46 34,22 z m 58,-73 c 8,-55 9,-84 2,-86 -6,-2 -8,-8 -4,-13 10,-17 -3,-9 -22,13 -19,22 -19,23 1,8 19,-14 19,-14 3,6 -34,40 -105,11 -149,-61 l -19,-30 v 33 c 0,18 -5,42 -11,54 -12,23 -12,23 19,33 l 24,7 -18,-29 c -17,-25 -17,-27 -1,-14 13,11 17,11 17,1 0,-26 11,-1 16,33 l 4,35 -31,-15 c -36,-18 -42,-14 -33,22 5,21 11,25 28,20 75,-22 162,-42 165,-39 2,2 -1,4 -7,4 -8,0 -12,19 -12,50 0,76 15,60 28,-32 z m -760,30 c 2,51 19,55 28,7 9,-48 8,-49 -18,-55 -13,-3 -23,-12 -24,-20 -2,-35 -4,-41 -13,-36 -4,3 -7,16 -5,28 2,13 7,46 11,73 l 7,50 7,-45 6,-45 z m 72,16 c 14,-35 13,-44 -4,-44 -17,0 -21,5 -30,43 -9,36 20,38 34,1 z m 100,-40 c 15,-39 13,-43 -19,-34 -42,12 -46,1 -12,-34 22,-23 28,-38 24,-57 l -5,-27 -40,44 c -22,24 -49,44 -59,44 -10,0 -34,-14 -54,-31 -40,-35 -45,-27 -14,25 16,27 32,39 72,52 29,9 59,23 67,30 21,20 29,17 40,-12 z M 1169,276 c -7,-39 -13,-82 -14,-96 -3,-37 -21,-76 -39,-83 -27,-11 -27,10 -1,58 19,33 30,78 43,168 14,99 18,113 20,73 2,-26 -2,-80 -9,-120 z m 612,28 c -7,-62 -8,-101 -1,-119 6,-17 6,-24 0,-20 -5,3 -19,1 -30,-5 -11,-6 -20,-7 -20,-2 0,11 25,34 31,28 2,-2 5,39 6,93 1,53 5,112 9,131 14,64 17,-5 5,-106 z m 49,100 c 0,-37 31,-154 41,-154 5,0 5,-7 2,-17 -5,-12 -3,-14 7,-8 9,5 11,4 6,-3 -4,-7 -13,-12 -20,-12 -7,0 -21,-10 -32,-22 -10,-12 -14,-18 -8,-15 18,10 46,-37 31,-52 -9,-9 -8,-11 6,-6 12,5 17,2 17,-9 0,-29 -27,-17 -55,26 -24,36 -26,43 -12,53 11,7 13,16 6,26 -6,10 -9,11 -9,1 0,-7 -5,-10 -11,-7 -10,7 -5,155 7,213 6,29 24,19 24,-14 z M 1213,275 c 4,-63 3,-81 -3,-60 -6,17 -12,73 -15,125 -3,65 -2,84 4,60 5,-19 11,-75 14,-125 z m -73,23 c -11,-45 -22,-91 -24,-100 -11,-41 -52,-98 -71,-97 -11,0 -15,3 -8,5 7,3 9,12 6,20 -3,10 0,12 10,8 12,-4 14,-1 10,15 -3,12 -1,21 5,21 11,0 25,37 22,59 -1,7 3,10 8,7 13,-8 23,20 15,41 -5,11 -3,14 6,8 10,-5 11,-2 6,14 -3,11 -2,21 3,21 5,0 13,24 17,53 5,30 10,43 12,30 2,-11 -5,-59 -17,-105 z m 120,51 c 0,-14 4,-18 13,-13 9,6 9,4 1,-7 -6,-8 -14,-41 -18,-74 -4,-40 -3,-53 3,-40 7,15 10,6 10,-37 1,-33 -4,-60 -10,-64 -9,-5 -10,1 -5,21 5,19 2,33 -9,45 -9,10 -15,21 -14,26 3,11 -10,159 -17,194 l -4,25 25,-28 c 14,-15 25,-37 25,-48 z m 490,16 c -9,-11 -10,-37 -5,-91 6,-62 4,-78 -9,-93 -10,-10 -14,-25 -10,-35 6,-16 8,-16 24,-1 15,13 23,14 39,5 12,-6 19,-15 16,-21 -4,-5 -1,-9 4,-9 18,0 12,-27 -7,-32 -28,-8 -59,8 -77,39 -14,24 -15,25 -12,5 3,-13 1,-20 -5,-16 -6,4 -7,25 -3,58 5,28 9,83 10,121 0,51 6,78 20,100 19,28 20,29 23,7 2,-13 -2,-30 -8,-37 z m -629,-23 c -12,-34 -18,-69 -15,-79 4,-14 4,-15 -4,-4 -7,10 -12,5 -21,-22 -7,-20 -23,-52 -36,-71 -13,-19 -20,-38 -17,-42 4,-4 1,-4 -5,0 -8,4 -13,1 -13,-8 0,-9 -4,-16 -10,-16 -15,0 -11,32 8,61 9,14 27,41 40,60 12,19 37,69 54,111 17,43 33,76 35,74 2,-2 -5,-31 -16,-64 z m 747,42 c 7,4 11,-20 14,-76 1,-25 2,-26 14,-10 7,9 16,14 20,9 4,-4 2,-7 -4,-7 -7,0 -12,-5 -12,-10 0,-6 4,-9 9,-8 10,3 82,-84 76,-91 -8,-7 -36,22 -56,58 -18,33 -19,27 -2,-16 4,-11 3,-14 -5,-9 -20,12 -14,2 23,-38 21,-24 35,-49 35,-65 0,-25 -1,-25 -35,14 -19,22 -33,47 -32,55 1,8 -4,14 -11,12 -8,-1 -11,2 -8,6 3,5 -6,38 -20,72 -26,65 -44,152 -23,117 6,-9 13,-16 17,-13 z m -768,-15 c 0,8 2,12 5,9 9,-9 -7,-38 -17,-32 -6,4 -8,-1 -4,-12 7,-23 -50,-128 -64,-119 -6,4 -10,1 -10,-6 0,-15 -53,-98 -62,-99 -16,0 -6,22 38,87 26,38 51,67 57,65 5,-2 7,4 3,13 -4,11 -2,14 6,9 8,-5 9,-2 5,9 -4,10 -2,16 5,14 6,-1 13,4 16,12 2,8 0,11 -6,7 -7,-4 -6,4 1,24 7,20 14,25 19,17 6,-9 8,-8 8,2 z m 600,-100 c 0,-52 -3,-70 -12,-67 -18,6 -22,56 -7,100 7,21 14,38 16,38 1,0 3,-32 3,-71 z m -404,-57 c -15,-15 -16,-11 -15,48 l 1,65 15,-49 c 13,-44 13,-50 -1,-64 z m -121,-12 c -11,-24 -14,-27 -11,-10 4,14 9,43 13,65 7,38 8,38 11,10 2,-17 -4,-46 -13,-65 z m 45,-15 c 5,3 14,-3 19,-14 24,-44 -29,-102 -72,-79 -25,13 -5,37 32,39 23,2 24,2 4,6 -13,2 -23,9 -23,14 0,13 34,11 49,-3 11,-11 12,-10 6,0 -4,7 -18,17 -31,22 -16,7 -22,14 -17,26 5,15 7,15 15,0 5,-9 13,-14 18,-11 z m 682,-17 c 33,-45 41,-68 23,-68 -18,0 -77,79 -69,91 9,16 21,10 46,-23 z m 112,-10 c 21,-30 22,-55 1,-38 -8,7 -13,16 -10,20 3,4 -2,10 -10,14 -8,3 -15,10 -15,16 0,17 18,11 34,-12 z"
       id="path1" />
    <path
       d="m 1318,4698 c 12,-15 9,-17 -30,-21 -24,-2 -17,-3 16,-2 32,2 63,9 70,15 8,9 6,11 -12,5 -14,-4 -30,-1 -40,7 -15,12 -16,11 -4,-4 z"
       id="path2" />
    <path
       d="m 1230,4630 c 25,-8 167,-13 159,-6 -2,2 -44,6 -94,8 -49,3 -79,2 -65,-2 z"
       id="path3" />
    <path
       d="m 1525,4628 c 4,-10 21,-15 48,-15 39,-1 40,0 12,7 -16,4 -38,11 -48,15 -13,5 -16,3 -12,-7 z"
       id="path4" />
    <path
       d="m 1270,4592 c 37,-13 120,-23 94,-12 -12,4 -43,11 -70,14 -32,4 -41,3 -24,-2 z"
       id="path5" />
    <path
       d="m 1650,5043 c 0,-30 34,-84 79,-126 63,-59 79,-62 24,-4 -23,23 -55,64 -72,91 -17,28 -31,45 -31,39 z"
       id="path6" />
    <path
       d="m 1649,4963 c 6,-12 16,-25 21,-28 6,-3 10,-11 10,-17 0,-6 -7,-5 -17,3 -10,7 -1,-5 19,-26 51,-54 56,-40 8,25 -46,62 -57,73 -41,43 z"
       id="path7" />
    <path
       d="m 976,4803 c -4,-4 -14,-8 -22,-8 -8,0 -24,-16 -35,-35 l -21,-35 32,35 c 29,32 31,33 25,10 -5,-20 -4,-22 5,-10 26,36 36,63 16,43 z"
       id="path8" />
    <path
       d="m 834,4639 c -14,-28 -24,-53 -22,-55 2,-2 16,21 31,51 15,30 25,55 22,55 -3,0 -16,-23 -31,-51 z"
       id="path9" />
    <path
       d="m 2033,4677 c 37,-48 48,-75 25,-61 -7,5 -8,3 -3,-5 5,-9 11,-9 17,-3 12,12 -18,66 -53,98 -12,10 -6,-3 14,-29 z"
       id="path10" />
    <path
       d="m 1865,4560 c 6,-10 4,-12 -9,-7 -12,5 -39,-6 -79,-30 -66,-40 -163,-83 -187,-82 -9,0 -5,6 10,14 14,8 21,14 15,14 -18,0 -61,-28 -45,-29 8,-1 -1,-7 -20,-14 -31,-11 -32,-13 -12,-18 12,-4 20,-3 17,1 -2,4 30,18 71,31 41,12 102,40 135,61 33,22 61,39 63,39 11,0 -3,-32 -20,-46 -10,-9 13,1 51,22 91,48 99,56 26,26 -9,-3 -12,-1 -7,6 3,6 1,14 -5,18 -8,5 -9,3 -4,-6 z"
       id="path11" />
    <path
       d="m 1767,4325 c -30,-17 -35,-24 -22,-29 17,-6 61,12 51,21 -3,4 -1,12 5,20 15,17 12,16 -34,-12 z"
       id="path12" />
    <path
       d="m 1105,4545 c 84,-51 153,-84 220,-105 39,-12 77,-24 85,-26 8,-3 4,2 -10,11 l -25,16 25,-5 c 24,-5 24,-4 6,9 -23,17 -40,20 -31,5 3,-5 2,-10 -3,-10 -26,0 -156,53 -218,89 -75,44 -117,57 -49,16 z"
       id="path13" />
    <path
       d="m 1030,4546 c 0,-8 91,-57 100,-54 5,2 -15,15 -45,30 -30,15 -55,26 -55,24 z"
       id="path14" />
    <path
       d="m 807,4379 c -16,-39 -26,-73 -24,-75 2,-2 16,28 32,67 15,38 25,72 23,74 -2,2 -16,-28 -31,-66 z"
       id="path15" />
    <path
       d="m 816,4218 c -32,-82 -56,-151 -54,-153 6,-6 120,285 116,295 -2,4 -29,-60 -62,-142 z"
       id="path16" />
    <path
       d="m 2106,4200 c 4,-14 15,-43 25,-65 11,-22 16,-29 13,-15 -4,14 -15,43 -25,65 -11,22 -16,29 -13,15 z"
       id="path18" />
    <path
       d="m 1475,4127 c -17,-42 -19,-104 -5,-142 8,-22 13,-25 24,-16 10,8 16,9 21,1 3,-5 17,-10 30,-10 17,0 22,5 20,18 -2,9 -4,24 -4,32 -1,10 -6,7 -17,-9 -12,-16 -19,-20 -27,-12 -6,6 -15,7 -22,1 -16,-13 -20,127 -4,146 6,8 9,17 6,21 -4,3 -14,-10 -22,-30 z"
       id="path19" />
    <path
       d="m 1414,4125 c 10,-15 16,-44 15,-77 -1,-42 -3,-48 -9,-28 l -8,25 -1,-26 c -1,-22 -6,-26 -31,-27 -17,0 -28,3 -26,7 3,4 1,13 -5,21 -7,12 -9,11 -9,-5 1,-11 7,-29 15,-39 12,-16 17,-17 30,-6 8,7 18,10 22,7 17,-17 33,19 33,75 0,60 -12,98 -32,98 -6,0 -4,-10 6,-25 z"
       id="path20" />
    <path
       d="m 1238,4036 c -9,-57 0,-126 16,-126 7,0 21,7 32,15 10,8 26,15 35,15 23,0 32,27 12,35 -14,5 -32,-9 -33,-25 0,-3 -11,-10 -25,-16 l -24,-12 -3,82 c -3,77 -3,78 -10,32 z"
       id="path21" />
    <path
       d="m 1584,3983 c -9,-36 -8,-39 23,-55 18,-10 36,-18 39,-18 9,0 -2,25 -12,26 -30,3 -40,16 -36,49 5,46 -2,45 -14,-2 z"
       id="path22" />
    <path
       d="m 1361,3939 c -13,-5 -22,-12 -19,-14 3,-3 18,-1 34,5 40,16 54,-7 54,-87 0,-53 -3,-64 -21,-73 -15,-9 -24,-8 -35,1 -11,9 -14,8 -14,-5 0,-18 31,-21 61,-6 16,9 19,22 19,81 0,103 -16,123 -79,98 z"
       id="path23" />
    <path
       d="m 1322,3720 c -54,-8 -64,-19 -59,-61 l 4,-34 1,37 c 2,35 4,37 45,43 105,14 112,13 115,-21 2,-19 -3,-36 -12,-44 -18,-14 -21,-46 -6,-55 6,-4 8,-11 5,-16 -4,-5 7,-6 25,-3 20,4 30,3 30,-5 0,-7 5,-9 11,-6 6,4 8,14 5,22 -3,8 -1,11 4,8 15,-9 12,18 -5,42 -10,14 -13,32 -9,52 6,30 17,36 57,33 10,-1 15,3 12,8 -7,12 -45,13 -61,2 -7,-4 -16,-24 -22,-45 -9,-30 -8,-39 3,-43 7,-3 16,-13 20,-22 5,-14 4,-15 -6,-4 -18,17 -46,15 -58,-5 -9,-16 -10,-16 -11,-2 0,9 7,22 15,29 11,9 15,27 13,54 -3,39 -4,41 -38,42 -19,0 -54,-3 -78,-6 z"
       id="path24" />
    <path
       d="m 1040,3654 c 0,-5 27,-51 59,-102 55,-86 58,-95 48,-123 l -11,-29 -19,32 c -10,18 -16,24 -12,14 3,-11 0,-24 -7,-29 -9,-6 -8,-7 4,-3 12,3 18,-2 20,-17 2,-12 11,-23 21,-25 10,-2 17,0 16,5 -1,4 -1,19 0,32 1,20 3,22 16,11 13,-11 14,-10 9,5 -6,14 -4,16 7,10 10,-7 9,-2 -3,17 -13,19 -15,29 -6,34 7,5 8,3 3,-6 -5,-8 -4,-11 2,-7 5,3 10,24 11,46 2,34 -3,43 -31,62 -20,15 -27,17 -19,6 8,-9 17,-32 22,-51 11,-51 -14,-56 -44,-8 -75,119 -86,135 -86,126 z"
       id="path25" />
    <path
       d="m 1725,3570 c -10,-11 -19,-28 -20,-38 0,-9 -4,-23 -9,-30 -4,-6 -5,-12 -1,-12 3,0 1,-9 -5,-20 -8,-14 -8,-20 0,-20 7,0 9,-9 5,-22 -5,-18 2,-14 29,17 38,43 41,60 5,26 -12,-11 -24,-19 -26,-18 -6,7 27,64 48,83 11,10 25,28 31,39 7,15 4,13 -14,-6 -42,-46 -65,-57 -34,-16 30,39 23,52 -9,17 z"
       id="path26" />
    <path
       d="m 1443,3340 c -1,-141 2,-177 9,-153 7,22 8,81 1,185 l -10,153 z"
       id="path27" />
    <path
       d="m 1817,3506 c -4,-9 -3,-23 0,-33 5,-12 3,-14 -7,-8 -9,5 -11,4 -6,-3 4,-6 0,-26 -9,-43 -9,-17 -12,-28 -6,-25 19,12 51,97 42,113 -7,13 -9,13 -14,-1 z"
       id="path28" />
    <path
       d="m 1322,3465 c 0,-16 4,-43 8,-60 11,-42 11,-1 1,50 -7,34 -9,35 -9,10 z"
       id="path29" />
    <path
       d="m 1731,3430 c -25,-35 -21,-81 5,-59 8,6 14,18 14,26 0,8 4,12 9,8 6,-3 15,5 21,17 9,19 9,21 -2,8 -13,-15 -38,-25 -38,-14 0,3 5,14 10,25 16,28 7,23 -19,-11 z"
       id="path30" />
    <path
       d="m 1382,3205 c 0,-34 15,-88 18,-65 1,8 1,20 0,25 -2,6 -6,24 -10,40 l -8,30 z"
       id="path31" />
    <path
       d="m 541,3795 c 0,-33 3,-66 7,-73 5,-7 7,16 4,50 -5,85 -10,96 -11,23 z"
       id="path32" />
    <path
       d="m 2353,3705 c 0,-33 2,-45 4,-27 2,18 2,45 0,60 -2,15 -4,0 -4,-33 z"
       id="path33" />
    <path
       d="m 2336,3368 c 37,-61 64,-100 64,-93 0,10 -60,105 -67,105 -2,0 -1,-6 3,-12 z"
       id="path34" />
    <path
       d="m 1065,2727 c -4,-31 -5,-62 -3,-69 3,-7 8,16 12,51 4,35 5,65 2,68 -2,3 -7,-20 -11,-50 z"
       id="path35" />
    <path
       d="m 1053,2560 c 0,-47 2,-66 4,-42 2,23 2,61 0,85 -2,23 -4,4 -4,-43 z"
       id="path36" />
    <path
       d="m 1092,2550 c 0,-19 4,-48 8,-65 7,-27 8,-28 8,-5 1,14 -3,43 -7,65 l -9,40 z"
       id="path37" />
    <path
       d="m 1188,2446 c -5,-27 -7,-79 -7,-115 l 2,-66 8,80 c 5,44 8,96 7,115 -3,32 -4,31 -10,-14 z"
       id="path38" />
    <path
       d="m 1067,2264 c -10,-10 -9,-42 2,-48 5,-3 11,0 14,7 6,16 -7,50 -16,41 z"
       id="path39" />
    <path
       d="m 1796,2865 c 3,-27 12,-79 19,-115 12,-57 13,-59 9,-15 -3,28 -12,79 -19,115 -12,57 -13,59 -9,15 z"
       id="path40" />
    <path
       d="m 1763,2530 c 0,-47 2,-66 4,-42 2,23 2,61 0,85 -2,23 -4,4 -4,-43 z"
       id="path41" />
    <path
       d="m 1707,2388 c 11,-88 31,-171 32,-138 0,8 -6,51 -14,95 -8,44 -15,92 -15,108 0,15 -4,27 -8,27 -4,0 -2,-42 5,-92 z"
       id="path42" />
    <path
       d="m 1761,2130 c 0,-43 2,-51 10,-37 7,12 8,30 1,55 -10,37 -10,37 -11,-18 z"
       id="path43" />
    <path
       d="m 1691,1732 c -17,-31 -13,-48 14,-79 l 26,-28 -21,37 c -17,30 -19,41 -10,58 6,12 9,24 7,27 -3,2 -10,-4 -16,-15 z"
       id="path44" />
    <path
       d="m 1943,2690 c 0,-36 2,-50 4,-32 2,17 2,47 0,65 -2,17 -4,3 -4,-33 z"
       id="path45" />
    <path
       d="m 941,2719 c 1,-19 5,-47 10,-64 5,-20 6,-9 2,30 -6,66 -14,88 -12,34 z"
       id="path46" />
    <path
       d="m 1055,1455 c 3,-16 14,-99 25,-183 19,-149 49,-296 57,-288 3,2 -4,49 -16,103 -11,54 -28,157 -37,228 -9,72 -20,139 -25,150 -7,15 -8,13 -4,-10 z"
       id="path47" />
    <path
       d="m 1890,1469 c 0,-8 -7,-68 -15,-134 -17,-138 -17,-148 -4,-117 11,29 33,252 25,260 -3,3 -6,-1 -6,-9 z"
       id="path48" />
    <path
       d="m 1821,1110 c -7,-50 -11,-94 -8,-96 6,-7 30,162 25,177 -2,6 -10,-30 -17,-81 z"
       id="path49" />
    <path
       d="m 1944,1310 c 0,-58 1,-81 3,-52 2,28 2,76 0,105 -2,28 -3,5 -3,-53 z"
       id="path50" />
    <path
       style="fill:none"
       d="m 100.61813,78.139614 28.36575,-11.774462 9.09845,18.732099 z"
       id="path52"
       transform="matrix(9.0039927,0,0,-12.382397,86.915615,5890)" />
    <path
       d="m 1816,345 c 7,-108 15,-148 26,-137 6,6 4,38 -6,88 -23,119 -26,125 -20,49 z"
       id="path51" />
    <path
       style="fill:none;stroke-width:10.5589"
       d="m 1633.5869,5085.89 287.6432,-188.058 -334.7977,-71.3323 z"
       id="path53" />
    <path
       style="fill:none;stroke-width:10.5589"
       d="m 1938.1987,4511.7649 c 32.4787,-299.8937 -88.1563,-57.4264 27.8388,-299.8937 115.9952,-242.4673 -18.5592,-140.3758 115.9952,-242.4673 134.5544,-102.0915 55.6778,-293.5129 134.5544,-95.7107 78.8768,197.8022 32.4787,427.5081 78.8768,197.8022"
       id="path54" />
    <path
       style="fill:none;stroke-width:10.5589"
       d="m 987.67557,4897.4962 269.95253,-49.2464 -2.7546,204.5618 z"
       id="path55"
       sodipodi:nodetypes="cccc" />
  </g>
  <path
     style="fill:none"
     d="m 170.34079,64.527662 0.30582,20.795645 33.3342,-6.116367 z"
     id="maleFrontUpperTrapLeft"
     inkscape:label="maleFrontUpperTrapLeft" />
  <path
     style="fill:none"
     d="m 98.561365,79.958724 34.594385,6.20088 -4.24271,-19.255366 z"
     id="maleFrontUpperTrapRight"
     inkscape:label="maleFrontUpperTrapRight" />
  <path
     style="fill:none"
     d="m 94.609387,101.9679 c 2.793611,11.99387 7.888893,20.88453 14.717013,26.28038 4.90567,0.87601 9.81135,1.75203 14.71702,2.62804 7.0081,-1.22642 14.01621,-2.45284 21.02431,-3.67926 1.75202,-2.97844 3.50405,-5.95689 5.25607,-8.93533 -0.70081,-8.40972 -1.40162,-16.81944 -2.10243,-25.229166 -9.98655,-1.752026 -19.97309,-3.504051 -29.95964,-5.256077 -9.99776,3.409439 -17.35347,8.668323 -23.652343,14.191413 z"
     id="malePecRight"
     sodipodi:nodetypes="cccccccc"
     inkscape:label="malePecRight" />
  <path
     style="fill:none"
     d="m 156.99407,126.72993 25.41645,5.89921 15.06425,-5.27047 12.67619,-24.78896 -29.73519,-14.032341 -23.05313,4.677446 -1.79553,17.421085 c -1.93826,5.80357 -0.80427,10.72936 1.42696,16.09403 z"
     id="malePecLeft"
     sodipodi:nodetypes="cccccccc"
     inkscape:label="malePecLeft" />
  <path
     style="fill:none"
     d="m 129.32984,131.85159 c 4.92342,-1.56108 9.84684,-3.12217 14.77026,-4.68325 4.65886,0.006 9.31771,0.0122 13.97657,0.0183 4.58757,2.27548 9.17513,4.55097 13.7627,6.82645 3.13883,13.96415 3.53356,29.30035 3.24225,43.95053 -1.1186,12.00834 -3.80467,25.19228 -8.64601,36.02502 -10.23149,0.21577 -20.46297,0.43154 -30.69446,0.64731 -2.84541,-7.18671 -5.69082,-14.37341 -8.53622,-21.56012 0.7083,-20.40808 1.41661,-40.81616 2.12491,-61.22424 z"
     id="maleAbs"
     sodipodi:nodetypes="ccccccccc"
     inkscape:label="maleAbs" />
  <path
     style="fill:none"
     d="m 183.42259,88.389287 c 16.71615,10.231434 33.43229,20.462863 50.14844,30.694303 3.37523,-4.60363 4.58117,-11.96818 3.0262,-20.318765 -4.70984,-8.024479 -11.39175,-14.076876 -19.45413,-18.157192 -14.97249,0.727724 -24.15988,2.948376 -33.72051,7.781654 z"
     id="maleLeftDeltoid"
     sodipodi:nodetypes="ccccc"
     inkscape:label="maleLeftDeltoid" />
  <path
     style="fill:none"
     d="m 68.990842,117.75057 c 6.722471,-3.53814 13.444942,-7.07629 20.167414,-10.61443 8.609481,-7.4301 17.218964,-14.8602 25.828444,-22.290299 -5.5248,-4.545349 -13.59,-6.126897 -22.290301,-6.014843 -8.180197,3.65608 -14.031692,6.465361 -19.459786,10.968242 -3.15721,3.98572 -4.83252,7.54804 -5.661028,11.32206 -0.586749,5.75479 -0.326696,11.50958 1.415257,16.62927 z"
     id="maleRightDeltoid"
     sodipodi:nodetypes="ccccccc"
     inkscape:label="maleRightDeltoid" />
  <path
     style="fill:none"
     d="m 97.04904,199.92102 c 19.35633,6.63036 35.63879,21.45774 51.92124,38.33437 -1.34746,27.62355 -5.49972,51.32797 -10.19015,75.69825 -13.42512,-0.97049 -26.85024,-1.94098 -40.275355,-2.91147 -3.558465,-22.64478 -8.604821,-44.54561 -10.675394,-67.93433 3.07322,-14.39561 6.146439,-28.79121 9.219659,-43.18682 z"
     id="maleRightQuad"
     sodipodi:nodetypes="cccccc"
     inkscape:label="maleRightQuad" />
  <path
     style="fill:none"
     d="m 158.83485,230.08462 c 14.36581,-10.4268 26.98257,-22.60264 43.09742,-31.28039 3.35975,14.48166 6.71949,28.96332 10.07924,43.44498 -1.03144,22.70724 -3.1123,45.41449 -8.34144,68.12173 -13.78654,0.57927 -27.57308,1.15853 -41.35962,1.7378 -0.23171,-7.53046 -0.46341,-15.06093 -0.69512,-22.59139 -3.4801,-13.89565 -7.65981,-29.19053 -8.34144,-44.83522 1.85365,-4.86584 3.70731,-9.73167 5.56096,-14.59751 z"
     id="maleLeftQuad"
     inkscape:label="maleLeftQuad"
     sodipodi:nodetypes="cccccccc" />
  <path
     style="fill:none"
     d="m 221.92083,110.05239 c -5.206,-0.36321 -10.41199,-0.72641 -15.61799,-1.08962 0.48428,19.73437 6.41669,35.47343 15.61799,48.30682 13.43874,7.02204 22.51898,2.05818 21.79256,-10.53307 -2.90568,-9.2013 -5.81135,-18.4026 -8.71703,-27.6039 -4.35851,-3.02674 -8.71702,-6.05349 -13.07553,-9.08023 z"
     id="maleLeftBicep"
     sodipodi:nodetypes="cccccc"
     inkscape:label="maleLeftBicep" />
  <path
     style="fill:none"
     d="m 88.29983,107.24676 c -6.673132,3.57489 -13.807971,9.45832 -20.019395,10.72467 -3.336566,10.12886 -6.673131,20.25772 -10.009697,30.38658 4.528196,8.22225 12.273795,11.08217 21.091862,9.65221 5.004849,-5.82191 11.167324,-12.51205 15.014546,-21.80684 0.834142,-12.51212 5.600664,-30.02909 -6.077316,-28.95662 z"
     id="maleRightBicep"
     sodipodi:nodetypes="cccccc"
     inkscape:label="maleRightBicep" />
  <path
     style="fill:none"
     d="m 136.45856,350.00423 c -10.33759,8.77804 -11.7645,17.06104 -12.44885,26.33411 1.75561,11.33165 3.51121,22.66329 5.26682,33.99494 4.82049,-10.22118 7.66083,-24.8977 11.49125,-37.34655 0.29622,-8.89843 -0.89266,-15.56919 -4.30922,-22.9825 z"
     id="maleRightCalfFront"
     sodipodi:nodetypes="ccccc"
     inkscape:label="maleRightCalfFront" />
  <path
     style="fill:none"
     d="m 169.91918,349.12075 c 5.07093,4.46929 9.62618,9.45428 11.34514,15.72848 3.43792,8.33695 2.49249,17.70529 1.03137,27.33146 -0.85948,7.21963 -1.71896,14.43927 -2.57844,21.6589 -3.00818,-9.96997 -6.01636,-19.93994 -9.02454,-29.90991 -2.57844,-10.5716 -3.60981,-21.65889 -0.77353,-34.80893 z"
     id="maleLeftCalfFront"
     sodipodi:nodetypes="cccccc"
     inkscape:label="maleLeftCalfFront" />
  <path
     style="fill:none"
     d="m 36.533143,190.74918 c 6.76988,3.38494 13.53976,6.76988 20.30964,10.15482 3.484497,-3.58406 6.968994,-7.16812 10.453491,-10.75217 4.473623,-5.59453 8.159382,-12.96175 11.648175,-22.10166 -9.358363,-3.98229 -18.716727,-7.96457 -28.07509,-11.94685 -6.748399,12.13951 -11.133206,22.90027 -14.336216,34.64586 z"
     id="maleRightForearm"
     sodipodi:nodetypes="cccccc"
     inkscape:label="maleRightForearm" />
  <path
     style="fill:none"
     d="m 223.35607,164.40045 c 8.74378,-3.20317 17.48757,-6.40633 26.23135,-9.6095 3.44482,2.66039 6.72553,6.79779 9.34979,11.42752 3.46288,10.5618 6.92577,21.12359 10.38865,31.68539 -6.75262,2.85688 -13.50525,5.71376 -20.25787,8.57064 -4.93461,-6.49291 -9.86923,-12.98581 -14.80384,-19.47872 -4.6207,-6.54711 -7.27205,-15.06355 -10.90808,-22.59533 z"
     id="maleLeftForearm"
     sodipodi:nodetypes="ccccccc"
     inkscape:label="maleLeftForearm" />
</svg>
