<?xml version="1.0" encoding="UTF-8" standalone="no"?>
<svg
   version="1.0"
   width="300px"
   height="470px"
   viewBox="0 0 300 470"
   preserveAspectRatio="xMidYMid meet"
   id="svg57"
   sodipodi:docname="MaleRearMusclesOG.svg"
   inkscape:version="1.4 (e7c3feb1, 2024-10-09)"
   xmlns:inkscape="http://www.inkscape.org/namespaces/inkscape"
   xmlns:sodipodi="http://sodipodi.sourceforge.net/DTD/sodipodi-0.dtd"
   xmlns="http://www.w3.org/2000/svg"
   xmlns:svg="http://www.w3.org/2000/svg">
  <defs
     id="defs57" />
  <sodipodi:namedview
     id="namedview57"
     pagecolor="#ffffff"
     bordercolor="#000000"
     borderopacity="0.25"
     inkscape:showpageshadow="2"
     inkscape:pageopacity="0.0"
     inkscape:pagecheckerboard="0"
     inkscape:deskcolor="#d1d1d1"
     showgrid="true"
     inkscape:zoom="1.9385178"
     inkscape:cx="159.40014"
     inkscape:cy="167.13801"
     inkscape:window-width="1104"
     inkscape:window-height="669"
     inkscape:window-x="135"
     inkscape:window-y="132"
     inkscape:window-maximized="0"
     inkscape:current-layer="svg57">
    <inkscape:grid
       id="grid57"
       units="px"
       originx="0"
       originy="0"
       spacingx="1"
       spacingy="1"
       empcolor="#0099e5"
       empopacity="0.30196078"
       color="#0099e5"
       opacity="0.14901961"
       empspacing="5"
       enabled="true"
       visible="true" />
  </sodipodi:namedview>
  <metadata
     id="metadata1">
Created by potrace 1.10, written by Peter Selinger 2001-2011
</metadata>
  <g
     fill="#000000"
     stroke="none"
     id="g57"
     transform="matrix(0.11331957,0,0,-0.08308593,-22.960768,480.96478)">
    <path
       d="m 1401,5773 c -57,-21 -123,-87 -139,-139 -6,-23 -12,-68 -12,-101 0,-52 -3,-61 -20,-66 -15,-4 -20,-14 -20,-41 0,-50 36,-141 63,-159 51,-33 60,-229 14,-279 -60,-64 -210,-144 -288,-153 -97,-11 -180,-76 -230,-180 -35,-74 -46,-162 -30,-245 10,-52 10,-67 -4,-103 -8,-23 -29,-104 -45,-181 -27,-125 -34,-145 -79,-216 -66,-102 -73,-121 -126,-355 -74,-324 -100,-391 -189,-473 -25,-24 -46,-50 -46,-59 0,-8 -6,-27 -14,-41 -18,-35 -39,-112 -32,-120 14,-13 57,19 63,48 3,17 10,33 16,37 6,4 8,-3 4,-18 -17,-64 -38,-272 -29,-281 19,-19 39,0 46,44 11,72 29,148 35,148 3,0 5,-56 3,-125 -3,-108 -1,-126 13,-131 9,-4 19,-4 22,0 3,3 12,60 18,126 7,67 16,124 19,127 3,4 6,-46 6,-110 0,-112 8,-143 31,-120 5,5 14,56 18,112 5,57 11,105 14,107 3,3 8,-26 12,-64 7,-73 17,-98 32,-89 9,6 16,110 26,379 3,69 9,87 54,180 28,57 73,140 100,185 74,121 153,331 153,408 0,26 17,68 56,142 31,58 62,124 69,147 l 12,41 11,-35 c 6,-19 22,-66 36,-105 31,-87 60,-263 53,-318 -13,-101 -40,-250 -63,-342 -13,-56 -24,-115 -24,-131 0,-17 -11,-89 -24,-160 -39,-211 -40,-253 -11,-534 28,-278 37,-346 61,-460 23,-109 6,-390 -33,-545 -37,-148 -37,-295 0,-475 58,-286 70,-378 62,-495 -3,-60 -6,-133 -5,-161 1,-43 -4,-57 -27,-85 -38,-46 -85,-87 -105,-94 -21,-7 -33,-44 -19,-58 5,-5 56,-12 113,-14 57,-2 126,-5 155,-6 95,-4 128,44 103,149 -11,44 -10,59 5,107 16,52 16,58 0,107 -26,79 -35,176 -24,260 16,121 57,320 80,390 19,56 22,83 19,200 -6,278 -5,294 18,395 15,65 26,161 32,276 5,96 21,243 35,325 26,151 49,421 39,449 -4,9 0,15 8,15 12,0 16,-24 22,-117 6,-117 15,-178 56,-363 11,-54 22,-151 25,-225 3,-71 13,-207 22,-302 l 17,-172 -24,-118 c -31,-155 -32,-283 -3,-383 67,-233 88,-501 49,-624 -16,-53 -17,-65 -5,-114 10,-44 10,-62 0,-95 -25,-84 -25,-104 2,-131 33,-33 87,-42 162,-27 46,9 81,10 141,2 88,-12 156,2 162,33 4,18 -31,49 -86,79 -50,27 -50,13 0,-18 25,-15 33,-24 19,-20 -20,6 -23,4 -18,-9 5,-13 3,-16 -11,-12 -9,3 -30,8 -47,12 -33,7 -61,29 -77,58 -7,13 -1,11 25,-10 19,-15 41,-29 49,-30 7,-1 22,-5 33,-9 14,-5 16,-4 6,3 -11,8 -11,10 0,15 8,3 -1,4 -19,2 -21,-2 -30,0 -26,7 5,7 2,8 -6,3 -9,-6 -11,-4 -5,5 6,9 4,11 -4,5 -14,-8 -70,51 -70,75 0,10 6,7 20,-10 l 20,-25 -16,35 c -16,33 -16,34 0,18 10,-9 19,-28 21,-43 1,-15 8,-33 15,-39 9,-8 10,-6 5,9 -4,14 0,12 15,-7 11,-16 25,-28 31,-28 6,0 6,6 -2,15 -7,8 -9,15 -5,15 4,0 -6,12 -22,28 -16,15 -42,49 -58,76 -27,46 -28,54 -28,170 0,117 17,239 73,534 25,130 26,324 3,464 -15,94 -15,107 0,192 9,50 18,132 21,181 2,50 13,126 24,170 32,124 40,190 57,473 16,275 15,311 -15,482 -10,58 -21,130 -24,160 -4,30 -17,102 -31,160 -37,163 -50,272 -50,430 1,133 3,153 30,237 28,87 45,116 45,76 0,-9 25,-64 56,-121 38,-72 57,-122 61,-156 6,-53 64,-238 91,-291 8,-16 55,-92 104,-168 121,-187 150,-252 159,-352 24,-264 31,-331 40,-340 16,-16 29,15 30,75 1,69 17,116 19,55 2,-60 26,-185 38,-197 6,-6 16,-7 22,-3 9,5 10,40 6,124 l -6,116 28,-130 c 24,-113 30,-130 47,-130 28,0 30,37 10,158 -9,54 -14,101 -12,103 3,3 19,-35 36,-83 37,-106 43,-117 65,-121 11,-2 16,4 16,20 0,24 -4,39 -39,173 -12,44 -24,89 -27,100 -2,11 3,7 12,-10 25,-45 45,-65 66,-65 10,0 18,3 18,8 0,4 -16,47 -37,95 -32,76 -44,93 -89,127 -28,21 -63,58 -77,82 -32,56 -83,205 -143,423 -46,169 -72,234 -124,310 -34,50 -43,78 -76,240 -14,72 -32,145 -40,164 -12,28 -12,48 -2,116 10,71 9,92 -5,150 -35,141 -144,255 -245,255 -56,0 -207,76 -269,135 -41,40 -43,44 -43,101 1,35 6,67 15,78 8,10 17,39 21,65 3,25 15,56 26,68 26,28 59,152 47,176 -6,9 -14,17 -19,17 -6,0 -5,-8 2,-19 8,-14 9,-31 1,-62 l -10,-44 -1,50 c 0,28 -5,94 -9,147 -8,85 -12,102 -40,140 -64,90 -219,132 -332,91 z m 224,-23 c 44,-18 102,-72 115,-104 4,-12 6,-48 4,-81 -2,-54 -2,-56 6,-20 7,34 8,30 5,-25 -6,-122 -17,-155 -73,-214 -29,-30 -52,-61 -53,-68 0,-7 -4,-4 -8,7 -5,11 -4,25 1,32 7,8 -2,10 -34,6 -49,-6 -64,-21 -79,-78 -20,-72 28,-182 118,-266 41,-40 181,-134 213,-144 11,-4 20,-10 20,-15 0,-14 -32,-23 -110,-30 l -75,-7 65,-1 c 78,-2 150,22 150,50 0,10 11,23 24,29 20,9 31,7 70,-16 34,-20 55,-26 76,-21 25,4 30,2 30,-13 0,-15 -10,-19 -67,-23 -81,-6 -164,-39 -198,-80 -14,-16 -26,-26 -26,-21 -4,30 -2,39 11,51 13,11 13,11 -1,6 -9,-3 -31,-24 -50,-47 -24,-32 -26,-36 -7,-19 20,18 27,20 36,9 8,-10 8,-25 -3,-60 -8,-26 -18,-92 -23,-147 -12,-137 -49,-210 -174,-347 -51,-56 -93,-101 -94,-100 -2,1 -3,94 -4,207 -1,113 -6,220 -12,238 -8,27 -7,37 7,52 17,18 16,21 -9,64 -26,44 -35,96 -17,96 14,0 23,-37 16,-61 -5,-15 -4,-19 4,-15 14,9 15,63 1,71 -6,4 -5,16 4,33 9,18 11,35 5,50 -5,13 -6,35 -3,48 3,13 1,31 -6,39 -9,11 -8,19 4,37 14,20 14,23 0,39 -14,16 -14,20 0,41 14,22 14,26 1,44 -15,18 -15,18 -29,1 -11,-15 -12,-24 -4,-43 9,-18 8,-30 -2,-50 -11,-20 -12,-29 -2,-45 7,-10 8,-19 3,-19 -17,0 -20,-28 -5,-47 13,-17 14,-16 8,8 -7,32 12,48 21,19 4,-14 -2,-30 -18,-50 -16,-19 -23,-37 -20,-50 9,-32 21,-33 19,0 -1,32 17,46 22,16 2,-10 -5,-31 -17,-47 -12,-15 -21,-35 -21,-43 0,-8 -5,-18 -10,-21 -6,-4 -9,-1 -8,6 4,17 -90,87 -116,86 -11,0 -30,3 -41,7 -11,4 -3,-2 18,-14 22,-12 41,-20 43,-17 2,2 25,-14 50,-37 25,-23 51,-41 57,-41 8,0 12,-29 12,-97 0,-53 3,-100 8,-104 4,-4 4,8 1,27 -5,25 -4,31 5,24 6,-6 11,-22 11,-35 0,-50 0,-66 4,-140 7,-146 9,-381 2,-387 -3,-3 -6,17 -6,46 0,68 -13,91 -119,211 -117,132 -146,189 -157,305 -5,50 -8,103 -6,118 1,16 -2,26 -6,23 -5,-3 -9,7 -9,22 -1,60 -17,107 -33,97 -4,-3 0,-23 11,-45 10,-21 19,-45 19,-52 0,-7 -10,8 -22,32 -27,52 -82,84 -176,101 -79,15 -82,16 -76,32 4,11 17,13 48,10 27,-4 46,-1 51,6 5,9 12,8 26,-5 12,-11 28,-15 46,-11 15,3 37,0 48,-6 23,-12 178,-47 184,-41 2,2 -11,7 -30,11 -33,7 -33,7 -9,15 21,6 19,7 -8,3 -18,-3 -55,0 -83,6 -39,8 -52,17 -59,35 -5,13 -14,24 -20,24 -24,0 -6,17 47,45 31,16 83,48 114,72 50,37 63,53 102,135 24,51 52,115 62,141 22,58 34,50 42,-26 5,-48 2,-62 -20,-99 -68,-117 -154,-193 -273,-244 -32,-14 -45,-23 -29,-19 69,14 141,59 216,135 41,43 81,92 89,109 8,21 18,30 27,27 18,-7 29,22 14,37 -6,6 -11,28 -11,49 0,22 -6,51 -14,66 -14,28 -61,60 -72,50 -3,-4 4,-9 15,-13 26,-8 26,-27 -3,-90 l -23,-50 5,58 c 5,57 4,60 -36,100 -49,51 -56,65 -72,145 -25,123 6,229 86,285 67,47 182,55 269,17 z m -374,-305 c 5,3 12,-13 15,-35 4,-23 17,-54 30,-70 19,-22 24,-39 23,-76 l -1,-49 -13,55 c -7,30 -13,45 -14,33 -3,-54 -40,-5 -62,80 -10,42 -4,101 8,69 3,-6 9,-10 14,-7 z m 526,-59 c -1,-30 -5,-50 -8,-44 -3,5 -9,0 -12,-11 -3,-12 -1,-19 4,-15 5,3 9,1 9,-3 0,-11 -21,-33 -31,-33 -14,0 -16,50 -3,67 7,10 14,32 14,49 0,17 3,34 7,37 16,17 22,3 20,-47 z m -52,-115 c 6,-37 -11,-129 -21,-118 -3,3 -1,22 5,44 6,21 10,47 10,58 -1,11 -6,0 -11,-23 -13,-59 -18,-49 -11,21 7,66 18,74 28,18 z m -356,-58 c 0,-21 -8,-63 -19,-93 l -18,-55 -1,119 -1,119 20,-26 c 13,-16 20,-40 19,-64 z m 316,-37 c 0,-63 -3,-112 -6,-108 -11,11 -39,118 -39,145 0,19 33,77 43,77 1,0 2,-51 2,-114 z m -54,-7 c 50,-175 97,-237 225,-300 l 62,-31 -22,-22 c -19,-20 -24,-21 -55,-8 -104,42 -264,183 -302,267 -32,69 -20,177 20,188 37,11 45,1 72,-94 z m -151,-298 c 0,-22 -16,-36 -24,-22 -8,12 3,41 15,41 5,0 9,-9 9,-19 z m -391,-65 c 17,-21 -38,-28 -67,-10 -18,12 -27,13 -37,4 -8,-6 -26,-10 -42,-8 l -28,4 25,11 c 36,16 136,15 149,-1 z m 971,4 c 27,-17 -16,-23 -47,-6 l -28,15 h 30 c 17,1 37,-3 45,-9 z m 150,-156 c 36,-69 49,-162 35,-249 l -7,-47 -24,35 c -13,20 -24,47 -24,61 0,81 -45,204 -93,254 -24,24 -27,32 -14,32 12,0 17,8 17,27 v 27 l 39,-38 c 22,-21 54,-67 71,-102 z m -1337,38 c -39,-51 -73,-155 -78,-234 -4,-64 -12,-98 -24,-98 -13,0 -21,55 -21,136 0,92 26,165 81,228 38,43 41,44 57,28 17,-16 16,-19 -15,-60 z m 1187,33 c 40,-20 76,-86 100,-180 24,-93 25,-112 8,-98 -7,6 -32,13 -56,17 -72,11 -132,49 -206,131 -37,42 -67,78 -65,79 13,11 99,50 124,57 47,11 64,10 95,-6 z m -1023,-15 c 63,-22 72,-28 58,-38 -6,-4 -41,-44 -79,-90 -49,-60 -83,-90 -120,-109 -28,-14 -61,-35 -74,-46 l -22,-21 6,50 c 19,155 82,274 146,274 16,0 54,-9 85,-20 z m 111,-104 c 15,-38 26,-92 31,-155 4,-54 15,-109 23,-126 16,-30 15,-31 -5,-34 -12,-2 -54,-4 -93,-4 -101,-2 -114,9 -134,112 l -16,82 44,19 c 25,11 46,19 47,18 0,-2 17,-37 37,-78 20,-41 53,-91 72,-109 46,-45 46,-35 0,20 -34,41 -94,148 -94,168 0,6 17,19 38,30 66,36 14,22 -60,-15 l -71,-36 27,34 c 15,18 46,57 69,86 23,28 46,51 52,49 5,-2 20,-30 33,-61 z m 754,-26 c 35,-39 77,-79 95,-90 30,-17 31,-21 22,-52 -5,-18 -9,-47 -9,-64 0,-45 -33,-71 -110,-84 -69,-12 -142,-9 -147,6 -2,5 14,18 34,29 21,11 51,38 68,60 17,22 38,41 46,43 8,2 25,15 39,29 25,26 25,26 -12,-2 -21,-15 -38,-24 -38,-20 0,3 12,27 27,53 42,74 6,32 -45,-53 -29,-46 -61,-85 -81,-98 -30,-19 -34,-19 -28,-4 4,10 9,55 13,100 6,87 38,217 54,217 5,0 37,-32 72,-70 z m -427,-87 c -7,-17 -8,-16 -17,4 -6,12 -7,30 -3,40 7,17 8,16 17,-4 6,-12 7,-30 3,-40 z m -528,-59 c -3,-19 -2,-34 2,-34 11,0 32,-148 33,-226 0,-38 -47,-151 -75,-182 -20,-22 -87,-66 -87,-57 0,3 9,39 21,81 12,42 18,87 14,101 -3,15 -2,22 4,18 16,-9 67,21 90,54 33,46 25,44 -24,-4 -24,-25 -49,-45 -54,-45 -20,0 -17,43 9,144 32,124 44,184 36,175 -4,-3 -21,-65 -40,-138 -18,-72 -36,-134 -41,-138 -4,-5 -5,0 -2,9 4,12 2,15 -9,11 -7,-3 -14,-9 -14,-13 0,-5 -16,-18 -36,-31 -30,-18 -38,-19 -45,-8 -6,11 -9,8 -9,-8 0,-25 10,-29 28,-11 15,15 15,4 0,-25 -24,-47 -27,-55 -22,-73 2,-11 -5,-48 -16,-84 l -20,-65 5,60 c 3,33 10,64 15,69 14,14 12,29 -2,20 -8,-5 -9,10 -4,57 20,190 86,316 192,368 48,23 58,18 51,-25 z m 1137,-7 c 3,-12 16,-70 29,-129 35,-148 23,-182 -40,-115 -56,59 -66,90 -53,166 23,130 20,122 41,111 10,-6 21,-21 23,-33 z m 95,-12 c 54,-62 81,-127 81,-196 0,-59 -1,-61 -22,-54 -13,4 -34,8 -48,8 -33,2 -44,28 -74,166 l -24,111 h 28 c 19,0 37,-11 59,-35 z m -189,-202 c -15,-135 -57,-234 -170,-404 -62,-94 -70,-114 -96,-244 -19,-94 -54,-168 -89,-191 -37,-24 -40,-13 -12,43 13,26 27,59 31,73 4,14 -13,-15 -38,-65 -24,-49 -42,-91 -41,-93 5,-5 64,27 114,61 24,17 66,39 94,49 43,16 57,17 104,8 52,-11 93,-46 79,-68 -3,-5 2,-31 10,-58 12,-38 14,-74 10,-158 -9,-152 -25,-170 -28,-31 l -2,110 -3,-98 c -3,-87 -1,-106 22,-163 59,-147 61,-259 13,-634 -21,-157 -42,-343 -49,-415 -6,-71 -14,-155 -19,-185 -8,-55 -6,-73 24,-244 22,-121 20,-260 -5,-402 -11,-65 -23,-121 -26,-124 -3,-3 -3,11 1,30 3,19 14,95 22,170 18,149 14,273 -12,380 -9,36 -16,75 -16,87 0,13 -4,21 -8,18 -9,-5 -20,54 -20,108 0,21 7,72 16,113 8,42 19,108 24,147 5,40 23,150 39,246 32,183 37,267 21,365 -9,57 -45,146 -58,146 -4,0 -20,-28 -36,-62 -25,-56 -28,-71 -22,-128 l 5,-65 -18,56 c -10,30 -26,70 -37,88 -25,42 -94,88 -164,108 -70,20 -96,43 -131,120 -63,136 -27,295 87,383 96,76 190,130 224,130 14,0 53,-105 54,-146 0,-23 4,-40 9,-37 4,2 7,-11 6,-29 -1,-39 -16,-130 -18,-107 -2,33 -154,249 -174,249 -6,0 1,-13 16,-28 28,-29 36,-48 15,-36 -7,4 -10,4 -6,0 3,-4 10,-8 15,-8 10,1 43,-29 43,-38 0,-4 -30,8 -66,27 -37,18 -74,33 -83,32 -9,0 0,-6 20,-14 19,-7 53,-22 75,-33 21,-11 42,-19 46,-18 8,1 37,-35 38,-48 0,-5 -10,-1 -22,10 l -23,19 23,-26 c 12,-14 21,-27 20,-30 -2,-2 1,-1 6,3 13,10 66,-88 66,-121 0,-24 -2,-23 -24,14 -14,22 -28,38 -31,37 -4,-2 -21,9 -38,24 -18,16 -8,4 21,-26 62,-66 69,-88 11,-35 -46,41 -127,82 -180,90 -22,4 -13,-1 23,-13 67,-23 130,-60 123,-73 -4,-5 0,-7 7,-4 14,5 98,-69 98,-87 0,-7 -16,-8 -42,-5 -29,4 -37,3 -23,-3 11,-5 30,-9 42,-9 16,-1 20,-6 16,-21 -5,-17 -14,-20 -71,-20 -75,0 -77,-9 -2,-19 49,-6 50,-7 36,-26 -13,-18 -26,-20 -108,-20 -80,0 -100,4 -145,26 -40,20 -50,22 -43,9 12,-23 80,-41 179,-49 94,-8 112,0 149,62 17,28 20,52 21,192 0,166 -9,234 -41,298 -16,32 -16,37 -3,37 9,0 34,-9 55,-20 48,-25 53,-18 8,10 -42,25 -110,26 -165,0 -49,-22 -175,-114 -215,-156 -15,-17 -34,-47 -42,-69 l -15,-40 -1,35 c -3,72 -11,145 -17,150 -2,3 -3,-41 -1,-98 2,-63 0,-94 -5,-80 -30,79 -51,110 -99,149 -153,120 -215,146 -276,115 -36,-19 -44,-4 -9,18 20,13 58,20 98,17 8,-1 58,-28 109,-61 51,-33 98,-60 104,-60 6,0 3,7 -6,14 -10,7 -15,15 -12,19 3,3 -8,29 -25,59 -37,64 -41,57 -6,-12 28,-55 26,-59 -15,-30 -35,25 -66,98 -75,175 -15,128 -55,238 -125,340 -61,89 -119,239 -135,348 -6,48 -6,49 17,40 13,-4 67,-8 120,-8 95,0 97,0 113,-28 9,-15 55,-71 102,-125 47,-53 91,-110 98,-127 20,-45 38,-250 25,-275 -8,-14 -8,-32 -1,-57 6,-20 7,-43 2,-52 -9,-18 -7,-248 2,-258 11,-11 25,41 16,59 -6,10 -5,26 2,42 9,20 9,29 -1,41 -8,10 -10,24 -4,42 7,25 11,66 15,153 1,14 -1,82 -3,152 l -4,128 98,107 c 53,60 107,127 120,149 l 22,42 100,4 c 64,2 112,10 131,19 17,9 31,15 33,14 1,-1 -2,-43 -8,-92 z m 90,-57 c 18,-14 35,-26 38,-26 4,0 8,-18 9,-39 1,-22 12,-63 23,-93 11,-29 20,-54 20,-56 0,-2 -14,-2 -32,0 -39,4 -65,39 -102,136 -34,90 -39,117 -31,150 l 7,27 19,-36 c 10,-20 32,-48 49,-63 z m 223,-100 6,-51 -25,53 c -22,45 -24,60 -18,110 l 8,57 12,-59 c 6,-32 14,-82 17,-110 z m -1456,97 c 6,-17 -30,-34 -48,-22 -12,8 -11,12 6,24 21,16 37,15 42,-2 z m 1328,8 c 3,-6 -3,-14 -12,-20 -16,-9 -16,-10 -1,-11 9,0 18,4 20,9 3,10 22,14 51,12 10,-1 17,-9 17,-22 0,-21 0,-21 -17,-2 -10,10 -14,14 -10,7 4,-7 19,-70 32,-141 14,-70 27,-138 30,-150 4,-17 -1,-23 -27,-32 -39,-14 -38,-14 -38,7 0,9 -18,69 -40,132 -42,123 -54,220 -26,220 8,0 17,-4 21,-9 z M 825,4115 c 15,-2 19,-9 18,-26 -5,-45 -87,-289 -97,-289 -6,0 -21,8 -33,18 l -22,17 20,70 c 11,39 26,101 34,139 18,82 22,89 44,80 9,-3 25,-8 36,-9 z m 1488,-196 c 2,-41 13,-122 23,-181 12,-74 15,-114 8,-129 -9,-20 -14,-16 -77,55 -44,51 -68,86 -69,104 0,15 -2,32 -2,39 -1,7 -17,32 -37,55 -54,65 -55,68 -18,65 27,-2 34,-8 45,-39 7,-21 15,-51 18,-68 5,-34 19,-55 54,-83 12,-11 36,-44 53,-75 16,-32 27,-46 23,-32 -3,14 -18,46 -33,71 -28,45 -28,46 -9,58 15,10 19,20 15,44 -5,31 -41,205 -52,257 -4,18 3,12 24,-21 24,-37 30,-60 34,-120 z m -1650,-4 c -8,-33 -20,-66 -27,-74 -9,-12 -8,-13 3,-6 10,5 12,4 7,-4 -9,-15 -14,-44 -30,-206 -12,-120 -16,-136 -53,-210 -50,-99 -107,-244 -99,-252 3,-4 6,2 6,13 0,16 2,17 10,4 14,-22 12,-29 -7,-25 -10,2 -21,4 -24,4 -3,1 4,45 16,99 12,53 32,162 44,242 25,158 42,213 65,204 14,-5 32,28 28,52 -1,6 4,16 11,23 9,7 12,26 9,59 -3,40 1,56 25,94 15,25 29,45 30,44 1,0 -6,-28 -14,-61 z m 1715,-69 -3,-31 -21,35 c -12,19 -24,55 -28,80 l -7,45 31,-49 c 21,-33 30,-58 28,-80 z m -1506,77 c -11,-15 -29,-37 -41,-47 -21,-19 -21,-19 -21,0 0,26 12,42 46,63 37,23 41,19 16,-16 z m 1042,-102 c -5,-79 -3,-134 9,-202 9,-52 18,-113 21,-135 l 6,-42 -38,14 c -20,7 -48,13 -61,14 -13,0 -44,17 -70,38 l -47,37 11,57 c 20,96 75,205 97,192 7,-4 8,-3 4,4 -8,14 17,55 27,45 4,-3 7,2 7,11 0,16 30,76 37,76 2,0 0,-49 -3,-109 z m -713,-90 c 12,-31 26,-84 32,-118 l 11,-63 -38,-39 c -22,-23 -51,-41 -69,-44 -18,-3 -39,-8 -48,-12 -14,-5 -15,1 -7,52 5,32 15,86 23,121 17,72 19,132 6,182 -5,19 -12,53 -15,75 l -7,40 45,-69 c 25,-38 55,-94 67,-125 z m -368,126 c 20,17 20,17 14,0 -4,-10 -7,-36 -7,-57 0,-30 -5,-42 -21,-50 -20,-11 -20,-10 -14,33 4,27 3,53 -4,64 -6,10 -11,13 -11,6 0,-6 -3,-19 -7,-29 -4,-12 -3,-15 5,-10 8,5 10,-2 6,-26 -11,-57 -34,-95 -91,-149 -50,-47 -56,-51 -65,-34 -19,33 8,225 34,241 8,5 9,1 4,-12 -17,-41 -17,-53 2,-72 20,-20 19,-20 -10,-82 -16,-34 -28,-63 -25,-66 2,-2 18,25 36,60 17,36 40,68 50,71 22,7 54,51 47,64 -3,4 0,25 7,46 l 11,38 9,-27 c 9,-27 10,-27 30,-9 z m 1547,-59 c 0,-5 -5,-8 -12,-8 -7,0 11,-24 39,-52 39,-40 53,-63 58,-93 7,-43 64,-292 94,-412 10,-40 15,-73 12,-73 -4,0 -50,89 -103,198 -104,212 -100,198 -113,408 -1,17 -5,35 -8,41 -4,6 -11,23 -17,39 -11,29 -11,29 19,-6 17,-19 30,-38 31,-42 z M 596,3778 c -9,-18 -27,-46 -41,-63 l -25,-30 6,30 c 4,17 16,52 27,80 20,45 22,47 28,25 6,-22 7,-21 10,10 2,31 2,32 6,8 2,-15 -3,-42 -11,-60 z m 1586,16 c 2,-21 -1,-39 -9,-46 -15,-12 -19,-4 -27,66 -6,48 -6,49 13,32 10,-10 21,-33 23,-52 z m 238,16 c 11,-22 19,-43 18,-47 -1,-5 4,-19 11,-31 20,-37 8,-34 -24,5 -16,20 -23,33 -15,28 9,-5 11,-4 6,3 -4,7 -14,12 -23,12 -13,0 -13,3 -3,15 7,8 10,24 7,35 -8,31 1,24 23,-20 z M 744,3781 c 3,-5 -1,-14 -9,-21 -27,-22 -83,29 -59,53 7,7 59,-18 68,-32 z m 1556,9 c 0,-12 -9,-22 -24,-26 -48,-12 -63,18 -18,34 39,15 42,14 42,-8 z M 820,3724 c 0,-2 -13,-45 -30,-96 -19,-61 -55,-135 -103,-214 l -72,-122 3,107 c 4,154 7,166 47,191 41,25 125,117 125,136 0,8 6,11 15,8 8,-4 15,-8 15,-10 z m 1539,-269 c 5,-60 8,-111 6,-112 -4,-6 -104,146 -130,197 -30,60 -67,178 -60,191 3,4 43,-32 90,-79 l 86,-87 z m -1869,9 c -12,-55 -22,-108 -22,-119 0,-36 -32,-175 -40,-175 -5,0 -6,12 -2,28 l 6,27 -15,-25 c -18,-32 -4,-44 73,-67 65,-18 62,-16 54,-37 -8,-22 -24,-20 -95,10 l -61,25 -34,-26 c -19,-14 -34,-31 -34,-36 0,-6 17,2 38,18 26,19 32,21 19,7 -9,-11 -14,-23 -11,-26 3,-3 0,-9 -7,-14 -8,-4 -10,-3 -5,4 4,7 3,12 -2,12 -6,0 -19,-16 -31,-35 -23,-40 -36,-44 -44,-14 -5,17 5,32 41,65 26,24 50,43 55,44 4,0 7,8 7,18 0,10 3,22 7,26 4,4 18,33 30,64 19,46 22,51 18,22 -5,-32 -4,-33 6,-10 5,14 8,33 5,44 -3,11 6,62 19,115 13,53 28,116 32,141 4,25 9,38 10,29 2,-9 -6,-61 -17,-115 z m 2099,-198 c 31,-81 34,-118 6,-55 -15,32 -15,13 0,-23 4,-10 3,-18 -2,-18 -13,0 -34,95 -26,116 3,10 2,15 -3,12 -5,-4 -9,4 -10,15 -1,12 -15,74 -32,137 -18,63 -32,122 -31,130 0,8 16,-41 34,-110 19,-69 47,-161 64,-204 z m -779,203 c 0,-4 -12,-10 -27,-14 -16,-3 -45,-17 -65,-31 -21,-13 -38,-22 -38,-20 0,2 11,24 25,47 14,24 25,52 25,61 0,15 6,14 40,-10 21,-15 39,-30 40,-33 z m -552,9 c 7,-24 16,-49 19,-57 3,-7 -12,-2 -33,13 -21,14 -44,26 -51,26 -7,0 -13,2 -13,5 0,7 53,54 60,55 3,0 11,-19 18,-42 z m 1165,-73 c 1,-5 -4,-9 -11,-7 -8,1 -11,-2 -7,-8 3,-6 11,-7 17,-4 7,4 8,2 4,-4 -4,-6 -2,-19 3,-29 6,-10 30,-58 53,-108 23,-49 44,-93 46,-97 2,-5 -1,-8 -7,-8 -6,0 -16,11 -23,24 -6,14 -17,27 -25,30 -8,3 -11,1 -8,-4 3,-6 2,-10 -3,-10 -5,0 -14,12 -21,27 -11,24 -11,25 5,12 10,-8 1,8 -19,34 -20,27 -37,55 -37,63 0,9 -3,13 -7,11 -5,-3 -9,41 -11,96 l -3,102 26,-55 c 15,-30 27,-59 28,-65 z M 603,3383 c -5,-88 -9,-103 -38,-148 -18,-27 -38,-61 -45,-74 l -12,-24 -14,33 c -17,39 -17,43 -2,34 7,-5 9,-2 5,9 -6,15 42,141 50,133 3,-2 -5,-26 -17,-53 -12,-26 -23,-66 -25,-88 -3,-39 37,71 79,218 9,31 19,57 21,57 2,0 2,-44 -2,-97 z m 600,22 c 23,-9 22,-20 -8,-60 -14,-18 -47,-73 -72,-122 l -45,-88 5,75 c 5,77 32,164 48,154 5,-3 6,3 2,12 -4,12 -3,15 5,10 8,-5 10,-1 5,10 -6,16 -7,15 -20,-1 -38,-53 -51,-119 -57,-298 -7,-172 -6,-179 16,-220 42,-79 49,-83 136,-84 65,0 70,1 32,7 l -45,7 50,2 c 28,1 64,8 80,16 l 30,14 -30,-7 c -50,-12 -197,-4 -188,11 2,4 -3,7 -12,7 -8,0 -19,8 -22,18 -4,9 -11,20 -17,24 -6,4 0,8 14,9 23,1 23,2 -5,9 -20,5 -24,8 -10,9 11,1 26,5 34,10 10,6 2,8 -22,6 -26,-2 -37,1 -37,10 0,17 25,37 35,27 5,-4 6,-2 3,3 -4,6 16,21 43,34 27,14 47,26 45,29 -2,2 -18,-4 -35,-13 -17,-8 -31,-12 -31,-9 0,4 -8,0 -17,-8 -37,-31 -44,-31 -39,-1 3,16 23,44 48,66 25,23 31,32 16,22 -16,-10 -28,-14 -28,-10 0,4 -7,1 -17,-6 -15,-13 -16,-11 -9,15 27,107 85,164 199,193 l 68,18 39,-41 c 28,-30 38,-49 36,-67 -2,-14 1,-25 7,-24 5,1 16,-16 24,-38 19,-53 14,-217 -9,-260 -20,-38 -88,-76 -188,-105 -88,-26 -137,-70 -160,-141 l -13,-44 -26,82 c -14,46 -29,83 -32,83 -4,0 -15,-36 -25,-80 l -19,-81 -7,48 c -12,87 -8,229 8,319 8,49 21,123 28,164 l 12,75 8,-67 c 6,-48 4,-92 -8,-155 -17,-93 -19,-152 -6,-193 5,-16 7,1 7,50 -1,41 5,112 13,157 11,68 11,98 0,180 -11,88 -11,105 4,156 24,83 80,112 159,82 z m 82,-57 47,-33 -64,-18 c -35,-11 -78,-30 -96,-44 l -34,-25 18,33 c 17,34 75,119 80,119 2,0 24,-15 49,-32 z m 1230,-110 c 25,-49 41,-88 35,-88 -10,0 -82,137 -94,180 -11,36 5,12 59,-92 z M 555,3159 c -13,-25 -35,-40 -35,-24 0,17 32,65 40,60 6,-4 4,-18 -5,-36 z m 1945,-19 c 0,-13 -29,-6 -35,8 -9,24 7,37 22,17 7,-11 13,-22 13,-25 z m 144,15 c 10,-26 -112,-85 -148,-72 -34,13 -14,35 57,59 89,32 84,31 91,13 z m -614,-159 c 12,-72 19,-160 19,-225 l -2,-106 -12,111 c -7,60 -20,134 -29,164 -17,58 -20,121 -9,185 6,31 8,35 11,15 1,-14 12,-78 22,-144 z m 680,84 c 0,-4 12,-12 26,-19 15,-6 24,-14 21,-17 -3,-3 -23,6 -46,20 -22,14 -44,26 -48,26 -5,0 -1,-5 7,-10 8,-5 11,-10 5,-10 -5,1 -19,7 -29,15 -25,19 -37,19 -30,0 3,-8 11,-13 17,-12 6,1 11,-4 12,-11 0,-16 58,-102 69,-102 4,0 1,11 -8,25 -9,14 -23,36 -32,50 -9,14 -12,25 -8,25 10,0 61,-91 56,-98 -2,-3 2,-9 10,-14 9,-7 7,-8 -7,-3 -18,5 -17,4 4,-19 22,-23 21,-54 -1,-40 -7,4 -8,2 -4,-4 4,-6 12,-9 19,-6 9,3 16,-12 23,-45 7,-35 7,-48 0,-45 -6,3 -3,-1 7,-10 10,-8 17,-23 15,-33 -6,-31 -19,-20 -38,32 -40,111 -40,112 -52,91 -6,-10 -8,-38 -6,-61 3,-23 1,-50 -4,-59 -7,-12 -6,-16 4,-14 8,2 14,-9 16,-29 2,-23 -1,-33 -11,-33 -10,0 -19,26 -31,86 -10,47 -20,92 -23,99 -3,10 2,12 17,8 24,-6 50,20 49,52 0,18 -1,18 -7,2 -6,-14 -14,-5 -35,40 -25,54 -23,53 19,-2 20,-27 6,3 -18,38 -11,15 -24,24 -30,21 -6,-4 -8,-1 -6,7 3,8 -6,27 -21,43 -14,16 -21,30 -16,32 6,3 21,10 35,17 22,11 29,11 53,-7 15,-11 27,-23 27,-26 z m -2240,-7 c 0,-16 -54,-209 -61,-217 -13,-15 -1,63 20,124 23,66 26,86 12,94 -12,8 -111,-145 -111,-172 0,-14 -7,-22 -17,-23 -17,-1 -17,-2 0,-6 10,-3 16,-10 13,-16 -2,-7 -10,-38 -17,-69 -7,-32 -16,-58 -20,-58 -3,0 -4,-11 -2,-24 3,-13 0,-32 -6,-43 -8,-14 -10,-5 -11,43 0,50 3,63 17,68 14,6 15,9 4,15 -25,16 5,107 63,195 58,88 75,117 59,101 -17,-19 -64,-86 -90,-128 -16,-27 -22,-33 -18,-17 3,14 8,35 10,46 4,27 25,67 32,61 2,-3 -3,-18 -13,-34 -26,-41 -4,-17 40,44 l 38,53 29,-15 c 16,-9 29,-18 29,-22 z m 2163,-87 c 26,-53 45,-102 42,-107 -11,-16 -24,-10 -40,19 l -15,27 5,-30 c 5,-28 5,-28 -5,-6 -6,13 -8,33 -4,44 3,11 2,17 -2,14 -5,-3 -9,5 -10,16 0,12 -4,31 -8,42 -5,13 -2,11 8,-5 25,-41 17,-9 -10,40 -14,26 -22,34 -19,20 4,-14 6,-36 6,-49 -1,-13 8,-62 19,-108 21,-90 27,-208 10,-218 -5,-3 -10,-3 -10,2 0,4 -3,19 -7,32 -5,19 -3,22 8,16 11,-7 12,-6 3,6 -6,8 -14,33 -18,56 -5,37 -4,42 11,37 16,-5 16,-4 0,6 -13,8 -17,19 -13,34 4,16 1,23 -9,23 -11,0 -14,-7 -10,-21 5,-19 5,-19 -5,-3 -8,13 -8,32 0,73 9,41 9,59 1,67 -12,12 -15,60 -4,71 15,15 30,-4 76,-98 z M 415,2968 c -15,-51 -29,-99 -31,-107 -3,-10 -8,-11 -15,-4 -6,6 -3,26 11,58 11,26 19,53 16,59 -2,6 -5,2 -5,-9 -1,-16 -3,-17 -11,-5 -9,15 6,44 20,35 4,-2 13,14 20,35 25,77 21,31 -5,-62 z m 70,-5 c -6,-124 -15,-150 -15,-42 0,70 9,149 16,149 2,0 1,-48 -1,-107 z m 39,50 -2,-58 7,50 c 8,49 8,49 9,10 0,-22 -3,-58 -7,-80 l -7,-40 -8,50 c -15,95 -16,125 -3,125 8,0 12,-18 11,-57 z m 2020,5 c 7,-76 4,-178 -6,-172 -4,3 -8,0 -8,-5 0,-6 5,-11 11,-11 6,0 8,-8 5,-18 -3,-10 -8,-42 -10,-71 -8,-91 -18,-70 -16,34 1,66 -4,120 -15,158 -9,34 -13,67 -9,80 5,12 7,28 5,36 -2,9 3,12 14,7 9,-3 13,-2 10,4 -3,6 -2,10 4,10 5,0 12,-24 15,-52 z m 204,-8 c 7,-41 -25,-16 -63,50 -6,9 3,7 26,-7 18,-12 35,-31 37,-43 z m 56,-62 c 19,-40 32,-75 29,-78 -2,-3 -16,8 -30,24 -19,23 -22,31 -11,37 10,7 9,9 -3,9 -9,0 -20,7 -23,16 -3,8 -10,13 -15,10 -5,-4 -4,7 2,24 6,16 13,30 14,30 1,0 18,-33 37,-72 z m -2526,16 c -7,-14 -17,-23 -25,-20 -7,3 -13,1 -13,-4 0,-6 4,-10 9,-10 16,0 -1,-40 -22,-51 -17,-10 -19,-9 -12,7 4,11 9,28 12,39 3,11 12,34 21,52 12,24 19,29 28,22 10,-8 10,-16 2,-35 z m 248,-209 c 4,-38 3,-67 -1,-63 -12,12 -25,103 -29,208 l -4,95 14,-85 c 8,-47 17,-116 20,-155 z m -68,108 c -2,-77 -7,-108 -16,-111 -11,-3 -12,11 -8,69 6,80 16,149 22,149 2,0 3,-48 2,-107 z m -78,76 c 0,-6 -5,-7 -12,-3 -8,5 -9,2 -5,-10 5,-11 3,-15 -5,-10 -8,5 -9,2 -5,-9 3,-10 2,-17 -3,-17 -13,0 -13,26 1,51 10,19 29,18 29,-2 z m 1140,-85 c 0,-6 -7,-17 -15,-24 -13,-10 -19,-10 -34,4 -18,16 -18,21 -5,51 8,19 14,45 14,57 1,15 8,6 20,-27 11,-27 20,-55 20,-61 z M 390,2803 c 0,-23 -5,-43 -11,-43 -5,0 -7,-5 -4,-10 10,-16 -6,-161 -17,-154 -7,5 -7,85 1,235 1,9 8,16 16,16 11,0 15,-12 15,-44 z m 1077,-128 c -3,-77 -15,-193 -27,-258 -11,-66 -24,-151 -29,-190 l -8,-72 -1,90 c -1,61 7,129 23,210 35,167 41,268 22,324 -18,49 -13,69 10,49 14,-11 15,-34 10,-153 z m 87,12 -2,-132 7,105 c 10,139 11,142 62,122 38,-15 39,-16 39,-66 v -51 l -30,52 c -16,28 -35,55 -42,59 -6,4 -2,-8 10,-27 57,-91 56,-87 42,-174 -7,-44 -16,-156 -19,-250 -6,-151 -7,-163 -14,-105 -5,36 -17,101 -27,145 -29,127 -49,252 -56,352 -7,100 -2,135 19,114 8,-8 12,-52 11,-144 z m -112,56 c 9,-52 7,-79 -17,-219 -15,-87 -28,-160 -30,-162 -2,-2 -6,27 -10,65 -4,37 -13,97 -20,132 -14,69 -11,87 34,201 13,30 18,51 12,45 -5,-5 -23,-44 -40,-85 l -30,-75 -1,65 c 0,65 0,65 38,87 20,12 41,18 45,14 4,-4 13,-35 19,-68 z m -112,-20 c 0,-27 10,-97 21,-158 13,-68 24,-187 29,-310 5,-110 10,-211 11,-225 3,-49 -12,-176 -32,-270 -11,-52 -23,-115 -27,-140 l -7,-45 -23,97 c -23,103 -27,143 -13,134 30,-19 91,135 90,229 0,17 -9,-9 -19,-58 -19,-92 -46,-150 -71,-155 -12,-2 -19,24 -33,122 -24,159 -24,200 -3,316 10,52 21,140 25,195 l 8,100 18,-115 c 20,-124 17,-327 -6,-341 -6,-4 -8,-14 -5,-22 3,-8 2,-18 -3,-23 -4,-5 -10,-29 -14,-54 -4,-31 -3,-40 4,-30 8,13 10,12 11,-5 2,-20 6,3 33,200 14,98 14,122 0,225 -8,63 -21,140 -29,171 -19,71 -20,195 -2,202 31,13 37,6 37,-40 z m 406,12 c 26,-15 54,-43 69,-70 68,-116 121,-612 81,-755 -9,-30 -16,-77 -17,-105 l -1,-50 -19,60 c -107,337 -179,692 -179,883 0,71 4,73 66,37 z m 218,-36 c 26,-75 24,-256 -3,-403 -12,-61 -21,-123 -21,-139 0,-16 -4,-26 -10,-22 -5,3 -10,30 -10,58 0,29 -9,112 -18,185 -13,96 -16,155 -10,215 9,99 27,169 42,164 6,-2 19,-28 30,-58 z m -691,-131 c -1,-215 -26,-381 -72,-486 -16,-37 -43,-116 -61,-177 -17,-60 -33,-111 -34,-113 -4,-3 -9,80 -20,325 -4,73 -16,181 -27,240 -22,120 -36,311 -24,340 5,14 12,2 29,-48 21,-60 23,-92 30,-365 4,-164 11,-317 16,-339 6,-29 7,-16 3,45 -4,47 -7,198 -7,335 0,236 1,253 22,306 24,59 47,86 90,106 58,25 57,29 55,-169 z m -803,153 c 0,-11 -4,-22 -8,-25 -5,-3 -7,-18 -4,-34 2,-16 -1,-32 -6,-36 -7,-4 -10,16 -11,54 0,46 3,60 15,60 7,0 14,-9 14,-19 z m 2349,-54 c 1,-23 -18,-12 -28,17 -5,13 -4,24 3,28 12,8 24,-14 25,-45 z m -179,-22 c 0,-14 -4,-25 -10,-25 -5,0 -10,4 -10,9 0,5 -3,16 -6,25 -4,11 -1,16 10,16 10,0 16,-9 16,-25 z m 90,-22 c 0,-34 -13,-44 -24,-17 -11,28 -6,51 9,51 10,0 15,-11 15,-34 z M 1038,2345 c 20,-118 39,-345 28,-334 -22,22 -80,502 -69,576 7,47 8,46 14,-37 4,-47 16,-139 27,-205 z m 992,77 c -10,-147 -38,-320 -59,-374 -9,-20 -10,-21 -10,-3 -1,18 48,402 66,520 13,90 15,17 3,-143 z m -360,109 c 0,-27 12,-114 26,-193 25,-133 26,-149 15,-238 -37,-301 -40,-312 -72,-274 -21,26 -18,352 7,682 6,81 24,98 24,23 z m 97,-487 c 4,-33 -5,-73 -41,-189 -49,-153 -68,-186 -41,-70 8,38 13,77 10,89 -5,17 -4,18 4,6 12,-17 13,-10 16,85 1,28 6,86 10,130 l 9,80 13,-45 c 8,-25 16,-64 20,-86 z m -542,0 c 2,-27 6,-56 8,-64 3,-8 15,-71 26,-140 12,-69 23,-136 26,-150 14,-66 -51,119 -76,217 -27,107 -27,113 -12,152 9,23 18,39 20,37 2,-2 6,-26 8,-52 z m -41,-86 c 6,-33 4,-37 -14,-35 -15,1 -19,6 -14,22 3,11 8,28 11,38 6,24 9,20 17,-25 z m 621,-65 c -2,-7 -13,-13 -23,-13 -10,0 -23,-5 -29,-11 -6,-6 -2,21 10,61 l 21,73 13,-49 c 7,-27 11,-55 8,-61 z m -726,-58 c 0,-71 -5,-121 -14,-140 -13,-30 -13,-30 -14,25 -2,99 12,252 20,238 5,-7 9,-62 8,-123 z m 131,13 c 10,-32 16,-58 13,-58 -3,0 0,-6 6,-14 9,-11 6,-22 -14,-52 -14,-21 -28,-49 -32,-63 -5,-22 -9,-14 -24,44 -16,65 -16,71 -1,83 9,7 27,11 39,9 12,-2 20,0 17,4 -11,18 -52,8 -79,-18 -22,-22 -24,-29 -12,-31 27,-5 32,-63 32,-332 0,-272 -2,-287 -53,-333 -24,-22 -56,-10 -67,24 -4,11 -9,18 -11,16 -3,-2 1,-16 7,-31 25,-53 87,-41 112,22 l 14,35 23,-46 c 28,-55 59,-87 89,-90 11,-1 21,-1 21,-2 0,0 -10,-43 -21,-95 -17,-77 -21,-137 -24,-315 -1,-121 0,-186 4,-145 l 6,75 14,-42 c 12,-36 12,-50 1,-85 -21,-73 -23,-75 -28,-53 -2,11 -9,26 -16,34 -7,10 -10,68 -9,180 2,158 5,183 47,386 6,29 6,29 -5,5 -29,-66 -50,-202 -56,-355 -5,-140 -3,-171 16,-248 11,-48 28,-98 37,-112 39,-60 -5,-100 -101,-90 -33,4 -98,7 -145,8 -72,2 -85,5 -88,20 -3,13 3,17 23,17 15,0 24,4 20,10 -3,6 1,7 9,4 9,-3 13,-11 9,-17 -7,-12 14,-1 41,22 18,15 18,15 12,-6 -5,-14 -3,-23 3,-23 6,0 11,8 11,18 0,9 11,29 24,44 14,14 22,29 19,32 -4,3 -1,6 5,6 6,0 14,-4 17,-10 3,-5 14,-10 23,-10 13,0 12,3 -6,16 -42,29 -56,72 -53,159 9,197 3,300 -23,424 -15,69 -25,129 -23,134 4,14 74,-211 92,-300 13,-64 14,-96 7,-150 l -10,-68 1,75 c 0,48 -6,88 -16,110 -15,35 -15,35 -16,8 -1,-16 3,-28 7,-28 4,0 9,-59 10,-130 1,-96 6,-138 17,-158 8,-15 20,-40 25,-56 6,-16 12,-27 13,-25 2,2 0,85 -4,184 -8,209 -23,284 -105,528 -56,164 -61,183 -44,157 7,-10 8,-1 3,30 -5,25 -7,104 -6,177 2,148 17,221 67,318 40,78 40,79 28,71 -13,-8 32,130 49,151 22,25 41,9 59,-49 z m 587,14 c 15,-9 75,-141 68,-151 -2,-4 7,-34 20,-67 46,-117 53,-252 29,-544 -4,-41 -7,-97 -6,-125 0,-30 -3,-43 -7,-31 -5,13 -10,1 -19,-40 -6,-33 -25,-124 -41,-204 -37,-176 -37,-174 -12,-160 30,15 32,13 30,-28 -2,-31 -7,-38 -23,-39 -21,-2 -21,-2 -2,13 11,8 15,14 9,14 -14,0 -34,-25 -26,-33 3,-4 14,-7 24,-7 33,0 40,-86 7,-99 -16,-6 -18,-10 -8,-16 8,-5 19,0 31,16 22,29 25,13 4,-18 -14,-20 -14,-26 4,-60 29,-56 57,-94 63,-88 3,3 27,1 53,-5 34,-8 51,-8 61,1 14,12 54,3 54,-12 0,-5 -8,-9 -18,-9 -10,0 -22,-3 -26,-7 -4,-4 -87,-8 -184,-9 -203,-1 -232,6 -232,57 0,16 7,40 15,52 33,52 57,178 59,312 1,138 -19,278 -36,253 -7,-9 -8,-7 -3,8 3,12 -2,52 -11,90 -8,38 -17,80 -19,95 -2,14 -13,57 -25,95 -44,141 -34,320 30,508 42,125 45,129 66,81 14,-33 15,-58 9,-150 -10,-142 -7,-309 5,-375 12,-61 -1,-94 -52,-134 -18,-14 -28,-26 -21,-26 18,0 71,48 78,71 7,20 8,20 39,-10 34,-33 63,-39 85,-18 12,10 13,8 6,-8 -77,-201 -108,-344 -125,-580 -5,-77 -10,-150 -10,-163 0,-14 -8,-26 -22,-32 -18,-7 -19,-9 -5,-9 20,-1 62,40 83,82 13,23 13,54 4,196 -13,194 -6,240 69,450 42,118 51,156 25,109 -31,-59 -79,-59 -114,-2 -18,28 -24,61 -33,175 -9,121 -8,155 7,252 18,117 43,217 54,217 3,0 16,-10 29,-22 13,-12 23,-17 23,-10 0,18 -52,54 -63,43 -6,-6 -18,-41 -28,-78 -15,-56 -18,-62 -18,-33 -1,20 -10,54 -21,75 -11,22 -17,47 -14,55 4,8 8,21 10,28 4,23 34,62 47,62 6,0 17,-4 24,-8 z m 143,-109 c -10,-15 -11,-14 -6,7 3,14 7,45 8,70 l 2,45 3,-52 c 2,-29 -1,-61 -7,-70 z m -273,-14 c -1,-31 -5,-55 -9,-53 -4,2 -9,-10 -11,-28 -2,-18 -5,-3 -5,33 -1,37 -5,81 -8,99 -7,30 -6,31 14,19 17,-11 20,-22 19,-70 z m -380,-106 c 49,-113 70,-241 59,-358 -7,-79 -55,-235 -74,-242 -16,-7 -39,13 -71,62 l -26,40 3,245 c 3,233 5,248 27,298 13,28 28,52 32,52 5,0 27,-44 50,-97 z m 585,-894 c -10,-52 -17,-114 -14,-138 3,-34 1,-42 -9,-39 -9,3 -14,19 -13,41 2,46 48,265 52,245 2,-9 -6,-58 -16,-109 z m -162,-54 c 7,-73 8,-134 2,-180 l -9,-70 -2,100 c -1,55 -4,138 -7,185 -10,121 3,95 16,-35 z m 72,-152 c -2,-23 0,-62 7,-87 7,-29 8,-53 2,-68 -8,-19 -10,-13 -12,32 l -2,55 -7,-55 -7,-55 -1,61 c -3,93 10,226 19,189 3,-16 4,-49 1,-72 z m -92,-75 c 0,-114 -6,-127 -26,-58 -9,31 -8,51 5,104 9,36 17,66 19,66 1,0 2,-50 2,-112 z m -543,2 c -1,-55 -4,-94 -6,-87 -2,6 -7,14 -11,17 -6,4 10,170 16,170 2,0 2,-45 1,-100 z m -54,-159 c -5,-3 -19,-22 -32,-41 -12,-19 -20,-27 -17,-17 3,9 9,25 12,35 3,9 -5,-1 -18,-22 -12,-22 -30,-42 -38,-44 -11,-4 -10,1 5,19 11,13 13,18 5,12 -26,-23 -34,-13 -10,12 12,13 26,22 30,20 4,-3 13,9 20,25 11,26 15,28 32,19 12,-6 17,-14 11,-18 z"
       id="path1" />
    <path
       d="m 1476,5728 c -9,-35 -7,-101 4,-118 7,-10 10,9 9,63 -1,42 -3,77 -4,77 -1,0 -5,-10 -9,-22 z"
       id="path2" />
    <path
       d="m 1573,5536 c -25,-26 -37,-62 -24,-70 6,-4 8,-13 5,-20 -3,-8 -1,-17 5,-21 11,-6 14,5 12,41 -3,28 17,76 28,70 5,-3 11,0 14,7 8,21 -18,16 -40,-7 z"
       id="path3" />
    <path
       d="m 1396,5509 c 9,-26 12,-59 8,-92 -6,-52 -6,-52 10,-23 22,39 20,105 -3,134 -27,32 -31,28 -15,-19 z"
       id="path4" />
    <path
       d="m 1290,5452 c 0,-19 29,-86 35,-80 3,3 -4,25 -15,49 -11,24 -20,38 -20,31 z"
       id="path5" />
    <path
       d="m 1697,5426 c -6,-20 -11,-26 -16,-18 -5,9 -12,5 -21,-13 -9,-17 -16,-21 -21,-14 -4,7 -6,1 -6,-12 2,-24 3,-24 30,-11 32,16 50,45 45,75 -3,19 -5,18 -11,-7 z"
       id="path6" />
    <path
       d="m 1580,5409 c 0,-17 20,-49 30,-49 18,0 10,35 -10,48 -13,8 -20,9 -20,1 z"
       id="path7" />
    <path
       d="m 1362,5399 c -25,-9 -26,-29 -2,-37 9,-3 11,1 7,11 -4,11 -2,14 9,10 8,-3 14,1 14,11 0,9 -1,16 -2,15 -2,0 -14,-4 -26,-10 z"
       id="path8" />
    <path
       d="m 1460,5065 c -10,-12 -10,-21 -2,-40 15,-33 28,-32 35,3 7,36 -14,60 -33,37 z"
       id="path9" />
    <path
       d="m 1543,4943 c 0,-20 28,-47 72,-68 17,-9 22,-10 11,-3 -46,32 -66,50 -61,58 3,4 -1,13 -8,19 -11,8 -14,7 -14,-6 z"
       id="path10" />
    <path
       d="m 1395,4878 c -11,-7 -47,-22 -80,-35 -33,-12 -55,-22 -49,-22 19,-1 123,37 146,53 26,19 13,21 -17,4 z"
       id="path11" />
    <path
       d="m 1530,4874 c 0,-6 88,-44 103,-44 7,1 -4,8 -23,16 -59,26 -80,34 -80,28 z"
       id="path12" />
    <path
       d="m 1235,4800 c -33,-6 -35,-7 -10,-8 17,0 53,3 80,8 47,7 48,7 10,7 -22,0 -58,-3 -80,-7 z"
       id="path13" />
    <path
       d="m 1770,4789 c 11,-8 -10,-9 -75,-6 -64,4 -79,3 -50,-3 52,-11 126,-12 143,-1 11,7 10,10 -3,15 -25,9 -32,7 -15,-5 z"
       id="path14" />
    <path
       d="m 1325,4751 -40,-7 40,-8 c 54,-12 84,-13 79,-4 -3,4 -15,8 -27,9 -20,1 -20,2 3,9 31,10 5,10 -55,1 z"
       id="path15" />
    <path
       d="m 1187,4708 c -6,-21 10,-48 63,-107 14,-15 19,-19 11,-9 -8,10 -10,18 -5,18 12,0 124,-107 153,-145 18,-25 20,-26 10,-5 -6,14 -54,66 -106,117 -62,60 -93,96 -88,104 5,8 4,10 -3,5 -7,-4 -12,-1 -12,8 0,9 8,16 18,17 14,0 14,2 -3,9 -30,13 -32,12 -38,-12 z"
       id="path16" />
    <path
       d="m 1665,4710 c -60,-17 -145,-56 -145,-65 0,-3 15,2 33,11 17,10 70,30 117,45 94,30 90,37 -5,9 z"
       id="path17" />
    <path
       d="m 1690,4643 c -30,-32 -33,-38 -10,-16 19,17 44,33 54,35 22,4 34,28 14,28 -8,0 -34,-21 -58,-47 z"
       id="path18" />
    <path
       d="m 1380,4577 c 25,-26 46,-47 48,-47 10,0 -37,55 -62,72 -25,17 -22,12 14,-25 z"
       id="path19" />
    <path
       d="m 1557,4498 c -39,-61 -57,-93 -57,-105 0,-4 16,19 35,52 20,33 43,70 51,83 9,12 14,22 11,22 -3,0 -21,-24 -40,-52 z"
       id="path20" />
    <path
       d="m 1614,4467 c -46,-61 -94,-138 -94,-152 0,-5 12,10 27,35 14,25 46,71 71,103 24,32 42,60 40,62 -2,3 -22,-19 -44,-48 z"
       id="path21" />
    <path
       d="m 1353,4412 c 15,-16 24,-32 20,-37 -5,-4 -3,-6 2,-2 6,3 23,-14 39,-39 15,-24 30,-44 33,-44 14,0 -96,149 -111,150 -6,0 2,-13 17,-28 z"
       id="path22" />
    <path
       d="m 1355,4334 c 33,-38 70,-83 83,-99 22,-28 21,-26 -3,20 -30,57 -68,102 -110,129 -22,15 -15,2 30,-50 z"
       id="path23" />
    <path
       d="m 1575,4290 c -26,-45 -49,-91 -52,-103 -3,-12 6,-2 19,23 13,25 39,71 57,103 18,31 31,57 28,57 -2,0 -26,-36 -52,-80 z"
       id="path24" />
    <path
       d="m 1291,4294 c 8,-11 43,-53 79,-91 45,-49 66,-65 66,-52 0,10 -2,16 -5,13 -6,-6 -61,47 -61,60 0,5 12,-1 28,-15 15,-13 7,-2 -17,23 -25,26 -47,45 -50,43 -2,-3 -16,5 -29,17 -24,21 -24,21 -11,2 z"
       id="path25" />
    <path
       d="m 1986,4712 c -3,-5 7,-20 22,-33 14,-13 21,-17 14,-8 -8,10 -8,19 -2,27 6,7 7,10 4,7 -4,-3 -13,0 -20,6 -7,6 -15,6 -18,1 z"
       id="path26" />
    <path
       d="m 1855,4547 c -8,-21 -22,-53 -30,-73 -27,-66 -14,-50 21,25 19,41 32,76 29,79 -2,3 -12,-11 -20,-31 z"
       id="path27" />
    <path
       d="m 1920,4388 c -44,-42 -48,-48 -21,-33 27,16 93,86 80,85 -2,-1 -29,-24 -59,-52 z"
       id="path28" />
    <path
       d="m 1038,4229 c 6,-9 10,-18 7,-21 -3,-2 9,-18 27,-34 17,-16 28,-24 24,-17 -5,9 4,10 31,7 l 38,-5 -39,15 c -21,8 -52,27 -69,43 -17,15 -26,21 -19,12 z"
       id="path29" />
    <path
       d="m 1939,4174 c -13,-14 -43,-37 -66,-51 -47,-27 -59,-42 -15,-19 48,26 83,53 98,75 20,29 13,27 -17,-5 z"
       id="path30" />
    <path
       d="m 1717,4114 c -16,-8 -38,-12 -50,-9 -17,5 -19,4 -7,-4 12,-9 13,-11 1,-11 -8,0 -12,-3 -9,-6 3,-3 32,6 64,20 33,14 52,25 44,25 -8,0 -28,-7 -43,-15 z"
       id="path31" />
    <path
       d="m 1075,4101 c 13,-22 225,-151 225,-137 0,2 -26,19 -57,36 -32,18 -85,51 -117,73 -32,22 -55,34 -51,28 z"
       id="path32" />
    <path
       d="m 1671,4015 c -36,-19 -70,-40 -75,-46 -12,-12 122,58 139,73 16,15 1,8 -64,-27 z"
       id="path33" />
    <path
       d="m 1636,3949 c -73,-48 -84,-59 -30,-29 39,21 105,70 94,69 -3,0 -32,-18 -64,-40 z"
       id="path34" />
    <path
       d="m 1180,3925 c 0,-6 101,-79 130,-95 14,-7 21,-8 15,-3 -17,16 -145,103 -145,98 z"
       id="path35" />
    <path
       d="m 1686,3785 c -27,-19 -57,-42 -65,-51 -9,-9 14,5 52,31 37,26 67,48 67,51 0,6 -1,5 -54,-31 z"
       id="path36" />
    <path
       d="m 1721,3742 c -44,-39 -72,-59 -68,-47 7,20 7,20 -8,1 -8,-11 -15,-25 -15,-30 0,-6 -4,-5 -9,2 -7,11 -9,11 -14,-2 -4,-9 -1,-15 5,-13 6,1 13,-4 16,-12 3,-8 0,-11 -7,-7 -7,5 -9,1 -5,-11 5,-17 5,-17 -9,-1 -12,16 -15,14 -31,-19 -9,-19 -15,-37 -13,-40 2,-2 10,10 17,27 10,23 16,28 26,19 10,-8 16,-3 29,23 9,18 51,65 93,105 97,91 92,95 -7,5 z"
       id="path37" />
    <path
       d="m 1313,3726 c 37,-36 48,-53 25,-40 -7,4 -3,-4 10,-18 12,-13 29,-25 37,-25 19,0 -13,40 -68,85 l -42,34 z"
       id="path38" />
    <path
       d="m 1352,3740 c 9,-6 28,-25 42,-43 14,-17 26,-26 26,-19 0,18 -55,72 -72,72 -8,-1 -7,-4 4,-10 z"
       id="path39" />
    <path
       d="m 1575,3530 c -10,-22 -15,-43 -12,-47 4,-3 7,-1 7,6 0,7 5,9 11,5 8,-4 9,1 4,16 -5,17 -4,21 5,15 9,-6 11,-4 5,5 -4,7 -2,16 5,20 7,4 8,10 2,13 -5,4 -17,-11 -27,-33 z"
       id="path40" />
    <path
       d="m 1790,3001 c 65,-26 97,-35 85,-23 -11,10 -102,42 -119,41 -6,0 9,-8 34,-18 z"
       id="path41" />
    <path
       d="m 1918,2925 c -4,-16 -22,-48 -41,-70 l -35,-40 h -103 c -57,1 -87,-1 -66,-3 20,-2 37,-7 37,-11 0,-10 70,-7 114,5 46,11 112,95 104,132 -3,10 -6,5 -10,-13 z"
       id="path42" />
    <path
       d="m 1798,3635 c 11,-16 42,-50 68,-75 43,-40 42,-38 -11,20 -79,87 -82,90 -57,55 z"
       id="path43" />
    <path
       d="m 1800,3584 c 25,-25 53,-50 62,-55 9,-5 -8,16 -38,46 -31,30 -58,55 -62,55 -3,0 14,-21 38,-46 z"
       id="path44" />
    <path
       d="m 1160,3755 c -7,-8 -9,-15 -5,-15 4,0 -1,-12 -10,-27 l -17,-28 21,20 c 12,12 23,31 26,43 5,26 2,27 -15,7 z"
       id="path45" />
    <path
       d="m 1168,3613 c -14,-16 -25,-36 -25,-46 0,-14 7,-11 34,15 18,17 33,34 33,37 0,3 -13,-8 -30,-24 -37,-36 -40,-21 -3,17 15,15 24,28 22,28 -3,0 -17,-12 -31,-27 z"
       id="path46" />
    <path
       d="m 720,3584 c -64,-50 -73,-62 -19,-26 39,26 80,63 68,61 -2,0 -24,-16 -49,-35 z"
       id="path47" />
    <path
       d="m 1213,3110 c -35,-16 -63,-32 -63,-35 0,-3 19,4 42,16 23,12 58,27 77,34 20,8 29,14 21,14 -8,1 -43,-12 -77,-29 z"
       id="path48" />
    <path
       d="m 2514,2999 c 3,-17 7,-50 7,-73 l 2,-41 6,43 c 9,51 3,102 -11,102 -6,0 -8,-13 -4,-31 z"
       id="path49" />
    <path
       d="m 1288,1927 c -5,-10 -8,-31 -8,-45 1,-24 2,-25 11,-9 6,10 9,30 7,45 -2,23 -4,24 -10,9 z"
       id="path50" />
    <path
       d="m 1729,2649 c 10,-22 24,-46 30,-52 6,-6 11,-16 11,-22 0,-6 7,-20 15,-31 21,-27 -9,47 -42,104 -31,53 -37,54 -14,1 z"
       id="path51" />
    <path
       d="m 1732,2580 c 3,-8 20,-59 38,-113 17,-54 34,-97 36,-94 5,4 -63,208 -72,216 -4,3 -5,-1 -2,-9 z"
       id="path52" />
    <path
       d="m 1781,2320 c 0,-8 7,-44 14,-80 l 15,-65 -6,59 c -5,55 -23,121 -23,86 z"
       id="path53" />
    <path
       d="m 1186,2548 c -13,-87 -25,-255 -24,-333 1,-67 2,-59 9,50 5,72 13,172 19,224 11,95 8,138 -4,59 z"
       id="path54" />
    <path
       d="m 1663,2035 c 0,-33 2,-45 4,-27 2,18 2,45 0,60 -2,15 -4,0 -4,-33 z"
       id="path55" />
    <path
       d="m 1102,1245 c 0,-16 4,-43 8,-60 l 8,-30 v 35 c 0,19 -4,46 -8,60 -8,24 -8,24 -8,-5 z"
       id="path56" />
    <path
       d="m 1798,277 c -26,-18 -48,-36 -48,-40 0,-4 20,6 44,22 l 44,31 18,-28 c 10,-15 26,-43 36,-62 9,-19 17,-28 17,-20 1,8 -14,41 -32,72 l -32,57 z"
       id="path57" />
  </g>
  <path
     style="fill:none"
     d="m 150.67038,245.04043 c -4.34853,-5.67025 -6.86059,-13.54425 -6.43433,-22.52012 3.86328,-6.98034 11.03219,-13.96069 19.30297,-19.83916 7.68544,-2.32351 15.37088,-4.64701 23.05632,-6.97052 4.15996,6.40484 6.31566,14.49045 6.97052,22.52013 0.14014,11.04931 0.037,18.89273 -2.68097,24.12871 -4.82574,1.78731 -8.54961,5.41108 -14.47722,5.36193 -9.69311,3.52598 -17.38194,1.77373 -25.73729,-2.68097 z"
     id="maleRightGlute"
     sodipodi:nodetypes="cccccccc"
     inkscape:label="maleRightGlute" />
  <path
     style="fill:none"
     d="m 107.65172,248.69109 c 5.74705,0.0912 11.49411,0.18245 17.24117,0.27367 5.38216,-1.36835 10.76432,-2.73669 16.14649,-4.10504 1.73324,-4.10504 3.46648,-8.21008 5.19972,-12.31512 -1.73324,-5.1085 -2.30831,-11.14354 -5.19972,-15.32549 -2.07667,-5.03874 -6.23806,-8.45603 -10.39944,-10.94677 -7.85744,-4.14262 -16.52364,-10.54976 -25.99858,-9.03109 -1.5508,4.19626 -3.64893,8.93987 -5.473395,13.4098 -0.273669,8.02763 -1.517846,16.21702 -0.821008,24.0829 -0.456942,5.94639 5.232663,11.73103 9.304763,13.95714 z"
     id="maleLeftGlute"
     sodipodi:nodetypes="cccccccccc"
     inkscape:label="maleLeftGlute" />
  <path
     style="fill:none"
     d="m 111.69096,329.64166 c 6.54826,2.97996 10.06921,10.15159 13.35729,15.926 3.31971,8.71476 5.55535,17.24884 6.16491,27.22832 -2.56871,8.39112 -5.13742,16.78224 -7.70613,25.17336 -9.93234,0.17125 -19.86469,0.34249 -29.797031,0.51374 -2.054968,-5.65116 -3.387232,-11.12164 -6.164903,-16.95348 0.637846,-12.40523 3.082451,-21.91966 4.623677,-32.87949 4.178693,-6.56902 9.987477,-13.60378 19.522187,-19.00845 z"
     id="maleLeftCalfRear"
     sodipodi:nodetypes="cccccccc"
     inkscape:label="maleLeftCalfRear" />
  <path
     style="fill:none"
     d="m 177.44528,323.9441 c 7.42593,4.40376 11.85253,13.60644 14.47953,21.00952 2.08203,6.90854 4.16405,13.81707 6.24608,20.72561 0.73157,12.80104 -2.2713,22.33445 -3.40695,33.50167 -10.69404,-0.0946 -21.38807,-0.18927 -32.08211,-0.28391 -2.08202,-7.94955 -4.16405,-15.8991 -6.24607,-23.84865 0.87161,-9.9583 3.34287,-19.31673 6.8139,-28.67516 3.53214,-7.67632 8.06406,-15.55259 14.19562,-22.42908 z"
     id="maleRightCalfRear"
     sodipodi:nodetypes="cccccccc"
     inkscape:label="maleRightCalfRear" />
  <path
     style="fill:none"
     d="m 94.589152,324.83299 c 13.380898,-0.1538 26.761808,-0.30761 40.142708,-0.46141 3.22988,-25.37758 6.45975,-50.75515 9.68963,-76.13273 -24.44788,-0.18365 -38.75848,9.45317 -58.137727,18.45642 3.251325,18.89638 10.84841,32.96413 8.305389,58.13772 z"
     id="maleLeftHamstring"
     sodipodi:nodetypes="ccccc"
     inkscape:label="maleLeftHamstring" />
  <path
     style="fill:none"
     d="m 149.39319,246.27054 c 20.19563,6.10228 40.39127,12.20456 60.58691,18.30684 -1.66173,21.22632 -5.75718,41.8442 -10.46105,62.7663 -13.65748,-0.29059 -27.31496,-0.58117 -40.97244,-0.87176 1.66636,-8.05459 0.29058,-19.75976 0.43588,-29.63964 -5.22072,-16.09481 -8.82659,-32.18675 -9.5893,-50.56174 z"
     id="maleRightHamstring"
     sodipodi:nodetypes="cccccc"
     inkscape:label="maleRightHamstring" />
  <path
     style="fill:none"
     d="m 184.59827,93.05203 c 6.76796,-3.735898 16.47644,-7.487467 24.84415,-4.887375 1.76488,-0.814562 3.52977,-1.629124 5.29466,-2.443687 0,-1.357604 0,-2.715208 0,-4.072813 3.88308,2.641366 7.20722,5.422467 10.18203,8.552906 3.89684,4.364438 5.98226,9.222899 7.73834,15.069409 -0.27152,4.48009 -0.54304,8.96019 -0.81456,13.44028 -3.76861,1.37926 -8.3871,-8.95015 -16.69853,-8.14563 -4.75162,-1.22184 -9.50323,-2.44369 -14.25484,-3.66553 -5.43042,-4.61585 -10.86084,-9.231706 -16.29125,-13.84756 z"
     id="maleRightDeltoidRear"
     sodipodi:nodetypes="cccccccccc"
     inkscape:label="maleRightDeltoidRear" />
  <path
     style="fill:none"
     d="m 63.043288,119.42346 c 5.797173,-4.05003 11.22926,-7.55244 17.939147,-10.50721 8.173796,-4.71361 14.522163,-11.617733 21.783245,-17.4266 -7.346506,-2.364931 -14.327927,-3.817148 -22.039519,-4.35665 -1.452217,-1.025094 -2.904433,-2.050189 -4.35665,-3.075283 -6.962593,4.309875 -11.552128,10.080092 -14.863864,15.120138 -1.130339,7.296165 -0.800335,13.862155 1.537641,20.245605 z"
     id="maleLeftDeltoidRear"
     sodipodi:nodetypes="ccccccc"
     inkscape:label="maleLeftDeltoidRear" />
  <path
     style="fill:none"
     d="m 83.431658,108.95193 c 2.377576,2.47869 2.83803,5.91595 3.435422,9.07933 0.736162,5.88929 1.472323,11.77859 2.208485,17.66788 -2.862851,4.98954 -5.725702,9.97908 -8.588553,14.96862 -4.306687,5.24043 -8.613374,9.24842 -13.741685,12.02397 -7.32114,0.91442 -10.808036,-2.41622 -12.514749,-7.11623 -0.163592,-3.35362 -0.327183,-6.70725 -0.490775,-10.06087 1.063345,-4.25338 2.126689,-8.50676 3.190034,-12.76014 2.781055,-5.07134 5.562111,-10.14267 8.343166,-15.21401 5.231262,-3.68447 10.873335,-6.95814 18.158655,-8.58855 z"
     id="maleLeftTricep"
     sodipodi:nodetypes="cccccccccc"
     inkscape:label="maleLeftTricep" />
  <path
     style="fill:none"
     d="m 208.24975,108.37487 c 3.06944,0.78704 6.13888,1.57407 9.20832,2.36111 5.18207,1.31407 8.32136,3.71763 12.27776,8.02777 4.19518,7.31943 6.48377,14.50268 8.49999,21.9583 0.55093,6.5324 1.10185,13.0648 1.65278,19.5972 -0.62963,2.2824 -1.25926,4.56481 -1.88889,6.84721 -7.6608,1.04085 -10.01039,-0.64199 -14.40276,-2.59721 -2.36111,-2.2037 -4.72221,-4.40741 -7.08332,-6.61111 -3.77777,-6.13888 -7.55555,-12.27776 -11.33332,-18.41664 -0.62963,-3.69907 -1.25926,-7.39814 -1.88889,-11.09721 1.65278,-6.68981 3.30555,-13.37961 4.95833,-20.06942 z"
     id="maleRightTricep"
     sodipodi:nodetypes="ccccccccccc"
     inkscape:label="maleRightTricep" />
  <path
     style="fill:none"
     d="m 93.345082,79.823131 c 8.578438,-3.344139 17.156888,-6.688277 25.735328,-10.032416 18.75625,0 37.51251,0 56.26876,0 7.70606,3.053344 15.41212,6.106688 23.11818,9.160032 -5.75713,2.127041 -8.72384,4.652714 -13.08576,6.979071 -25.73533,0.145397 -51.47065,0.290795 -77.20598,0.436192 -4.94351,-2.18096 -8.691121,-5.159185 -14.830528,-6.542879 z"
     id="maleRearUpperTraps"
     sodipodi:nodetypes="ccccccc"
     inkscape:label="maleRearUpperTraps" />
  <path
     style="fill:none"
     d="m 144.17637,150.77599 c 10.89479,-5.53489 21.45477,-15.3977 30.96745,-26.90616 2.87676,-11.33781 5.75352,-22.67562 8.63028,-34.013433 -26.06005,0.676884 -52.12009,1.353769 -78.18014,2.030653 1.52299,3.04598 3.04598,6.09196 4.56897,9.13794 1.69221,7.10729 1.323,14.72993 5.07663,21.32186 8.7514,10.96672 19.29121,18.95276 28.93681,28.42914 z"
     id="maleRearLowerTraps"
     sodipodi:nodetypes="ccccccc"
     inkscape:label="maleRearLowerTraps" />
  <path
     style="fill:none"
     d="m 96.096248,195.1493 c 5.092282,-0.82133 10.184562,-1.64267 15.276842,-2.464 4.10668,1.9712 8.21335,3.94241 12.32003,5.91361 0.4928,-9.36322 0.9856,-18.72645 1.4784,-28.08967 4.10668,-8.04909 8.21335,-16.09817 12.32003,-24.14726 -6.3166,-8.03001 -15.44111,-14.45551 -23.16166,-21.68326 -1.4784,-7.88482 -2.95681,-15.76964 -4.43521,-23.65446 -9.03469,2.46401 -18.069378,4.92801 -27.104067,7.39202 1.971205,5.91362 3.942411,11.82723 5.913616,17.74085 1.973059,10.09289 7.556287,19.38351 11.334431,29.07527 0.9856,5.74935 1.97121,11.49869 2.95681,17.24804 -2.29974,7.55629 -4.599481,15.11257 -6.899222,22.66886 z"
     id="maleLeftLat"
     sodipodi:nodetypes="cccccccccccc"
     inkscape:label="maleLeftLat" />
  <path
     style="fill:none"
     d="m 199.00389,195.79415 c -5.50241,-1.06991 -11.00483,-2.13983 -16.50724,-3.20974 -5.96095,2.44552 -11.92189,4.89103 -17.88284,7.33655 0.45854,-10.54629 0.91707,-21.09258 1.37561,-31.63887 -7.1837,-5.96095 -14.36741,-11.92189 -21.55111,-17.88284 7.79508,-5.96095 15.59016,-11.92189 23.38524,-17.88284 2.44552,-3.66827 4.89103,-7.33655 7.33655,-11.00482 1.06991,-6.11379 2.13983,-12.22758 3.20974,-18.34137 2.13983,-3.362586 4.27965,-6.725171 6.41948,-10.087757 3.82112,3.668276 7.64224,7.336547 11.46336,11.004827 3.66827,1.68129 7.33655,3.36258 11.00482,5.04387 -1.52845,4.89103 -3.05689,9.78207 -4.58534,14.6731 -0.15284,4.58534 -0.30569,9.17069 -0.45853,13.75603 -2.44552,5.50241 -4.89103,11.00483 -7.33655,16.50724 -0.15285,6.57232 -0.30569,13.14465 -0.45854,19.71697 1.52845,7.33655 3.0569,14.6731 4.58535,22.00965 z"
     id="maleRightLat"
     sodipodi:nodetypes="cccccccccccccccc"
     inkscape:label="maleRightLat" />
  <path
     style="fill:none"
     d="m 125.54597,198.82257 17.98198,12.92824 12.5266,-5.9418 9.37974,-7.55759 v -26.97299 l -19.78019,-13.13459 -21.12883,15.38234 z"
     id="maleLowerBack"
     sodipodi:nodetypes="cccccccc"
     inkscape:label="maleLowerBack" />
</svg>
